<svg width="376" height="183" viewBox="0 0 376 183" fill="none" xmlns="http://www.w3.org/2000/svg">
<g style="mix-blend-mode:overlay">
<path d="M375.99 0C369.68 5.89396 362.294 10.5341 354.228 13.67C339.523 19.32 322.945 20.4 309.598 28.73C292.013 39.73 283.84 60.8 279.401 80.94C274.962 101.08 272.979 122.3 263.024 140.38C242.309 177.89 190.803 190.78 149.967 177.19C122.79 168.12 100.071 149.87 81.7621 127.62C72.6328 116.423 64.528 104.439 57.5441 91.81C41.8015 63.56 30.2562 32.45 8.66547 8.32C6.02795 5.37768 3.21098 2.59911 0.230469 0L375.99 0Z" fill="#A195AB"/>
</g>
</svg>
