<svg width="17" height="17" viewBox="0 0 17 17" fill="none" xmlns="http://www.w3.org/2000/svg">
<path d="M9.47537 16.2187C9.20108 16.3135 8.93212 16.4321 8.65152 16.4987C7.88963 16.6802 7.13635 16.6741 6.44488 16.2847C5.67272 15.8498 5.27859 15.1636 5.19979 14.2925C5.14108 13.6415 5.2652 13.0149 5.53667 12.4178C5.92329 11.5672 6.14443 10.6814 6.20652 9.75762C6.24384 9.2004 6.40307 8.68112 6.71122 8.20242C7.62547 6.78211 9.4996 6.27499 10.9825 7.0588C11.1878 7.1675 11.3747 7.3095 11.569 7.4378C12.1345 7.81079 12.7592 8.02453 13.4365 8.11137C14.1274 8.19992 14.7658 8.4239 15.3185 8.84792C15.9431 9.32726 16.3472 9.93165 16.3913 10.7391C16.4305 11.4588 16.1676 12.0772 15.7094 12.6296C15.4184 12.98 15.0749 13.2708 14.6813 13.5034C14.6509 13.5215 14.624 13.546 14.5955 13.5672L14.1737 13.7856C14.1496 13.7926 14.1242 13.7966 14.1017 13.8066C13.6431 14.0108 13.1623 14.1339 12.6699 14.22C12.1731 14.307 11.7213 14.5043 11.3336 14.8292C11.1035 15.0222 10.8991 15.2454 10.6675 15.4362C10.4337 15.6292 10.1803 15.7994 9.93542 15.9798L9.47509 16.2181L9.47537 16.2187Z" fill="black"/>
<path d="M6.80213 0.908164C7.50271 0.66414 8.16182 0.811932 8.81006 1.03948C9.34268 1.22625 9.81838 1.50456 10.2402 1.86743C11.1039 2.60992 11.4374 3.99213 11.0039 5.02418C10.6618 5.8386 9.73713 6.30054 8.8858 6.07087C8.15871 5.87481 7.61931 5.44234 7.23969 4.83313C6.8183 4.15665 6.50719 3.42578 6.30681 2.65053C6.22496 2.33372 6.18627 2.01053 6.23439 1.67795C6.27528 1.39491 6.40738 1.1659 6.65485 1.0004C6.66496 0.993657 6.67136 0.981603 6.67961 0.971905C6.72049 0.950737 6.76113 0.929699 6.80201 0.908531L6.80213 0.908164Z" fill="black"/>
<path d="M1.09769 11.4484C1.00603 11.1899 0.896615 10.9361 0.826613 10.6717C0.701743 10.1995 0.661541 9.7167 0.78089 9.23264C0.847109 8.96315 0.980678 8.72977 1.22419 8.57108C1.42816 8.43836 1.65449 8.41165 1.88845 8.42304C2.25517 8.44124 2.58256 8.58279 2.90488 8.7361C3.56885 9.0519 4.1624 9.4645 4.64695 10.0161C5.02799 10.4498 5.22366 10.9599 5.22926 11.5417C5.23628 12.2829 4.72435 12.885 3.95193 13.0342C3.37411 13.1457 2.83684 13.0153 2.33123 12.7546C1.89715 12.5309 1.54578 12.212 1.29386 11.7919C1.28107 11.7708 1.26218 11.7535 1.2461 11.7344C1.19659 11.6387 1.1472 11.5434 1.09769 11.4477L1.09769 11.4484Z" fill="black"/>
<path d="M15.6527 4.24528C15.7177 4.45196 15.8067 4.65445 15.8436 4.86662C15.9804 5.65274 15.8394 6.39369 15.3274 7.03498C14.9709 7.48153 14.4968 7.74248 13.9049 7.67492C13.4302 7.62079 13.0599 7.36703 12.7689 7.00658C12.4588 6.62257 12.2762 6.17744 12.2176 5.68814C12.1305 4.95835 12.15 4.22927 12.336 3.50875C12.4039 3.2463 12.495 2.98974 12.6634 2.76827C12.9535 2.38676 13.369 2.26463 13.819 2.4191C14.3139 2.58915 14.6953 2.90982 15.0273 3.2937C15.169 3.45764 15.2935 3.63629 15.4261 3.80832L15.6527 4.24528Z" fill="black"/>
<path d="M6.28988 4.60085C6.53663 5.02317 6.71651 5.47048 6.77161 5.9625C6.82265 6.41864 6.79677 6.87121 6.59688 7.30386C6.25044 8.05413 5.52363 8.52481 4.61004 8.35885C3.92759 8.23477 3.42964 7.84997 3.01425 7.34316C2.59984 6.83765 2.40789 6.2507 2.39778 5.59704C2.38508 4.76356 2.56468 3.96886 2.99199 3.22554C3.11826 3.00584 3.27781 2.80959 3.48273 2.65164C3.85748 2.36295 4.2517 2.33667 4.64828 2.56958C4.96145 2.75346 5.20345 3.00945 5.43085 3.28234C5.76962 3.68867 6.02714 4.14641 6.28988 4.60085Z" fill="black"/>
</svg>
