<svg width="21" height="21" viewBox="0 0 21 21" fill="none" xmlns="http://www.w3.org/2000/svg">
<path d="M11.6195 20.3268C11.2611 20.4508 10.9097 20.6057 10.543 20.6927C9.5475 20.9299 8.5632 20.922 7.65968 20.4131C6.65072 19.8449 6.13572 18.9482 6.03276 17.8099C5.95604 16.9593 6.11823 16.1405 6.47295 15.3604C6.97813 14.2488 7.26709 13.0914 7.34822 11.8843C7.39699 11.1562 7.60504 10.4777 8.0077 9.8522C9.20233 7.99632 11.6512 7.33368 13.5888 8.35787C13.8571 8.49991 14.1013 8.68545 14.3553 8.8531C15.0941 9.34047 15.9104 9.61976 16.7954 9.73323C17.6982 9.84894 18.5323 10.1416 19.2545 10.6957C20.0707 11.322 20.5988 12.1117 20.6563 13.1668C20.7076 14.1072 20.3641 14.9153 19.7653 15.637C19.3851 16.0949 18.9363 16.4749 18.422 16.7788C18.3822 16.8026 18.3471 16.8345 18.3098 16.8622L17.7587 17.1476C17.7272 17.1568 17.6941 17.1619 17.6646 17.175C17.0654 17.4418 16.4371 17.6027 15.7937 17.7152C15.1446 17.8288 14.5543 18.0866 14.0476 18.5112C13.747 18.7634 13.4799 19.0551 13.1773 19.3044C12.8717 19.5565 12.5407 19.7789 12.2207 20.0146L11.6192 20.3261L11.6195 20.3268Z" fill="white"/>
<path d="M8.12649 0.32101C9.04192 0.00215066 9.90315 0.195267 10.7502 0.492593C11.4461 0.73664 12.0677 1.10031 12.6189 1.57446C13.7474 2.54464 14.1832 4.35073 13.6168 5.69929C13.1699 6.76347 11.9616 7.36706 10.8492 7.06697C9.89909 6.81078 9.19427 6.24569 8.69824 5.44965C8.14761 4.56572 7.7411 3.61071 7.47927 2.59771C7.37232 2.18374 7.32176 1.76144 7.38464 1.32687C7.43807 0.957029 7.61067 0.657789 7.93405 0.441526C7.94725 0.432721 7.95561 0.416971 7.9664 0.404298C8.01982 0.376639 8.07291 0.349148 8.12633 0.321489L8.12649 0.32101Z" fill="white"/>
<path d="M0.672667 14.0936C0.552891 13.7559 0.409922 13.4243 0.318453 13.0787C0.155289 12.4617 0.102758 11.8309 0.258708 11.1984C0.345234 10.8462 0.519765 10.5413 0.837957 10.3339C1.10447 10.1605 1.40021 10.1256 1.70592 10.1405C2.1851 10.1643 2.61289 10.3492 3.03406 10.5495C3.90166 10.9622 4.67723 11.5013 5.31038 12.2221C5.80827 12.7887 6.06394 13.4553 6.07126 14.2155C6.08043 15.1841 5.41151 15.9708 4.40221 16.1657C3.64719 16.3114 2.94515 16.1411 2.28449 15.8004C1.7173 15.5081 1.25816 15.0914 0.928992 14.5425C0.912284 14.5149 0.8876 14.4922 0.866585 14.4673C0.801889 14.3423 0.737356 14.2177 0.672661 14.0928L0.672667 14.0936Z" fill="white"/>
<path d="M19.6912 4.68153C19.7762 4.95158 19.8925 5.21617 19.9407 5.49341C20.1194 6.52061 19.9352 7.48878 19.2662 8.32674C18.8004 8.91023 18.1809 9.25121 17.4074 9.16293C16.7871 9.09221 16.3033 8.76062 15.923 8.28964C15.5179 7.78785 15.2793 7.20622 15.2027 6.56686C15.0889 5.61327 15.1143 4.6606 15.3575 3.71912C15.4462 3.37618 15.5653 3.04094 15.7852 2.75155C16.1644 2.25305 16.7072 2.09347 17.2952 2.2953C17.942 2.5175 18.4402 2.93652 18.8741 3.43812C19.0593 3.65234 19.2219 3.88577 19.3952 4.11056L19.6912 4.68153Z" fill="white"/>
<path d="M7.45715 5.14613C7.77956 5.69797 8.01461 6.28245 8.08661 6.92536C8.1533 7.52139 8.11949 8.11275 7.85829 8.67808C7.40561 9.65844 6.4559 10.2735 5.26215 10.0566C4.3704 9.89447 3.71976 9.39167 3.17697 8.72944C2.63547 8.0689 2.38467 7.30195 2.37145 6.44783C2.35486 5.35874 2.58954 4.32033 3.14789 3.34906C3.31288 3.06198 3.52136 2.80555 3.78913 2.59915C4.27879 2.22194 4.79391 2.18759 5.31212 2.49193C5.72132 2.7322 6.03753 3.0667 6.33468 3.42327C6.77734 3.95421 7.11383 4.55233 7.45715 5.14613Z" fill="white"/>
</svg>
