<svg width="1296" height="689" viewBox="0 0 1296 689" fill="none" xmlns="http://www.w3.org/2000/svg">
<path d="M211.476 28.5956C215.555 30.3906 220.589 25.5291 222.391 17.5966C223.764 11.5546 222.701 1.48928 218.534 0.0939935C216.256 -0.668157 209.568 3.22314 207.619 11.0937C205.67 18.9636 207.396 26.7991 211.476 28.5956Z" fill="black" fill-opacity="0.05"/>
<path d="M198.119 24.5315C198.365 20.1085 195.333 12.2021 191.829 12.2423C189.415 12.2692 185.462 17.6714 185.431 24.4323C185.402 31.1918 188.217 36.6938 191.721 36.7214C195.224 36.749 197.743 31.273 198.119 24.5315Z" fill="black" fill-opacity="0.05"/>
<path d="M222.602 83.9355C225.531 77.147 223.779 72.932 222.31 68.7425C220.937 64.8236 220.705 60.4028 221.561 56.2304C223.077 48.8423 220.789 41.2812 216.125 37.1766C211.461 33.072 205.347 33.2398 200.848 38.0029C198.307 40.692 195.168 42.1463 191.925 42.0023C188.458 41.8502 184.862 41.3594 181.333 47.6185C176.976 55.3444 179.006 66.5417 185.057 71.8663C186.762 73.366 188.632 74.2662 190.529 74.6055C192.583 74.9739 194.526 75.9337 196.214 77.4005C197.889 78.8928 199.315 80.8966 200.375 83.2711C201.355 85.4628 202.712 87.4024 204.416 88.9021C210.466 94.2267 218.986 92.314 222.602 83.9355Z" fill="black" fill-opacity="0.05"/>
<path d="M223.976 39.5636C226.832 43.8419 232.911 42.8449 237.556 37.3338C242.2 31.825 242.223 22.0953 240.794 19.6097C238.179 15.0652 230.829 17.761 227.215 21.8395C222.469 27.194 221.12 35.2838 223.976 39.5636Z" fill="black" fill-opacity="0.05"/>
<path d="M226.218 66.9494C227.628 71.2255 232.533 72.4874 237.175 69.7677C241.816 67.0464 243.965 60.064 243.026 57.0982C241.662 52.7952 235.016 52.224 232.069 54.2815C227.577 57.4166 224.808 62.6733 226.218 66.9494Z" fill="black" fill-opacity="0.05"/>
<path d="M181.413 128.822C175.619 129.652 169.416 125.256 168.022 118.94C166.961 114.13 169.752 106.563 175.612 106.052C178.815 105.773 187.4 109.646 189.002 115.934C190.603 122.221 187.207 127.991 181.413 128.822Z" fill="black" fill-opacity="0.05"/>
<path d="M207.242 137.694C202.468 137.247 199.77 132.717 200.16 127.505C200.416 124.085 205.599 118.435 210.364 118.933C213.646 119.277 218.308 123.942 217.446 129.123C216.584 134.304 212.015 138.141 207.242 137.694Z" fill="black" fill-opacity="0.05"/>
<path d="M164.002 148.627C162.925 142.766 167.051 137.282 173.949 134.762C180.846 132.242 189.147 133.187 194.636 137.436C197.736 139.835 201.815 141.367 206.25 141.691C210.99 142.037 215.951 142.142 219.92 147.406C224.819 153.905 220.559 162.209 211.61 165.478C209.089 166.399 206.423 166.839 203.793 166.845C200.948 166.852 198.175 167.328 195.683 168.226C193.202 169.145 190.994 170.489 189.231 172.165C187.605 173.713 185.499 175.017 182.978 175.938C174.029 179.207 162.686 176.604 158.883 169.705C155.803 164.116 158.75 161.122 161.311 158.109C163.704 155.291 164.61 151.937 164.002 148.627Z" fill="black" fill-opacity="0.05"/>
<path d="M144.738 132.017C139.151 127.178 140.418 119.724 142.696 118.012C146.862 114.881 156.51 117.927 160.886 121.533C166.631 126.267 167.386 132.644 162.927 135.539C158.467 138.434 150.323 136.857 144.738 132.017Z" fill="black" fill-opacity="0.05"/>
<path d="M149.955 145.742C155.65 148.744 158.719 153.139 156.228 156.226C153.738 159.312 146.89 159.623 140.935 156.92C134.979 154.216 132.987 148.581 134.662 146.436C137.094 143.323 146.219 143.774 149.955 145.742Z" fill="black" fill-opacity="0.05"/>
<path d="M294.162 108.894C291.242 107.401 291.108 103.568 294.094 100.454C296.368 98.083 301.831 95.7736 304.597 97.4225C306.109 98.3241 307.546 102.694 304.665 105.862C301.783 109.03 297.081 110.388 294.162 108.894Z" fill="black" fill-opacity="0.05"/>
<path d="M302.811 114.3C304.856 112.936 310.244 112.198 311.977 113.926C313.17 115.116 312.5 118.572 309.204 120.487C305.906 122.403 301.804 122.57 300.038 120.862C298.273 119.153 299.696 116.379 302.811 114.3Z" fill="black" fill-opacity="0.05"/>
<path d="M269.068 114.871C271.674 114.442 273.955 113.313 275.572 111.721C278.435 108.901 283.282 107.896 287.624 109.027C291.965 110.157 294.939 113.2 294.855 116.743C294.808 118.745 295.666 120.691 297.356 122.24C299.164 123.895 301.203 125.519 299.899 129.008C298.292 133.315 291.791 135.468 286.158 134.001C284.571 133.588 283.195 132.925 282.081 132.091C280.873 131.188 279.432 130.506 277.87 130.092C276.303 129.691 274.607 129.555 272.914 129.703C271.35 129.84 269.722 129.72 268.135 129.307C262.503 127.84 259.18 123.128 261.478 119.001C263.339 115.657 266.28 115.33 269.068 114.871Z" fill="black" fill-opacity="0.05"/>
<path d="M282.553 105.849C279.029 105.653 276.479 102.394 276.856 98.5696C277.235 94.7451 281.989 91.9983 283.921 92C287.455 92.0028 289.808 96.3621 289.618 99.2794C289.366 103.11 286.076 106.045 282.553 105.849Z" fill="black" fill-opacity="0.05"/>
<path d="M268.009 112.458C265.211 112.969 262.14 110.921 261.153 107.882C260.166 104.843 262.512 101.827 264.434 101.453C267.224 100.911 270.827 104.007 271.292 106.029C272.001 109.111 270.81 111.946 268.009 112.458Z" fill="black" fill-opacity="0.05"/>
<path d="M418.169 140.106C415.017 138.328 415.131 134.048 418.674 130.691C421.373 128.134 427.623 125.77 430.595 127.716C432.22 128.78 433.521 133.71 430.09 137.132C426.66 140.553 421.323 141.885 418.169 140.106Z" fill="black" fill-opacity="0.05"/>
<path d="M434.166 153.616C430.359 155.625 425.771 155.653 423.92 153.68C422.07 151.706 423.848 148.668 427.464 146.469C429.837 145.027 435.899 144.412 437.711 146.406C438.96 147.78 437.976 151.608 434.166 153.616Z" fill="black" fill-opacity="0.05"/>
<path d="M420.827 155.111C422.728 157.028 424.89 158.917 423.198 162.758C421.108 167.499 413.711 169.649 407.53 167.794C405.788 167.272 404.298 166.479 403.113 165.506C401.831 164.453 400.27 163.637 398.556 163.114C396.833 162.606 394.954 162.39 393.055 162.489C391.302 162.581 389.494 162.384 387.752 161.862C381.571 160.008 378.19 154.625 381.037 150.112C383.344 146.455 386.646 146.205 389.786 145.8C392.722 145.422 395.343 144.251 397.256 142.538C400.642 139.503 406.118 138.571 410.882 140C415.646 141.429 418.753 144.937 418.416 148.885C418.225 151.115 419.047 153.318 420.827 155.111Z" fill="black" fill-opacity="0.05"/>
<path d="M405.442 136.261C401.526 135.906 398.906 132.173 399.591 127.922C400.275 123.672 405.768 120.792 407.922 120.869C411.862 121.009 414.186 125.961 413.773 129.207C413.229 133.469 409.359 136.615 405.442 136.261Z" fill="black" fill-opacity="0.05"/>
<path d="M388.777 143.068C385.619 143.531 382.336 141.127 381.444 137.7C380.552 134.273 383.377 131 385.546 130.658C388.694 130.162 392.499 133.753 392.88 136.026C393.457 139.49 391.935 142.606 388.777 143.068Z" fill="black" fill-opacity="0.05"/>
<path d="M334.569 262.315C329.403 258.172 325.595 249.498 330.825 246.167C333.686 244.346 345.328 243.94 352.289 249.251C359.249 254.561 360.925 261.791 356.032 265.399C351.14 269.007 341.351 267.754 334.569 262.315Z" fill="black" fill-opacity="0.05"/>
<path d="M391.136 248.262C394.759 253.694 393.639 259.62 388.633 261.497C383.628 263.375 377.12 260.296 373.011 255.062C370.315 251.628 370.473 243.65 375.514 241.827C378.987 240.571 387.512 242.831 391.136 248.262Z" fill="black" fill-opacity="0.05"/>
<path d="M353.913 274.768C358.422 268.99 367.27 265.887 376.238 267.342C381.303 268.164 386.571 267.673 391.141 265.84C396.027 263.881 400.919 261.581 409.29 264.756C419.624 268.676 422.644 278.775 416.795 286.27C415.148 288.382 412.945 290.098 410.407 291.376C407.659 292.76 405.384 294.563 403.744 296.639C402.132 298.728 401.151 301.099 400.89 303.574C400.647 305.859 399.73 308.14 398.082 310.252C392.233 317.747 379.014 320.718 369.397 315.881C361.605 311.961 361.884 307.636 361.768 303.481C361.659 299.595 359.651 295.911 356.216 293.002C350.131 287.85 349.406 280.545 353.913 274.768Z" fill="black" fill-opacity="0.05"/>
<path d="M329.875 268.278C339.51 270.08 345.726 275.886 343.901 280.846C342.076 285.807 332.836 288.222 323.266 286.241C313.695 284.26 308.508 276.432 309.24 273.673C310.578 268.625 322.536 266.905 329.875 268.278Z" fill="black" fill-opacity="0.05"/>
<path d="M340.131 297.008C348.228 297.156 354.98 299.926 355.224 304.119C355.468 308.312 349.109 311.926 341.019 312.192C332.928 312.457 326.15 307.968 325.926 305.081C325.601 300.891 334.821 296.91 340.131 297.008Z" fill="black" fill-opacity="0.05"/>
<path d="M25.3967 57.8269C20.2309 53.6841 16.4232 45.0097 21.6532 41.679C24.5138 39.8579 36.1564 39.4519 43.1172 44.7625C50.0772 50.0731 51.7536 57.3028 46.86 60.9103C41.9679 64.5184 32.1793 63.2656 25.3967 57.8269Z" fill="black" fill-opacity="0.05"/>
<path d="M81.964 43.774C85.5868 49.206 84.4667 55.1313 79.4613 57.0089C74.4566 58.8865 67.9477 55.8075 63.8394 50.5735C61.1436 47.1393 61.3009 39.1619 66.3421 37.3386C69.815 36.0824 78.3396 38.3426 81.964 43.774Z" fill="black" fill-opacity="0.05"/>
<path d="M44.7411 70.2792C49.2498 64.5016 58.0981 61.3986 67.0657 62.8539C72.1315 63.6761 77.3987 63.1844 81.9687 61.3521C86.8548 59.3928 91.7469 57.093 100.119 60.2682C110.452 64.1872 113.472 74.2867 107.623 81.782C105.976 83.8939 103.773 85.6099 101.235 86.8879C98.4869 88.2716 96.2124 90.0743 94.5718 92.1504C92.9602 94.24 91.9795 96.6104 91.7178 99.0853C91.4747 101.371 90.5581 103.652 88.91 105.763C83.0612 113.259 69.8421 116.23 60.225 111.392C52.4335 107.473 52.7124 103.148 52.596 98.993C52.4872 95.1069 50.4796 91.4228 47.0439 88.5132C40.9586 83.362 40.2338 76.0569 44.7411 70.2792Z" fill="black" fill-opacity="0.05"/>
<path d="M20.7032 63.7893C30.3382 65.5913 36.554 71.3975 34.7292 76.358C32.9043 81.3185 23.6645 83.7342 14.0936 81.7531C4.52276 79.772 -0.663878 71.944 0.0676975 69.1843C1.40631 64.1371 13.3643 62.4167 20.7032 63.7893Z" fill="black" fill-opacity="0.05"/>
<path d="M30.9594 92.5193C39.0559 92.6681 45.8079 95.4378 46.0518 99.6304C46.2964 103.823 39.9374 107.438 31.8468 107.703C23.7563 107.969 16.9782 103.48 16.7544 100.592C16.4293 96.4026 25.6489 92.422 30.9594 92.5193Z" fill="black" fill-opacity="0.05"/>
<path d="M543.936 261.438C537.489 261.884 531.335 256.587 530.708 249.577C530.23 244.238 534.351 236.195 540.824 236.103C544.363 236.053 553.193 240.968 554.052 247.964C554.911 254.96 550.383 260.993 543.936 261.438Z" fill="black" fill-opacity="0.05"/>
<path d="M570.898 273.188C565.747 272.319 563.442 267.156 564.605 261.493C565.369 257.777 571.832 252.019 576.966 252.943C580.504 253.579 584.935 259.048 583.26 264.638C581.583 270.229 576.049 274.057 570.898 273.188Z" fill="black" fill-opacity="0.05"/>
<path d="M538.977 313.034C528.739 315.892 516.715 312.146 513.539 304.306C510.965 297.954 514.611 294.918 517.833 291.831C520.847 288.943 522.311 285.352 522.117 281.688C521.77 275.2 527.054 269.537 534.946 267.334C542.838 265.131 551.774 266.824 557.167 271.902C560.214 274.77 564.453 276.769 569.25 277.476C574.38 278.232 579.784 278.741 583.374 284.809C587.806 292.299 581.975 301.03 571.737 303.889C568.853 304.694 565.877 304.962 563.005 304.759C559.895 304.54 556.8 304.839 553.948 305.621C551.108 306.427 548.505 307.72 546.344 309.411C544.347 310.972 541.862 312.229 538.977 313.034Z" fill="black" fill-opacity="0.05"/>
<path d="M522.825 267.305C517.544 270.112 508.871 267.741 503.454 262.009C498.036 256.276 500.477 248.235 503.209 246.546C508.204 243.457 518.312 247.554 522.58 251.842C528.185 257.471 528.106 264.497 522.825 267.305Z" fill="black" fill-opacity="0.05"/>
<path d="M512.567 289.369C509.41 292.541 501.886 292.336 495.764 288.908C489.641 285.48 488.262 279.166 490.396 276.956C493.493 273.749 503.397 274.967 507.201 277.416C512.997 281.149 515.725 286.195 512.567 289.369Z" fill="black" fill-opacity="0.05"/>
<path d="M452.179 401.069C446.066 404.727 435.165 402.442 428.329 395.677C423.122 390.523 420.167 380.352 426.62 377.038C430.149 375.226 443.414 375.794 450.471 382.43C457.529 389.066 458.294 397.411 452.179 401.069Z" fill="black" fill-opacity="0.05"/>
<path d="M494.687 384.743C497.942 391.222 495.741 397.841 489.77 399.528C483.801 401.215 476.906 397.149 473.07 390.851C470.553 386.72 471.985 377.689 477.985 376.067C482.12 374.949 491.431 378.265 494.687 384.743Z" fill="black" fill-opacity="0.05"/>
<path d="M448.299 411.504C454.318 405.352 464.838 402.615 474.777 405.058C480.392 406.438 486.44 406.346 491.909 404.672C497.758 402.882 503.664 400.707 512.659 405.047C523.759 410.403 525.597 422.121 517.789 430.102C515.588 432.35 512.821 434.102 509.743 435.327C506.409 436.653 503.546 438.496 501.361 440.705C499.207 442.933 497.721 445.533 497.035 448.316C496.401 450.886 495.003 453.391 492.803 455.64C484.995 463.621 469.54 465.822 459.396 459.488C451.178 454.355 452.173 449.476 452.694 444.755C453.181 440.34 451.483 435.985 448.045 432.383C441.955 426.003 442.28 417.656 448.299 411.504Z" fill="black" fill-opacity="0.05"/>
<path d="M422.091 402.024C432.731 404.918 438.867 412.05 436.018 417.513C433.17 422.976 422.316 424.899 411.774 421.807C401.234 418.715 396.583 409.382 397.847 406.317C400.158 400.713 413.986 399.819 422.091 402.024Z" fill="black" fill-opacity="0.05"/>
<path d="M429.191 435.5C438.346 436.384 445.566 440.121 445.185 444.896C444.804 449.672 437.026 453.208 427.81 452.794C418.595 452.38 411.617 446.692 411.816 443.398C412.107 438.619 423.184 434.92 429.191 435.5Z" fill="black" fill-opacity="0.05"/>
<path d="M537.587 492.157C539.534 492.914 542.4 497.548 540.109 501.546C537.817 505.544 532.973 507.823 529.289 506.635C525.606 505.448 524.344 501.2 526.768 497.246C528.614 494.234 534.029 490.771 537.587 492.157Z" fill="black" fill-opacity="0.05"/>
<path d="M540.509 511.243C542.39 509.39 548.178 507.691 550.608 509.332C552.282 510.463 552.537 514.422 549.42 517.093C546.304 519.764 541.782 520.619 539.321 519.004C536.861 517.389 537.643 514.067 540.509 511.243Z" fill="black" fill-opacity="0.05"/>
<path d="M503.105 517.381C505.885 516.477 508.097 514.848 509.435 512.81C511.806 509.203 516.914 507.293 522.079 507.845C527.242 508.396 531.438 511.3 532.37 515.26C532.896 517.497 534.416 519.525 536.748 520.974C539.242 522.523 541.982 523.999 541.543 528.098C541.001 533.157 534.385 536.615 527.686 535.9C525.798 535.698 524.072 535.184 522.59 534.437C520.984 533.628 519.181 533.103 517.321 532.897C515.458 532.706 513.531 532.831 511.688 533.272C509.986 533.679 508.137 533.811 506.25 533.61C499.551 532.894 494.486 528.188 495.849 523.217C496.953 519.19 500.133 518.347 503.105 517.381Z" fill="black" fill-opacity="0.05"/>
<path d="M515.48 505.137C511.499 505.494 507.714 502.279 507.026 497.958C506.337 493.637 510.837 489.802 512.989 489.488C516.926 488.916 520.811 493.387 521.444 496.668C522.275 500.975 519.461 504.781 515.48 505.137Z" fill="black" fill-opacity="0.05"/>
<path d="M494.018 503.196C496.968 502.138 501.878 504.998 502.982 507.174C504.665 510.492 504.16 513.843 501.191 514.87C498.221 515.896 494.207 514.115 492.227 510.892C490.246 507.668 491.985 503.926 494.018 503.196Z" fill="black" fill-opacity="0.05"/>
<path d="M702.244 552.401C701.316 547.709 707.875 542.92 716.959 542.083C723.878 541.445 734.562 544.027 735.031 548.758C735.287 551.345 729.37 558.07 720.316 559.076C711.262 560.082 703.171 557.094 702.244 552.401Z" fill="black" fill-opacity="0.05"/>
<path d="M703.289 567.506C708.164 567.864 716.002 572.283 715.077 576.089C714.439 578.712 707.566 582.248 700.203 581.324C692.841 580.399 687.564 576.556 688.415 572.74C689.269 568.925 695.86 566.96 703.289 567.506Z" fill="black" fill-opacity="0.05"/>
<path d="M644.846 532.459C652.969 530.233 657.115 532.737 661.304 534.928C665.223 536.977 669.973 537.855 674.729 537.515C683.149 536.912 690.799 540.473 694.09 546.128C697.382 551.784 695.661 558.412 689.345 562.633C685.779 565.017 683.408 568.226 682.747 571.774C682.04 575.569 681.669 579.55 673.97 582.504C664.467 586.15 652.795 582.355 648.525 575.018C647.322 572.951 646.813 570.788 646.922 568.676C647.04 566.389 646.483 564.139 645.312 562.095C644.11 560.061 642.289 558.226 639.973 556.736C637.834 555.359 636.067 553.609 634.863 551.542C630.595 544.205 634.82 535.206 644.846 532.459Z" fill="black" fill-opacity="0.05"/>
<path d="M713.577 536.235C706.558 540.64 697.415 540.961 693.477 537.248C689.541 533.535 692.158 527.061 699.323 522.789C706.487 518.517 717.077 519.869 719.423 521.776C723.708 525.264 718.925 532.88 713.577 536.235Z" fill="black" fill-opacity="0.05"/>
<path d="M664.226 530.93C659.929 528.79 659.792 523.274 663.92 518.61C668.049 513.945 676.187 512.596 679.177 514.038C683.516 516.131 682.464 523.444 679.483 526.358C674.94 530.801 668.524 533.07 664.226 530.93Z" fill="black" fill-opacity="0.05"/>
<path d="M825.458 568.457C820.991 568.333 817.403 564.295 817.804 559.451C818.111 555.762 821.887 550.529 826.33 550.897C828.761 551.099 834.225 555.055 833.985 559.903C833.743 564.753 829.926 568.582 825.458 568.457Z" fill="black" fill-opacity="0.05"/>
<path d="M842.527 578.299C839.102 577.361 838.135 573.67 839.604 569.869C840.567 567.375 845.677 563.862 849.084 564.838C851.43 565.51 853.818 569.551 852.007 573.268C850.196 576.985 845.952 579.238 842.527 578.299Z" fill="black" fill-opacity="0.05"/>
<path d="M803.959 587.53C806.365 585.753 807.795 583.391 808.095 580.869C808.627 576.402 812.919 572.876 818.584 571.893C824.251 570.911 830.169 572.666 833.262 576.505C835.008 578.672 837.674 580.324 840.877 581.128C844.301 581.988 847.941 582.698 849.68 587.093C851.827 592.518 846.799 598.109 839.448 599.384C837.376 599.743 835.306 599.728 833.364 599.398C831.26 599.041 829.104 599.039 827.057 599.385C825.018 599.747 823.08 600.459 821.4 601.472C819.847 602.409 817.997 603.103 815.926 603.462C808.575 604.737 800.783 601.368 799.536 595.788C798.53 591.266 801.386 589.43 803.959 587.53Z" fill="black" fill-opacity="0.05"/>
<path d="M810.29 571.064C806.34 572.634 800.68 570.432 797.65 566.144C794.621 561.857 797.245 556.513 799.316 555.538C803.104 553.755 809.541 557.235 811.956 560.457C815.128 564.686 814.24 569.493 810.29 571.064Z" fill="black" fill-opacity="0.05"/>
<path d="M798.373 576.946C801.901 579.889 803.17 583.527 800.631 585.49C798.092 587.452 792.964 586.809 789.176 584.053C785.39 581.298 785.195 576.88 786.918 575.509C789.419 573.519 796.058 575.015 798.373 576.946Z" fill="black" fill-opacity="0.05"/>
<path d="M935.863 660.71C932.152 660.145 929.895 656.401 931.118 652.395C932.048 649.344 936.163 645.36 939.809 646.126C941.803 646.545 945.645 650.413 944.555 654.441C943.466 658.468 939.573 661.275 935.863 660.71Z" fill="black" fill-opacity="0.05"/>
<path d="M948.319 670.692C945.629 669.555 945.497 666.371 947.421 663.346C948.683 661.361 953.596 658.952 956.265 660.118C958.104 660.922 959.357 664.544 957.163 667.464C954.968 670.384 951.009 671.829 948.319 670.692Z" fill="black" fill-opacity="0.05"/>
<path d="M914.416 674.435C916.752 673.197 918.379 671.371 919.093 669.294C920.356 665.617 924.587 663.112 929.502 662.875C934.418 662.638 939.041 664.715 940.923 668.241C941.985 670.232 943.91 671.887 946.44 672.889C949.143 673.961 952.056 674.928 952.704 678.781C953.504 683.536 948.277 687.69 941.9 687.998C940.105 688.084 938.378 687.859 936.815 687.383C935.122 686.867 933.321 686.643 931.548 686.721C929.775 686.814 928.028 687.21 926.437 687.883C924.968 688.506 923.294 688.895 921.498 688.982C915.121 689.29 909.227 685.672 909.209 680.88C909.194 676.997 911.918 675.757 914.416 674.435Z" fill="black" fill-opacity="0.05"/>
<path d="M922.695 661.322C919.106 662.228 914.78 659.805 913.034 655.909C911.287 652.014 914.459 647.818 916.369 647.217C919.861 646.118 924.602 649.689 926.03 652.63C927.904 656.492 926.283 660.417 922.695 661.322Z" fill="black" fill-opacity="0.05"/>
<path d="M911.675 665.015C914.084 667.838 914.479 671.009 911.997 672.388C909.517 673.767 905.348 672.701 902.688 670.007C900.028 667.314 900.674 663.602 902.366 662.634C904.821 661.229 910.095 663.163 911.675 665.015Z" fill="black" fill-opacity="0.05"/>
<path d="M1011.84 559.899C1007.25 556.332 1003.77 548.794 1008.28 545.833C1010.75 544.214 1020.91 543.743 1027.08 548.312C1033.26 552.881 1034.85 559.179 1030.64 562.379C1026.43 565.577 1017.86 564.581 1011.84 559.899Z" fill="black" fill-opacity="0.05"/>
<path d="M1059.04 558.646C1054.7 560.336 1048.96 557.712 1045.28 553.181C1042.87 550.209 1042.86 543.24 1047.23 541.597C1050.25 540.465 1057.73 542.354 1060.99 547.062C1064.25 551.77 1063.38 556.957 1059.04 558.646Z" fill="black" fill-opacity="0.05"/>
<path d="M1028.93 570.583C1032.77 565.492 1040.44 562.693 1048.3 563.875C1052.74 564.542 1057.33 564.061 1061.29 562.415C1065.52 560.655 1069.75 558.598 1077.12 561.287C1086.22 564.607 1089.03 573.398 1084.06 580.003C1082.66 581.864 1080.76 583.384 1078.57 584.526C1076.19 585.762 1074.24 587.359 1072.84 589.189C1071.47 591.03 1070.66 593.11 1070.47 595.274C1070.3 597.273 1069.54 599.274 1068.14 601.135C1063.16 607.74 1051.67 610.467 1043.18 606.337C1036.31 602.992 1036.48 599.212 1036.3 595.584C1036.14 592.191 1034.32 588.993 1031.27 586.486C1025.86 582.047 1025.1 575.674 1028.93 570.583Z" fill="black" fill-opacity="0.05"/>
<path d="M1007.86 565.152C1016.31 566.63 1021.84 571.64 1020.33 575.99C1018.82 580.34 1010.8 582.543 1002.4 580.907C994.009 579.273 989.341 572.488 989.931 570.07C991.011 565.648 1001.43 564.026 1007.86 565.152Z" fill="black" fill-opacity="0.05"/>
<path d="M1017.3 590.142C1024.37 590.191 1030.31 592.542 1030.6 596.202C1030.89 599.862 1025.4 603.082 1018.34 603.395C1011.28 603.708 1005.28 599.854 1005.03 597.335C1004.67 593.678 1012.65 590.109 1017.3 590.142Z" fill="black" fill-opacity="0.05"/>
<path d="M1142.39 569.854C1138.92 571.658 1133.16 570.136 1129.81 566.312C1127.25 563.398 1126.15 557.845 1129.78 556.234C1131.76 555.354 1138.88 556.016 1142.36 559.777C1145.84 563.538 1145.85 568.05 1142.39 569.854Z" fill="black" fill-opacity="0.05"/>
<path d="M1162.7 570.035C1159.4 570.782 1155.89 568.409 1154.12 564.917C1152.97 562.626 1154.17 557.803 1157.47 557.092C1159.75 556.601 1164.61 558.636 1166.05 562.21C1167.49 565.784 1165.99 569.288 1162.7 570.035Z" fill="black" fill-opacity="0.05"/>
<path d="M1154.38 572.608C1157.33 573.501 1160.59 573.614 1163.61 572.86C1166.85 572.055 1170.13 571.042 1174.76 573.619C1180.48 576.8 1180.91 583.156 1176.33 587.241C1175.04 588.392 1173.46 589.261 1171.75 589.837C1169.89 590.461 1168.26 591.376 1166.98 592.506C1165.72 593.647 1164.79 595.007 1164.29 596.486C1163.83 597.851 1162.95 599.162 1161.66 600.314C1157.08 604.399 1148.66 605.168 1143.5 601.487C1139.32 598.504 1140.09 595.905 1140.6 593.378C1141.07 591.015 1140.36 588.626 1138.68 586.594C1135.71 582.998 1136.28 578.515 1139.82 575.365C1143.35 572.217 1149.14 571.027 1154.38 572.608Z" fill="black" fill-opacity="0.05"/>
<path d="M1126.16 569.56C1131.75 571.403 1134.71 575.407 1132.91 578.271C1131.12 581.134 1125.19 581.877 1119.66 579.93C1114.14 577.983 1112.08 572.835 1112.91 571.219C1114.42 568.266 1121.9 568.155 1126.16 569.56Z" fill="black" fill-opacity="0.05"/>
<path d="M1128.38 587.769C1133.27 588.49 1136.97 590.696 1136.54 593.255C1136.11 595.815 1131.75 597.509 1126.81 597.039C1121.87 596.569 1118.39 593.32 1118.65 591.553C1119.04 588.988 1125.18 587.296 1128.38 587.769Z" fill="black" fill-opacity="0.05"/>
<path d="M1277.94 607.076C1280.75 607.582 1283.68 607.29 1286.26 606.311C1290.83 604.578 1296.18 605.318 1299.7 607.958C1303.22 610.599 1304.2 614.617 1301.89 618.04C1300.58 619.973 1300.19 622.173 1300.86 624.281C1301.58 626.535 1302.54 628.839 1299.07 631.777C1294.79 635.404 1287.1 635.198 1282.54 631.772C1281.25 630.806 1280.33 629.673 1279.77 628.465C1279.16 627.157 1278.19 625.982 1276.93 625.025C1275.65 624.078 1274.09 623.346 1272.34 622.89C1270.73 622.469 1269.22 621.775 1267.94 620.81C1263.37 617.385 1263.11 611.617 1267.94 608.41C1271.86 605.812 1274.93 606.535 1277.94 607.076Z" fill="black" fill-opacity="0.05"/>
<path d="M1306.8 590.05C1310.24 591.305 1309.78 596.386 1307.76 599.161C1305.1 602.804 1300.05 604.498 1296.74 603.058C1293.43 601.619 1293 597.539 1295.77 593.947C1298.55 590.355 1304.91 589.364 1306.8 590.05Z" fill="black" fill-opacity="0.05"/>
<path d="M1281.85 592.354C1284.91 592.815 1286.47 597.107 1285.65 599.242C1284.39 602.496 1281.45 604.836 1278.4 604.342C1275.35 603.849 1273.65 600.765 1274.6 597.454C1275.55 594.143 1279.74 592.037 1281.85 592.354Z" fill="black" fill-opacity="0.05"/>
<path d="M1309.31 467.46C1306.69 468.286 1303.79 468.693 1300.76 468.575C1290.02 468.157 1281.11 461.247 1282.33 453.232C1283.31 446.739 1288.18 445.064 1292.7 443.218C1296.93 441.492 1300.13 438.677 1301.86 435.309C1304.93 429.345 1312.65 425.777 1320.93 426.099C1329.21 426.421 1336.4 430.57 1338.63 436.741C1339.89 440.225 1342.68 443.274 1346.65 445.319C1350.89 447.506 1355.51 449.549 1355.59 456.085C1355.69 464.151 1345.87 470.332 1335.13 469.914C1332.1 469.796 1329.28 469.166 1326.79 468.141C1324.09 467.032 1321.14 466.394 1318.15 466.266C1315.17 466.161 1312.14 466.566 1309.31 467.46Z" fill="black" fill-opacity="0.05"/>
<path d="M1309.98 422.514C1303.74 423.503 1297.14 418.818 1295.23 412.051C1293.32 405.283 1299.72 398.732 1303.07 398.007C1309.19 396.68 1316.19 403.344 1317.81 408.47C1319.94 415.2 1316.21 421.525 1309.98 422.514Z" fill="black" fill-opacity="0.05"/>
<path d="M1289.22 439.445C1284.71 441.387 1278.02 438.995 1274.28 434.103C1270.53 429.212 1272.57 423.101 1275.65 421.73C1280.12 419.74 1288.44 423.745 1290.6 427.072C1293.89 432.144 1293.73 437.504 1289.22 439.445Z" fill="black" fill-opacity="0.05"/>
</svg>
