<svg width="1071" height="479" viewBox="0 0 1071 479" fill="none" xmlns="http://www.w3.org/2000/svg">
<path d="M1019.7 37.5036C1021.13 34.2327 1017.24 30.1958 1010.88 28.7508C1006.03 27.6502 997.96 28.5023 996.841 31.8436C996.23 33.6703 999.35 39.0329 1005.66 40.5959C1011.97 42.1589 1018.26 40.7744 1019.7 37.5036Z" fill="black" fill-opacity="0.05"/>
<path d="M1016.44 48.2124C1012.89 48.0151 1006.55 50.4463 1006.58 53.2557C1006.6 55.1914 1010.94 58.3618 1016.36 58.386C1021.78 58.4098 1026.19 56.1521 1026.21 53.3427C1026.23 50.5334 1021.84 48.5138 1016.44 48.2124Z" fill="black" fill-opacity="0.05"/>
<path d="M1064.07 28.5802C1058.63 26.2314 1055.25 27.6365 1051.89 28.8138C1048.74 29.9149 1045.2 30.101 1041.85 29.4144C1035.93 28.1989 1029.87 30.0337 1026.57 33.7737C1023.28 37.5137 1023.42 42.4162 1027.24 46.0238C1029.39 48.0613 1030.56 50.5787 1030.44 53.1786C1030.32 55.9588 1029.93 58.8422 1034.95 61.6726C1041.14 65.1659 1050.12 63.5379 1054.39 58.6861C1055.59 57.3191 1056.32 55.8194 1056.59 54.2981C1056.88 52.6512 1057.65 51.0931 1058.83 49.74C1060.03 48.3968 1061.63 47.2532 1063.54 46.4028C1065.29 45.6171 1066.85 44.5294 1068.05 43.1624C1072.32 38.3115 1070.79 31.4792 1064.07 28.5802Z" fill="black" fill-opacity="0.05"/>
<path d="M1028.49 27.4781C1031.92 25.1881 1031.12 20.3135 1026.7 16.5892C1022.28 12.8654 1014.48 12.8465 1012.49 13.9929C1008.84 16.0891 1011.01 21.9832 1014.28 24.8814C1018.57 28.6868 1025.06 29.7681 1028.49 27.4781Z" fill="black" fill-opacity="0.05"/>
<path d="M1050.45 25.6825C1053.88 24.5519 1054.89 20.6186 1052.71 16.8965C1050.53 13.175 1044.93 11.4514 1042.55 12.2049C1039.1 13.2983 1038.64 18.6277 1040.29 20.9904C1042.81 24.5927 1047.02 26.8132 1050.45 25.6825Z" fill="black" fill-opacity="0.05"/>
<path d="M948.224 29.5263C952.869 30.1924 957.844 26.6672 958.961 21.6028C959.812 17.7454 957.574 11.6781 952.875 11.2682C950.307 11.044 943.423 14.1498 942.138 19.1917C940.854 24.2332 943.578 28.8603 948.224 29.5263Z" fill="black" fill-opacity="0.05"/>
<path d="M927.513 36.6408C931.34 36.2825 933.504 32.6501 933.191 28.4702C932.986 25.7281 928.829 21.1974 925.009 21.597C922.377 21.8724 918.639 25.6137 919.33 29.7677C920.022 33.922 923.685 36.9992 927.513 36.6408Z" fill="black" fill-opacity="0.05"/>
<path d="M962.186 45.4082C963.05 40.7084 959.742 36.311 954.21 34.29C948.68 32.2696 942.023 33.0271 937.622 36.4338C935.136 38.3579 931.865 39.5863 928.309 39.846C924.508 40.1236 920.53 40.2075 917.347 44.4291C913.419 49.6401 916.835 56.2985 924.011 58.9199C926.033 59.6586 928.17 60.0111 930.279 60.0165C932.56 60.0218 934.784 60.4035 936.783 61.1238C938.772 61.8607 940.543 62.9384 941.956 64.2825C943.26 65.5235 944.949 66.5694 946.971 67.3076C954.146 69.929 963.242 67.8417 966.291 62.31C968.761 57.8278 966.398 55.427 964.345 53.011C962.425 50.7515 961.699 48.0623 962.186 45.4082Z" fill="black" fill-opacity="0.05"/>
<path d="M977.631 32.0887C982.111 28.2079 981.095 22.2308 979.268 20.858C975.928 18.3473 968.191 20.7898 964.682 23.6817C960.076 27.4781 959.47 32.591 963.046 34.9124C966.622 37.2338 973.152 35.9695 977.631 32.0887Z" fill="black" fill-opacity="0.05"/>
<path d="M973.449 43.0945C968.882 45.5011 966.422 49.0258 968.419 51.501C970.416 53.9758 975.907 54.2252 980.682 52.0572C985.458 49.8896 987.055 45.371 985.712 43.651C983.762 41.1547 976.445 41.5158 973.449 43.0945Z" fill="black" fill-opacity="0.05"/>
<path d="M857.815 13.5472C860.156 12.3497 860.264 9.27577 857.87 6.77946C856.046 4.87785 851.666 3.02603 849.448 4.34819C848.235 5.07116 847.083 8.57567 849.393 11.1159C851.704 13.6562 855.474 14.7447 857.815 13.5472Z" fill="black" fill-opacity="0.05"/>
<path d="M850.877 17.8813C849.237 16.7874 844.917 16.1958 843.527 17.5812C842.57 18.5356 843.108 21.3068 845.751 22.8429C848.395 24.379 851.685 24.5131 853.101 23.143C854.516 21.7733 853.375 19.5488 850.877 17.8813Z" fill="black" fill-opacity="0.05"/>
<path d="M877.937 18.3399C875.847 17.9959 874.018 17.0904 872.722 15.8135C870.426 13.5522 866.539 12.7463 863.057 13.6531C859.576 14.56 857.191 16.9993 857.259 19.841C857.297 21.4457 856.609 23.0064 855.253 24.2483C853.804 25.5758 852.169 26.8778 853.214 29.676C854.503 33.1293 859.716 34.856 864.233 33.6796C865.505 33.3482 866.608 32.8163 867.502 32.1476C868.471 31.4237 869.626 30.877 870.879 30.5447C872.136 30.2231 873.495 30.1146 874.853 30.233C876.107 30.3424 877.412 30.2469 878.685 29.9154C883.201 28.7391 885.865 24.9609 884.023 21.6515C882.53 18.97 880.172 18.7076 877.937 18.3399Z" fill="black" fill-opacity="0.05"/>
<path d="M867.123 11.1051C869.949 10.9481 871.994 8.33478 871.691 5.26799C871.387 2.2012 867.575 -0.00134486 866.026 6.16099e-07C863.193 0.00224308 861.305 3.4978 861.458 5.83713C861.66 8.90841 864.298 11.2621 867.123 11.1051Z" fill="black" fill-opacity="0.05"/>
<path d="M878.785 16.4046C881.029 16.815 883.491 15.1721 884.283 12.7355C885.075 10.2988 883.193 7.88011 881.652 7.58052C879.415 7.14593 876.526 9.62834 876.153 11.2496C875.585 13.7213 876.54 15.9947 878.785 16.4046Z" fill="black" fill-opacity="0.05"/>
<path d="M758.377 38.5751C760.905 37.1489 760.813 33.717 757.972 31.0252C755.808 28.9751 750.796 27.0794 748.413 28.6397C747.11 29.4931 746.067 33.4457 748.818 36.1896C751.568 38.933 755.848 40.0013 758.377 38.5751Z" fill="black" fill-opacity="0.05"/>
<path d="M745.549 49.4081C748.603 51.0186 752.282 51.041 753.766 49.4587C755.249 47.876 753.823 45.4398 750.924 43.6768C749.021 42.5201 744.16 42.0277 742.707 43.6261C741.706 44.7276 742.495 47.7975 745.549 49.4081Z" fill="black" fill-opacity="0.05"/>
<path d="M756.246 50.6071C754.722 52.1441 752.989 53.6587 754.345 56.7389C756.021 60.5403 761.952 62.2644 766.909 60.7776C768.305 60.3587 769.5 59.7232 770.45 58.9428C771.479 58.0979 772.731 57.4435 774.105 57.0246C775.486 56.6169 776.993 56.4438 778.516 56.5232C779.921 56.5967 781.371 56.4393 782.768 56.0209C787.725 54.5341 790.435 50.2174 788.153 46.5985C786.303 43.6663 783.655 43.4653 781.137 43.1411C778.783 42.8379 776.681 41.8992 775.147 40.525C772.432 38.0919 768.041 37.3439 764.221 38.4898C760.401 39.6357 757.909 42.4486 758.18 45.6145C758.333 47.4027 757.674 49.1697 756.246 50.6071Z" fill="black" fill-opacity="0.05"/>
<path d="M768.581 35.4912C771.722 35.2068 773.823 32.2131 773.273 28.8046C772.725 25.3965 768.321 23.0872 766.593 23.1487C763.434 23.2608 761.57 27.2322 761.901 29.8352C762.337 33.2523 765.441 35.7755 768.581 35.4912Z" fill="black" fill-opacity="0.05"/>
<path d="M781.945 40.9498C784.477 41.3207 787.11 39.3935 787.825 36.6452C788.54 33.8972 786.275 31.2722 784.536 30.9982C782.011 30.6004 778.96 33.4801 778.655 35.3028C778.192 38.0808 779.413 40.5789 781.945 40.9498Z" fill="black" fill-opacity="0.05"/>
<path d="M825.412 136.57C829.555 133.248 832.608 126.292 828.414 123.622C826.12 122.161 816.785 121.836 811.203 126.094C805.622 130.353 804.278 136.15 808.202 139.043C812.124 141.936 819.974 140.931 825.412 136.57Z" fill="black" fill-opacity="0.05"/>
<path d="M780.052 125.302C777.147 129.658 778.045 134.409 782.059 135.915C786.072 137.42 791.292 134.951 794.586 130.754C796.748 128.001 796.621 121.604 792.579 120.142C789.794 119.134 782.959 120.947 780.052 125.302Z" fill="black" fill-opacity="0.05"/>
<path d="M809.903 146.556C806.287 141.923 799.192 139.434 792.001 140.601C787.939 141.261 783.716 140.866 780.051 139.397C776.133 137.826 772.21 135.982 765.497 138.528C757.212 141.671 754.79 149.769 759.48 155.779C760.8 157.473 762.567 158.849 764.602 159.874C766.806 160.983 768.63 162.429 769.945 164.093C771.237 165.769 772.024 167.67 772.234 169.654C772.429 171.487 773.164 173.316 774.485 175.009C779.175 181.02 789.775 183.402 797.487 179.523C803.735 176.38 803.511 172.912 803.604 169.58C803.692 166.464 805.301 163.51 808.056 161.177C812.936 157.046 813.517 151.189 809.903 146.556Z" fill="black" fill-opacity="0.05"/>
<path d="M829.178 141.352C821.452 142.797 816.467 147.452 817.931 151.43C819.394 155.408 826.803 157.345 834.478 155.756C842.152 154.168 846.311 147.891 845.725 145.678C844.651 141.631 835.062 140.251 829.178 141.352Z" fill="black" fill-opacity="0.05"/>
<path d="M820.951 164.389C814.459 164.508 809.045 166.729 808.849 170.091C808.653 173.454 813.752 176.352 820.24 176.565C826.727 176.778 832.162 173.178 832.342 170.863C832.603 167.503 825.21 164.311 820.951 164.389Z" fill="black" fill-opacity="0.05"/>
<path d="M657.528 135.868C662.697 136.225 667.631 131.978 668.135 126.357C668.518 122.075 665.214 115.626 660.023 115.552C657.185 115.512 650.105 119.453 649.416 125.063C648.727 130.673 652.358 135.51 657.528 135.868Z" fill="black" fill-opacity="0.05"/>
<path d="M635.909 145.289C640.039 144.592 641.888 140.452 640.955 135.911C640.342 132.932 635.16 128.314 631.043 129.055C628.206 129.565 624.653 133.95 625.996 138.433C627.34 142.916 631.778 145.985 635.909 145.289Z" fill="black" fill-opacity="0.05"/>
<path d="M661.503 177.24C669.713 179.532 679.354 176.528 681.901 170.241C683.965 165.148 681.042 162.714 678.458 160.238C676.041 157.923 674.867 155.043 675.023 152.105C675.301 146.902 671.064 142.362 664.736 140.595C658.407 138.828 651.242 140.186 646.918 144.258C644.474 146.558 641.075 148.161 637.228 148.728C633.115 149.334 628.782 149.742 625.903 154.608C622.349 160.613 627.024 167.615 635.234 169.907C637.547 170.553 639.933 170.767 642.236 170.605C644.73 170.429 647.212 170.669 649.499 171.296C651.776 171.942 653.863 172.979 655.596 174.335C657.197 175.587 659.19 176.595 661.503 177.24Z" fill="black" fill-opacity="0.05"/>
<path d="M674.457 140.572C678.692 142.823 685.646 140.921 689.99 136.325C694.334 131.728 692.377 125.28 690.186 123.926C686.181 121.449 678.076 124.734 674.654 128.173C670.159 132.687 670.222 138.32 674.457 140.572Z" fill="black" fill-opacity="0.05"/>
<path d="M682.681 158.264C685.212 160.808 691.246 160.643 696.155 157.894C701.065 155.146 702.17 150.082 700.459 148.31C697.976 145.739 690.034 146.716 686.984 148.68C682.336 151.673 680.148 155.719 682.681 158.264Z" fill="black" fill-opacity="0.05"/>
<path d="M731.104 247.833C736.006 250.766 744.747 248.934 750.229 243.509C754.404 239.376 756.774 231.22 751.599 228.563C748.769 227.11 738.133 227.565 732.474 232.887C726.814 238.208 726.201 244.899 731.104 247.833Z" fill="black" fill-opacity="0.05"/>
<path d="M697.019 234.741C694.409 239.936 696.174 245.244 700.961 246.597C705.748 247.95 711.277 244.689 714.353 239.639C716.371 236.326 715.223 229.085 710.412 227.784C707.096 226.887 699.63 229.547 697.019 234.741Z" fill="black" fill-opacity="0.05"/>
<path d="M734.215 256.2C729.389 251.267 720.953 249.073 712.983 251.031C708.481 252.138 703.631 252.064 699.246 250.722C694.556 249.287 689.82 247.543 682.607 251.022C673.706 255.317 672.233 264.714 678.494 271.114C680.258 272.916 682.477 274.321 684.945 275.303C687.618 276.367 689.914 277.844 691.667 279.616C693.394 281.402 694.585 283.487 695.136 285.719C695.644 287.779 696.765 289.788 698.529 291.592C704.79 297.992 717.183 299.756 725.317 294.677C731.907 290.561 731.109 286.649 730.691 282.864C730.301 279.323 731.662 275.831 734.419 272.942C739.302 267.827 739.041 261.134 734.215 256.2Z" fill="black" fill-opacity="0.05"/>
<path d="M755.23 248.598C746.698 250.919 741.778 256.638 744.062 261.019C746.347 265.399 755.05 266.941 763.503 264.462C771.955 261.982 775.684 254.498 774.671 252.041C772.818 247.547 761.729 246.83 755.23 248.598Z" fill="black" fill-opacity="0.05"/>
<path d="M749.54 275.443C742.198 276.151 736.409 279.148 736.715 282.977C737.02 286.807 743.257 289.642 750.647 289.31C758.036 288.978 763.632 284.417 763.472 281.776C763.239 277.943 754.357 274.978 749.54 275.443Z" fill="black" fill-opacity="0.05"/>
<path d="M662.62 320.873C661.059 321.481 658.761 325.196 660.598 328.403C662.436 331.609 666.32 333.436 669.274 332.484C672.228 331.531 673.239 328.125 671.296 324.954C669.816 322.539 665.474 319.762 662.62 320.873Z" fill="black" fill-opacity="0.05"/>
<path d="M660.276 336.179C658.767 334.693 654.126 333.33 652.178 334.646C650.835 335.553 650.631 338.727 653.13 340.869C655.629 343.011 659.255 343.697 661.228 342.402C663.201 341.107 662.574 338.443 660.276 336.179Z" fill="black" fill-opacity="0.05"/>
<path d="M690.27 341.1C688.041 340.375 686.267 339.069 685.194 337.435C683.293 334.542 679.197 333.011 675.056 333.453C670.915 333.895 667.551 336.224 666.803 339.399C666.381 341.193 665.163 342.819 663.293 343.981C661.293 345.223 659.096 346.407 659.447 349.694C659.882 353.75 665.188 356.523 670.559 355.95C672.073 355.788 673.457 355.376 674.645 354.776C675.933 354.128 677.379 353.707 678.871 353.542C680.365 353.388 681.91 353.489 683.387 353.843C684.752 354.169 686.235 354.275 687.748 354.114C693.12 353.539 697.181 349.766 696.088 345.78C695.203 342.55 692.653 341.874 690.27 341.1Z" fill="black" fill-opacity="0.05"/>
<path d="M680.345 331.282C683.537 331.567 686.572 328.99 687.124 325.525C687.676 322.06 684.067 318.985 682.342 318.733C679.185 318.274 676.07 321.859 675.562 324.49C674.896 327.944 677.152 330.996 680.345 331.282Z" fill="black" fill-opacity="0.05"/>
<path d="M697.555 329.725C695.19 328.877 691.253 331.17 690.368 332.915C689.019 335.575 689.423 338.263 691.804 339.086C694.186 339.909 697.404 338.481 698.992 335.896C700.58 333.311 699.186 330.31 697.555 329.725Z" fill="black" fill-opacity="0.05"/>
<path d="M530.586 369.182C531.331 365.419 526.071 361.579 518.787 360.908C513.238 360.397 504.672 362.467 504.295 366.26C504.09 368.334 508.835 373.728 516.095 374.534C523.355 375.341 529.843 372.944 530.586 369.182Z" fill="black" fill-opacity="0.05"/>
<path d="M529.747 381.294C525.838 381.581 519.553 385.124 520.295 388.176C520.806 390.279 526.317 393.115 532.221 392.374C538.125 391.632 542.357 388.551 541.674 385.491C540.99 382.432 535.704 380.856 529.747 381.294Z" fill="black" fill-opacity="0.05"/>
<path d="M576.612 353.19C570.098 351.406 566.774 353.413 563.415 355.17C560.273 356.813 556.464 357.517 552.65 357.245C545.898 356.761 539.763 359.616 537.125 364.151C534.485 368.686 535.865 374.001 540.93 377.386C543.789 379.297 545.69 381.871 546.221 384.716C546.787 387.759 547.085 390.951 553.258 393.32C560.878 396.244 570.238 393.2 573.662 387.317C574.627 385.659 575.035 383.925 574.947 382.231C574.853 380.397 575.299 378.594 576.238 376.955C577.202 375.324 578.662 373.852 580.519 372.657C582.235 371.553 583.652 370.15 584.617 368.492C588.04 362.609 584.652 355.393 576.612 353.19Z" fill="black" fill-opacity="0.05"/>
<path d="M521.499 356.218C527.128 359.75 534.459 360.008 537.617 357.03C540.773 354.053 538.674 348.862 532.929 345.436C527.185 342.011 518.693 343.095 516.812 344.624C513.375 347.421 517.211 353.528 521.499 356.218Z" fill="black" fill-opacity="0.05"/>
<path d="M561.072 351.964C564.518 350.248 564.628 345.825 561.318 342.085C558.007 338.345 551.481 337.263 549.083 338.42C545.604 340.098 546.447 345.961 548.838 348.298C552.481 351.861 557.626 353.68 561.072 351.964Z" fill="black" fill-opacity="0.05"/>
<path d="M431.784 382.057C435.367 381.957 438.244 378.718 437.922 374.835C437.676 371.877 434.648 367.68 431.085 367.976C429.136 368.137 424.755 371.309 424.948 375.197C425.141 379.086 428.202 382.157 431.784 382.057Z" fill="black" fill-opacity="0.05"/>
<path d="M418.097 389.949C420.844 389.196 421.619 386.237 420.441 383.189C419.669 381.189 415.572 378.372 412.839 379.154C410.958 379.693 409.043 382.933 410.495 385.914C411.948 388.895 415.351 390.701 418.097 389.949Z" fill="black" fill-opacity="0.05"/>
<path d="M449.024 397.35C447.094 395.926 445.948 394.032 445.707 392.009C445.281 388.427 441.839 385.6 437.296 384.812C432.752 384.024 428.007 385.432 425.527 388.51C424.126 390.248 421.988 391.572 419.421 392.217C416.675 392.907 413.756 393.475 412.361 397C410.64 401.35 414.671 405.834 420.566 406.856C422.228 407.144 423.888 407.132 425.445 406.867C427.132 406.58 428.861 406.579 430.502 406.856C432.138 407.147 433.691 407.718 435.038 408.53C436.283 409.281 437.768 409.838 439.428 410.126C445.323 411.148 451.57 408.447 452.57 403.972C453.378 400.346 451.087 398.874 449.024 397.35Z" fill="black" fill-opacity="0.05"/>
<path d="M443.948 384.146C447.116 385.406 451.654 383.64 454.083 380.202C456.512 376.764 454.409 372.478 452.747 371.697C449.71 370.267 444.549 373.058 442.612 375.641C440.069 379.033 440.781 382.887 443.948 384.146Z" fill="black" fill-opacity="0.05"/>
<path d="M453.501 388.863C450.672 391.223 449.655 394.141 451.691 395.715C453.727 397.288 457.839 396.773 460.876 394.563C463.912 392.353 464.069 388.811 462.687 387.712C460.681 386.116 455.358 387.315 453.501 388.863Z" fill="black" fill-opacity="0.05"/>
<path d="M343.252 456.031C346.228 455.578 348.037 452.576 347.057 449.364C346.311 446.917 343.011 443.722 340.088 444.337C338.489 444.673 335.408 447.774 336.282 451.004C337.156 454.233 340.277 456.484 343.252 456.031Z" fill="black" fill-opacity="0.05"/>
<path d="M333.264 464.035C335.422 463.124 335.527 460.571 333.984 458.145C332.973 456.553 329.033 454.621 326.892 455.557C325.418 456.201 324.413 459.105 326.172 461.447C327.932 463.789 331.107 464.948 333.264 464.035Z" fill="black" fill-opacity="0.05"/>
<path d="M360.451 467.036C358.577 466.044 357.273 464.58 356.701 462.914C355.688 459.965 352.295 457.957 348.353 457.767C344.412 457.577 340.704 459.242 339.195 462.069C338.344 463.667 336.8 464.994 334.772 465.797C332.604 466.656 330.268 467.432 329.749 470.521C329.107 474.334 333.298 477.665 338.412 477.912C339.851 477.982 341.237 477.8 342.489 477.419C343.847 477.005 345.292 476.826 346.713 476.889C348.134 476.963 349.536 477.28 350.811 477.82C351.989 478.319 353.332 478.632 354.772 478.701C359.886 478.948 364.611 476.047 364.626 472.205C364.638 469.091 362.454 468.097 360.451 467.036Z" fill="black" fill-opacity="0.05"/>
<path d="M353.812 456.523C356.69 457.249 360.159 455.305 361.56 452.182C362.96 449.058 360.416 445.694 358.886 445.212C356.085 444.331 352.283 447.194 351.138 449.553C349.635 452.649 350.935 455.797 353.812 456.523Z" fill="black" fill-opacity="0.05"/>
<path d="M362.651 459.483C360.719 461.747 360.402 464.29 362.392 465.395C364.381 466.501 367.724 465.646 369.857 463.486C371.99 461.327 371.472 458.35 370.115 457.574C368.146 456.447 363.918 457.998 362.651 459.483Z" fill="black" fill-opacity="0.05"/>
<path d="M282.33 375.194C286.007 372.334 288.797 366.289 285.181 363.915C283.204 362.616 275.057 362.239 270.106 365.903C265.155 369.567 263.878 374.617 267.254 377.182C270.63 379.747 277.502 378.949 282.33 375.194Z" fill="black" fill-opacity="0.05"/>
<path d="M244.482 374.189C247.96 375.544 252.563 373.44 255.514 369.807C257.451 367.424 257.454 361.835 253.95 360.518C251.536 359.61 245.532 361.125 242.917 364.9C240.302 368.676 241.003 372.834 244.482 374.189Z" fill="black" fill-opacity="0.05"/>
<path d="M268.623 383.761C265.548 379.679 259.396 377.434 253.093 378.382C249.534 378.917 245.853 378.531 242.678 377.211C239.284 375.8 235.892 374.15 229.982 376.307C222.69 378.969 220.431 386.018 224.421 391.314C225.545 392.806 227.063 394.026 228.823 394.941C230.728 395.932 232.295 397.213 233.414 398.68C234.512 400.157 235.166 401.825 235.315 403.56C235.453 405.162 236.061 406.768 237.186 408.26C241.176 413.556 250.392 415.742 257.196 412.431C262.708 409.748 262.574 406.717 262.714 403.808C262.845 401.088 264.304 398.523 266.751 396.513C271.087 392.954 271.699 387.843 268.623 383.761Z" fill="black" fill-opacity="0.05"/>
<path d="M285.524 379.406C278.75 380.591 274.314 384.608 275.522 388.096C276.73 391.585 283.166 393.351 289.897 392.04C296.629 390.729 300.372 385.288 299.899 383.349C299.034 379.804 290.682 378.503 285.524 379.406Z" fill="black" fill-opacity="0.05"/>
<path d="M277.957 399.445C272.285 399.484 267.517 401.369 267.286 404.304C267.055 407.239 271.458 409.821 277.121 410.072C282.783 410.323 287.594 407.233 287.792 405.212C288.079 402.28 281.678 399.418 277.957 399.445Z" fill="black" fill-opacity="0.05"/>
<path d="M177.648 383.177C180.426 384.624 185.042 383.403 187.734 380.336C189.784 378 190.669 373.547 187.757 372.256C186.165 371.55 180.462 372.081 177.671 375.096C174.879 378.112 174.869 381.73 177.648 383.177Z" fill="black" fill-opacity="0.05"/>
<path d="M161.361 383.321C164.002 383.921 166.823 382.018 168.237 379.217C169.165 377.38 168.201 373.513 165.55 372.943C163.722 372.549 159.83 374.181 158.675 377.047C157.517 379.913 158.721 382.722 161.361 383.321Z" fill="black" fill-opacity="0.05"/>
<path d="M168.035 385.385C165.666 386.101 163.052 386.192 160.628 385.587C158.035 384.941 155.403 384.129 151.688 386.196C147.102 388.747 146.758 393.843 150.434 397.119C151.469 398.042 152.73 398.738 154.105 399.201C155.595 399.701 156.9 400.435 157.929 401.341C158.943 402.256 159.684 403.346 160.087 404.532C160.459 405.627 161.157 406.678 162.193 407.601C165.869 410.877 172.623 411.494 176.757 408.542C180.108 406.15 179.492 404.066 179.086 402.04C178.707 400.145 179.272 398.229 180.619 396.6C183.002 393.716 182.543 390.121 179.709 387.596C176.875 385.071 172.232 384.117 168.035 385.385Z" fill="black" fill-opacity="0.05"/>
<path d="M190.661 382.941C186.181 384.419 183.805 387.629 185.243 389.925C186.682 392.222 191.44 392.817 195.87 391.256C200.301 389.695 201.951 385.567 201.288 384.271C200.076 381.903 194.074 381.814 190.661 382.941Z" fill="black" fill-opacity="0.05"/>
<path d="M188.879 397.542C184.961 398.121 181.988 399.889 182.336 401.941C182.683 403.994 186.175 405.353 190.136 404.976C194.097 404.599 196.891 401.993 196.678 400.577C196.371 398.52 191.448 397.163 188.879 397.542Z" fill="black" fill-opacity="0.05"/>
<path d="M36.6057 416.099C40.4579 417.755 44.8179 417.479 46.3433 415.483C47.8688 413.486 46.0366 410.453 42.1311 408.869C39.1567 407.663 33.7222 407.411 32.3946 409.486C31.6687 410.62 32.7546 414.443 36.6057 416.099Z" fill="black" fill-opacity="0.05"/>
<path d="M42.3155 422.166C40.0288 421.681 35.4458 422.636 34.9656 424.478C34.6343 425.748 36.9043 428.257 40.448 428.817C43.9916 429.376 47.2818 428.341 47.7979 426.505C48.3127 424.669 45.8 422.906 42.3155 422.166Z" fill="black" fill-opacity="0.05"/>
<path d="M68.9536 413.024C66.701 413.429 64.3479 413.196 62.2807 412.411C58.6192 411.021 54.3238 411.614 51.5031 413.731C48.6824 415.849 47.896 419.071 49.7516 421.815C50.7993 423.365 51.1132 425.13 50.575 426.82C49.9986 428.628 49.2277 430.475 52.0072 432.831C55.4391 435.739 61.6055 435.574 65.2658 432.827C66.2962 432.053 67.0365 431.144 67.4856 430.175C67.9723 429.127 68.7539 428.184 69.7657 427.417C70.7883 426.658 72.044 426.071 73.4415 425.705C74.7314 425.367 75.9435 424.811 76.9751 424.037C80.6348 421.29 80.8488 416.665 76.9691 414.093C73.8261 412.01 71.3635 412.59 68.9536 413.024Z" fill="black" fill-opacity="0.05"/>
<path d="M45.8146 399.371C43.0555 400.377 43.4184 404.452 45.0426 406.677C47.1744 409.598 51.2276 410.956 53.8809 409.802C56.5353 408.648 56.881 405.376 54.6529 402.496C52.426 399.616 47.3233 398.821 45.8146 399.371Z" fill="black" fill-opacity="0.05"/>
<path d="M65.8179 401.219C63.3643 401.588 62.1133 405.03 62.7717 406.742C63.7758 409.352 66.139 411.228 68.5842 410.832C71.0294 410.436 72.3934 407.963 71.6292 405.308C70.8661 402.654 67.5078 400.964 65.8179 401.219Z" fill="black" fill-opacity="0.05"/>
<path d="M25.4923 265.748C30.3492 264.556 32.5959 259.272 30.122 254.045C28.2365 250.064 21.8906 245.205 17.1617 246.659C14.5766 247.455 10.2322 253.091 12.5333 258.362C14.8326 263.634 20.6355 266.941 25.4923 265.748Z" fill="black" fill-opacity="0.05"/>
<path d="M10.891 280.592C14.2601 278.752 13.7733 274.469 10.5639 270.639C8.45781 268.126 1.36865 265.473 -1.96455 267.349C-4.26202 268.641 -5.18831 273.645 -1.63864 277.302C1.91222 280.959 7.52136 282.432 10.891 280.592Z" fill="black" fill-opacity="0.05"/>
<path d="M43.7999 301.07C45.8989 301.732 48.2245 302.058 50.6511 301.964C59.264 301.629 66.4093 296.088 65.4358 289.661C64.6471 284.454 60.7374 283.111 57.113 281.631C53.7224 280.247 51.1606 277.989 49.7715 275.289C47.3107 270.506 41.1168 267.645 34.4773 267.904C27.8384 268.162 22.0726 271.489 20.2852 276.437C19.2764 279.231 17.0387 281.676 13.8586 283.315C10.4572 285.069 6.75509 286.708 6.68812 291.948C6.60739 298.417 14.4799 303.373 23.0928 303.037C25.52 302.943 27.7876 302.438 29.7843 301.616C31.946 300.727 34.314 300.215 36.7066 300.112C39.1003 300.028 41.5276 300.353 43.7999 301.07Z" fill="black" fill-opacity="0.05"/>
<path d="M43.2629 265.029C48.2627 265.822 53.5561 262.065 55.0864 256.639C56.6161 251.212 51.4883 245.959 48.8033 245.377C43.8938 244.314 38.2823 249.657 36.9799 253.767C35.2702 259.164 38.2632 264.236 43.2629 265.029Z" fill="black" fill-opacity="0.05"/>
<path d="M59.9056 278.605C63.5199 280.162 68.8845 278.245 71.8888 274.322C74.8931 270.4 73.2534 265.5 70.7843 264.401C67.1999 262.805 60.5329 266.016 58.8 268.684C56.1598 272.751 56.2914 277.049 59.9056 278.605Z" fill="black" fill-opacity="0.05"/>
</svg>
