<svg width="24" height="24" viewBox="0 0 24 24" fill="none" xmlns="http://www.w3.org/2000/svg">
<path d="M12.2461 9.81836V14.4656H18.8361C18.5467 15.9602 17.6783 17.2257 16.3759 18.0766L20.3499 21.0984C22.6653 19.004 24.0012 15.9276 24.0012 12.273C24.0012 11.4221 23.9232 10.6039 23.7785 9.81849L12.2461 9.81836Z" fill="#4285F4"/>
<path d="M5.38139 14.2842L4.4851 14.9566L1.3125 17.3783C3.32734 21.2947 7.45691 24.0002 12.2435 24.0002C15.5496 24.0002 18.3213 22.9311 20.3474 21.0984L16.3734 18.0765C15.2824 18.7965 13.891 19.2329 12.2435 19.2329C9.05986 19.2329 6.35493 17.1275 5.3864 14.2911L5.38139 14.2842Z" fill="#34A853"/>
<path d="M1.31345 6.62207C0.478615 8.23655 0 10.0584 0 12.0002C0 13.942 0.478615 15.7638 1.31345 17.3783C1.31345 17.3891 5.38774 14.2801 5.38774 14.2801C5.14284 13.5601 4.99809 12.7965 4.99809 12.0001C4.99809 11.2036 5.14284 10.44 5.38774 9.72L1.31345 6.62207Z" fill="#FBBC05"/>
<path d="M12.2438 4.77818C14.0471 4.77818 15.6501 5.38907 16.9302 6.56727L20.4367 3.13095C18.3105 1.18917 15.55 0 12.2438 0C7.45716 0 3.32734 2.69454 1.3125 6.62183L5.38666 9.72002C6.35507 6.88362 9.06011 4.77818 12.2438 4.77818Z" fill="#EA4335"/>
</svg>
