<svg width="776" height="1093" viewBox="0 0 776 1093" fill="none" xmlns="http://www.w3.org/2000/svg">
<path d="M516.499 133.467C515.057 130.464 512.261 128.786 509.906 126.667C505.314 122.605 500.78 118.454 497.277 113.362C495.629 110.948 493.451 108.446 495.246 105.355C496.806 102.676 499.838 103 502.547 102.971C508.552 102.912 514.203 104.619 519.678 106.739C575.019 128.374 611.991 166.347 625.178 225.455C626.679 232.226 626.709 239.143 625.826 245.943C624.001 260.337 611.373 265.871 599.245 257.658C593.093 253.508 588.177 248.092 583.791 242.087C568.631 221.334 559.094 197.608 547.937 174.766C546.348 171.469 544.64 168.172 542.521 165.229C540.078 161.814 536.663 160.136 532.248 161.608C528.627 162.815 526.949 164.404 529.098 168.525C547.79 204.261 555.149 243.235 561.213 282.503C571.31 348.057 574.43 414.142 576.137 480.344C577.992 550.991 585.263 621.138 596.095 690.961C600.187 717.336 604.249 743.711 608.429 770.085C608.841 772.617 608.37 776.267 610.931 777.268C613.757 778.386 615.464 775.001 617.26 773.206C640.779 749.686 656.057 722.222 657.352 688.253C657.882 674.359 655.115 660.965 650.817 647.807C650.346 646.335 648.109 644.746 650.14 643.392C652.142 642.038 653.584 643.715 654.762 645.511C679.37 683.219 687.259 722.693 667.92 765.258C657.882 787.394 641.957 804.909 624.324 821.04C620.145 824.837 618.555 828.163 619.673 834.227C629.123 885.505 639.484 936.607 649.64 987.737C650.817 993.595 653.231 995.479 659.295 995.744C688.142 996.98 715.724 1003.01 739.626 1020.35C749.988 1027.86 758.112 1037.28 758.495 1051.17C758.878 1065.21 752.578 1075.05 739.568 1080.55C724.732 1086.82 708.954 1089.29 693.146 1090.47C649.051 1093.74 604.955 1091.79 560.86 1089.65C521.209 1087.7 481.676 1084.49 442.084 1081.76C426.689 1080.7 402.935 1078.87 387.54 1077.87C380.417 1077.4 392.366 1072.51 391.748 1069.39C390.895 1064.98 379.676 1064.49 381.653 1064.63C412.443 1066.78 458.422 1070.13 489.212 1072.25C502.399 1073.16 515.616 1073.84 528.804 1074.87C532.778 1075.16 533.896 1074.28 533.278 1070.1C521.533 990.563 524.8 910.673 528.333 830.813C529.157 812.209 530.452 793.605 531.6 775.031C531.688 773.441 531.07 771.616 532.836 770.115C535.427 771.734 534.544 774.442 534.662 776.62C540.343 864.193 546.642 951.766 546.701 1039.6C546.701 1049.91 546.642 1060.21 546.377 1070.48C546.289 1074.31 547.054 1075.99 551.499 1076.28C595.065 1079.23 638.66 1080.14 682.284 1078.72C698.151 1078.2 714.046 1076.52 729.324 1071.66C748.369 1065.6 752.196 1048.94 737.625 1035.1C721.081 1019.41 700.241 1013.14 678.458 1009.9C649.463 1005.61 620.822 1010.4 592.239 1014.64C591.532 1014.76 590.797 1014.76 589.678 1014.88C590.708 1010.9 593.946 1009.52 596.802 1007.84C607.811 1001.34 619.968 998.393 632.449 997.304C638.513 996.774 638.895 994.802 637.689 989.533C623.5 929.159 609.312 868.815 597.096 807.999C582.083 733.231 568.484 658.257 561.507 582.252C558.152 545.575 557.946 508.809 558.682 472.014C559.918 409.962 558.946 347.94 550.645 286.3C546.024 251.977 538.871 218.243 524.3 186.511C523.417 184.568 523.152 181.448 520.944 181.183C517.971 180.83 517.706 184.303 516.588 186.305C513.673 191.427 510.524 196.46 508.287 201.847C502.517 215.8 491.449 220.716 477.349 220.981C455.978 221.364 434.784 219.421 413.855 215.094C399.932 212.209 392.102 199.492 395.516 185.716C397.106 179.358 399.166 173.059 401.551 166.936C403.199 162.668 402.699 160.224 398.136 158.458C391.542 155.897 385.155 150.599 378.649 150.54C371.555 150.481 370.23 160.048 366.05 165.081C357.661 175.178 346.328 177.445 334.495 178.181C312.476 179.505 290.988 176.591 270.53 168.025C253.515 160.901 246.804 147.802 250.484 129.758C252.838 118.219 256.282 107.033 260.816 96.171C267.557 79.9811 281.127 72.3865 297.994 76.537C321.837 82.3654 344.562 91.5495 366.992 101.411C374.764 104.825 379.562 111.478 381.975 119.573C382.976 122.958 384.831 124.901 388.039 126.225C395.045 129.14 401.933 132.319 408.821 135.527C412.383 137.176 414.709 137.176 417.034 133.055C424.275 120.132 431.487 116.718 446.176 119.367C469.313 123.547 492.156 129.228 514.969 134.939C515.587 135.056 516.234 135.204 516.853 135.321C516.735 134.733 516.617 134.144 516.499 133.555V133.467ZM322.926 156.986C329.02 156.486 335.113 155.927 341.206 155.456C344.326 155.22 346.828 153.925 348.771 151.511C353.363 145.742 357.455 139.648 360.34 132.878C362.783 127.138 361.635 122.075 355.424 119.543C335.319 111.301 315.126 103.265 294.079 97.5545C287.426 95.7589 283.187 97.996 280.774 104.295C277.006 114.127 273.709 124.106 271.472 134.409C270.059 140.855 272.178 145.271 278.566 147.743C292.842 153.307 307.531 156.692 322.956 156.986H322.926ZM464.78 194.547C469.431 194.547 474.082 194.4 478.733 194.606C481.853 194.724 483.648 193.517 485.061 190.779C489.712 181.625 494.393 172.499 499.456 163.551C501.899 159.194 500.663 157.605 496.247 156.633C479.321 152.865 462.454 149.009 445.587 145.035C441.908 144.182 439.582 144.917 437.904 148.45C432.37 160.165 426.63 171.763 422.568 184.127C420.979 188.895 422.009 190.75 426.836 191.427C439.435 193.193 452.034 195.077 464.809 194.547H464.78Z" fill="white"/>
<path d="M518.473 339.488C524.096 352.587 526.539 366.275 524.213 380.287C520.858 400.48 508.406 413.138 488.801 418.201C470.522 422.911 452.271 421.733 434.58 415.11C419.479 409.458 409.235 398.802 403.76 383.613C403.26 382.23 403.26 380.699 400.934 379.639C393.634 390.384 385.568 400.833 375.354 409.282C339.353 439.012 298.967 450.257 254.842 431.8C202.298 409.841 178.661 366.305 195.351 310.7C204.594 279.939 221.137 253.181 241.036 228.307C243.45 225.305 246.335 222.597 250.309 225.805C254.577 229.249 253.223 233.017 250.309 236.697C234.678 256.39 221.343 277.407 212.218 300.927C203.417 323.563 197.618 347.083 207.449 370.308C221.579 403.63 248.336 422.705 284.013 426.649C328.697 431.565 362.608 411.931 388.188 376.136C391.603 371.368 391.809 369.131 385.568 366.364C360.783 355.384 339.913 339.753 328.079 314.32C322.81 303.017 320.691 291.095 321.015 278.673C321.25 270.372 326.431 265.279 332.524 260.923C346.065 251.209 361.902 247.765 377.856 245.204C411.325 239.846 444.647 240.759 477.675 248.942C486.8 251.209 495.248 254.977 503.078 260.099C513.646 267.016 517.884 276.583 515.088 289.182C509.731 313.319 495.454 331.599 476.88 346.847C459.718 360.918 440.497 370.838 418.007 373.075C413.71 373.517 414.387 375.842 415.358 378.697C421.275 395.976 434.58 404.042 451.476 407.133C461.632 408.987 472.111 409.105 482.208 407.251C502.018 403.63 513.528 389.059 516.795 365.098C517.943 356.679 518.473 348.201 518.473 339.518V339.488Z" fill="white"/>
<path d="M211.22 118.665C211.279 124.641 209.218 129.38 207.776 134.149C188.23 199.35 171.599 265.258 158.588 332.049C147.549 388.743 138.395 445.761 131.212 503.103C123.912 561.446 118.084 619.965 114.228 678.632C108.311 768.677 105.779 858.87 106.662 949.122C106.721 956.481 107.634 963.811 107.693 971.14C107.693 975.261 109.459 976.527 113.227 977.145C123.942 978.941 127.915 980.913 136.246 988.213C122.117 987.654 109.429 988.096 96.7719 989.155C75.5189 990.951 54.5014 993.953 35.1029 1003.67C27.0962 1007.67 19.9137 1012.67 15.3511 1020.65C9.72877 1030.54 11.23 1036.31 21.0617 1041.93C32.1004 1048.23 44.4636 1050.35 56.7091 1052.5C84.497 1057.39 112.697 1058.36 140.809 1059.68C160.384 1060.6 180.018 1060.54 199.593 1061.36C205.362 1061.6 207.806 1059.6 209.189 1054.12C216.548 1025.3 220.287 995.985 222.759 966.431C227.057 915.064 227.852 863.609 227.793 812.096C227.793 810.977 227.263 809.653 229.029 808.387C232.149 813.627 231.826 819.573 232.355 825.019C237.301 874.913 237.183 924.896 233.533 974.849C231.561 1001.99 228.47 1029.01 221.14 1055.33C219.521 1061.1 222.583 1061.24 226.821 1061.24C264.824 1061.24 302.826 1061.33 340.828 1062.78C353.81 1063.28 366.791 1064.31 379.772 1064.16C386.925 1064.07 395.99 1068.98 396.372 1073.46C396.873 1079.37 382.922 1077.41 379.655 1077.17C323.843 1072.9 267.914 1075.08 212.044 1073.31C181.666 1072.34 151.229 1073.14 120.88 1071.25C88.5003 1069.25 55.8849 1067.93 24.8296 1056.86C24.1526 1056.62 23.4461 1056.39 22.7691 1056.12C-3.22319 1045.7 -7.49145 1024.36 12.7019 1004.64C26.4192 991.245 44.022 985.858 62.1254 981.973C70.7208 980.118 79.5222 978.794 88.2648 978.058C94.1226 977.587 96.1243 975.732 95.9477 969.61C94.4464 923.277 94.9763 876.944 95.7416 830.611C98.0376 689.994 107.634 549.907 127.474 410.644C139.307 327.634 155.026 245.33 177.604 164.468C182.667 146.365 191.233 130.97 207.452 120.638C208.424 120.019 209.483 119.519 211.22 118.606V118.665Z" fill="white"/>
<path d="M83.8788 161.673C78.5509 161.261 72.6931 160.642 67.159 158.523C54.5897 153.725 50.2626 142.598 56.297 130.559C61.0657 121.051 68.8958 114.427 77.4617 108.54C93.3279 97.6488 110.784 89.9071 128.651 83.1367C181.107 63.2672 235.682 52.1109 290.904 43.5155C295.496 42.809 299.617 43.5743 300.589 48.7846C301.59 54.0831 297.998 56.3203 293.318 56.909C270.74 59.7938 248.163 62.914 225.968 68.0653C212.604 71.1561 199.416 74.8946 186.788 80.3108C181.784 82.4597 177.221 85.2562 173.277 89.024C168.567 93.4983 167.625 99.0617 170.51 104.449C173.218 109.482 178.605 109.482 183.58 108.334C192.528 106.303 200.476 101.888 208.306 97.2956C212.957 94.558 217.314 92.6741 220.875 98.473C223.79 103.242 221.788 107.304 215.076 110.189C179.37 125.584 143.635 140.95 107.899 156.256C100.422 159.465 92.592 161.378 83.9083 161.761L83.8788 161.673Z" fill="white"/>
<path d="M435.845 744.631C433.814 744.572 432.607 743.306 431.871 741.717C430.517 738.832 429.604 735.741 428.103 732.974C426.337 729.736 426.337 724.614 421.274 724.408C416.623 724.202 415.828 728.824 414.062 731.797C403.995 748.899 394.134 766.119 384.096 783.222C382.565 785.842 381.623 789.904 377.797 789.61C373.734 789.286 373.97 784.929 373.116 782.074C368.995 768.003 365.08 753.874 361.253 739.744C360.459 736.801 359.899 733.769 356.367 733.239C352.452 732.621 351.628 736.036 350.303 738.567C337.793 762.705 325.371 786.901 312.831 811.039C311.565 813.453 311.182 817.191 307.15 816.75C303.882 816.397 303.264 813.335 302.234 810.921C290.547 783.192 278.891 755.493 267.322 727.734C266.204 725.026 263.289 721.729 266.675 719.051C269.883 716.49 272.562 719.757 275.152 721.317C285.602 727.676 296.17 733.887 306.355 740.628C312.213 744.484 315.333 743.159 318.276 737.184C325.547 722.495 333.23 708.012 340.736 693.441C341.855 691.263 342.65 688.584 345.534 688.408C348.831 688.202 349.773 691.057 351.098 693.441C358.84 707.629 366.67 721.788 374.5 735.947C375.913 738.508 377.12 741.628 380.77 741.216C384.361 740.804 384.92 737.448 385.833 734.711C390.66 720.346 395.576 706.01 400.109 691.587C401.905 685.905 404.436 684.375 409.617 687.848C414.504 691.116 419.714 693.883 424.541 697.238C429.369 700.565 433.137 700.506 437.287 695.884C442.35 690.233 448.032 685.14 453.507 679.9C454.831 678.635 456.215 676.692 458.511 678.075C460.807 679.459 460.866 681.637 460.042 683.904C453.095 703.008 446.177 722.112 439.201 741.216C438.612 742.865 437.729 744.337 435.816 744.631H435.845Z" fill="white"/>
<path d="M435.934 19.1352C434.462 31.3513 427.044 41.7423 416.741 50.1905C408.735 56.7548 399.462 61.3174 389.748 64.732C386.716 65.7917 382.713 67.0869 380.594 63.0247C378.71 59.4335 381.388 57.108 383.831 54.9592C395.724 44.4504 400.787 30.9097 401.994 15.4263C402.759 5.80059 410.53 -0.498814 419.92 0.0310394C429.34 0.590329 436.11 7.97887 435.934 19.1058V19.1352Z" fill="white"/>
<path d="M712.899 727.437C709.661 726.259 703.156 730.057 702.302 723.963C701.449 717.899 708.307 719.666 711.751 718.576C741.806 709.069 759.762 688.964 766.179 658.144C766.915 654.611 765.002 647.929 771.007 648.341C776.394 648.695 774.775 655.053 775.157 658.791C778.984 694.262 749.165 727.26 712.899 727.407V727.437Z" fill="white"/>
<path d="M721.819 639.657C721.466 617.462 713.076 598.887 696.857 583.757C694.885 581.903 691.088 580.284 693.501 576.781C695.797 573.396 698.8 575.927 701.302 577.163C737.126 594.649 747.635 642.895 722.349 673.508C720.818 675.363 719.435 678.1 716.55 676.717C713.106 675.039 714.784 672.184 715.785 669.711C719.758 660.115 722.084 650.195 721.819 639.716V639.657Z" fill="white"/>
<path d="M629.418 581.437C665.448 581.701 694.031 610.402 693.472 646.049C693.413 648.904 694.208 652.761 690.292 653.173C686.907 653.526 686.79 649.788 686.054 647.285C676.134 613.875 652.614 594.094 618.321 590.415C615.701 590.12 613.11 589.796 613.081 586.647C613.081 583.909 615.583 583.35 617.82 583.026C621.676 582.467 625.562 581.966 629.418 581.466V581.437Z" fill="white"/>
<path d="M437.17 81.548C434.609 81.548 433.137 81.6069 431.665 81.548C428.781 81.4009 425.278 81.8424 424.571 77.9863C423.776 73.6297 427.839 73.8652 430.341 72.9232C440.496 69.1259 447.502 62.1201 452.388 52.5533C456.156 45.1059 462.75 42.2212 469.255 44.5761C477.409 47.5197 480.235 57.2925 474.907 64.5927C465.282 77.7213 451.182 80.871 437.17 81.5775V81.548Z" fill="white"/>
<path d="M516.5 133.476C516.618 134.064 516.736 134.653 516.854 135.242C516.235 135.124 515.588 134.977 514.97 134.859C515.47 134.388 516 133.947 516.5 133.476Z" fill="#FEFEFE"/>
<path d="M245.51 484C253.211 485.74 260.944 487.331 268.591 489.251C293.423 495.487 316.122 506.19 336.71 521.263C346.395 528.359 354.997 536.643 363.78 544.758C368.595 549.213 374.843 548.99 378.693 543.909C391.157 527.457 407.449 516.076 426.171 507.675C438.485 502.159 451.352 498.574 464.674 496.548C470.158 495.71 475.324 494.119 481.317 495.159C490.492 496.75 496.581 501.968 501.396 508.746C509.161 519.672 514.888 531.647 516.617 545.139C516.331 544.991 516.639 545.33 516.617 545.139V548.046C516.617 548.046 517.02 555.478 516.999 560.244C516.978 565.107 516.49 572.686 516.49 572.686C516.161 573.004 516.511 572.336 516.49 572.686C515.811 584.884 512.078 596.382 507.686 607.626C505.501 613.216 504.037 619.824 496.729 621.68C493.462 622.508 490.344 623.717 486.769 624.417C481.996 626.029 480.362 625.663 474.062 626.029L462.903 625.477C450.917 625.732 440.055 621.298 429.756 616.059C410.599 606.3 395.102 591.906 381.387 575.688C375.469 568.687 372.552 567.51 364.31 571.731C343.043 582.604 322.338 594.537 300.625 604.592C285.679 611.508 270.596 617.841 254.219 620.789C244.853 622.476 236.717 619.771 232.188 612.272C229.239 607.382 227.34 601.972 225.357 596.616C222.747 589.551 222.121 583.049 221.061 575.094L220 557.592L221.061 539.443C221.05 539.772 221.39 539.125 221.061 539.443C221.316 527.054 223.978 515.047 227.669 503.337C230.077 495.678 231.498 486.821 241.278 484H245.51ZM471.304 618.88C473.563 619.4 476.947 618.774 480.405 618.583C490.471 618.053 498.044 614.595 501.799 603.436C507.029 587.865 510.794 572.113 510.847 555.884C510.9 540.345 504.398 526.28 495.753 513.509C490.715 506.052 483.926 500.282 473.712 501.82C468.44 502.615 463.2 503.74 457.992 504.917C428.653 511.568 403.28 524.753 384.156 548.385C377.59 556.5 367.375 557.253 358.953 550.517C353.586 546.221 349.004 541.087 343.881 536.505C331.831 525.739 318.413 517.062 303.998 509.913C287.621 501.788 270.182 496.474 252.299 492.528C241.193 490.078 239.401 490.767 236.006 501.406C229.239 522.578 226.057 544.142 227.33 566.481C228.178 581.299 231.689 595.067 238.51 608.177C240.387 611.773 243.007 613.555 247.176 613.545C253.657 613.513 259.957 612.601 266.078 610.564C283.463 604.794 300.073 597.422 316.154 588.629C331.11 580.44 346.363 572.76 361.457 564.784C371.152 559.661 379.446 561.655 384.771 567.839C394.275 578.891 404.225 589.35 415.786 598.398C431.75 610.903 449.559 618.127 471.314 618.891L471.304 618.88Z" fill="white"/>
<path d="M471.305 618.879C449.549 618.116 431.74 610.892 415.776 598.386C404.225 589.338 394.265 578.88 384.761 567.827C379.447 561.643 371.152 559.649 361.447 564.772C346.363 572.749 331.1 580.428 316.144 588.617C300.074 597.421 283.453 604.782 266.068 610.553C259.958 612.579 253.647 613.501 247.166 613.533C242.997 613.554 240.367 611.772 238.5 608.166C231.679 595.056 228.168 581.288 227.32 566.469C226.047 544.131 229.219 522.556 235.996 501.395C239.401 490.756 241.194 490.066 252.289 492.517C270.173 496.463 287.611 501.777 303.988 509.902C318.393 517.051 331.81 525.738 343.871 536.494C348.994 541.076 353.576 546.21 358.943 550.506C367.366 557.241 377.591 556.488 384.146 548.374C403.26 524.731 428.643 511.546 457.982 504.906C463.19 503.728 468.419 502.604 473.702 501.809C483.916 500.271 490.705 506.051 495.743 513.498C504.378 526.269 510.88 540.334 510.837 555.873C510.784 572.102 507.019 587.853 501.789 603.425C498.035 614.583 490.472 618.063 480.406 618.583C476.948 618.763 473.553 619.378 471.294 618.869L471.305 618.879Z" fill="#E05263"/>
</svg>
