<svg width="170" height="204" viewBox="0 0 170 204" fill="none" xmlns="http://www.w3.org/2000/svg">
<path d="M0.0278416 202.851C0.197842 203.021 0.357842 203.181 0.527842 203.351C0.0978416 203.451 -0.0721584 203.281 0.0278416 202.851Z" fill="#070606"/>
<path d="M119.278 185.331C113.728 188.171 108.058 188.761 102.238 186.191C98.8178 184.681 96.1978 182.291 95.0478 178.681C94.4978 176.961 93.6078 176.421 91.9578 176.751C91.7178 176.801 91.4578 176.791 91.2078 176.771C87.2578 176.501 84.6078 177.171 82.1478 181.401C76.6878 190.831 61.1378 190.141 55.2478 180.791C54.7178 179.951 54.2578 179.741 53.2978 179.781C49.3078 179.951 45.3078 179.961 41.3178 180.111C35.5178 180.331 31.1678 177.681 28.2078 173.001C25.6678 168.991 27.3578 160.531 31.5278 157.151C33.0178 155.941 34.5078 154.681 36.2878 153.991C37.8478 153.391 38.1578 152.751 37.2378 151.321C34.0878 146.401 33.5478 140.931 33.9578 135.271C34.0778 133.601 34.4078 131.971 35.2278 130.501C35.9378 129.231 35.5378 128.431 34.2378 128.041C31.8578 127.331 28.978 122.402 28.978 122.402C28.978 122.402 28.978 122.402 25.478 116.902C25.478 116.902 25.1778 115.441 24.9178 114.731C24.4878 113.561 23.8878 112.441 23.6078 111.241C22.9278 108.281 21.9678 105.441 23.4878 102.261C24.9778 99.1407 24.6478 95.4307 25.9978 92.1307C26.6578 90.5107 27.8578 89.3107 28.5178 87.7607C28.9478 87.5707 29.4078 87.4207 29.8178 87.1907C31.3478 86.3507 32.8178 86.4707 34.1078 87.6107C35.2578 88.6207 35.4578 89.8307 35.0478 91.4007C32.6278 100.581 36.0178 107.711 44.5478 112.671C47.1978 114.211 49.7378 115.501 52.8178 115.541C53.7878 115.551 54.3378 116.041 54.5078 117.011C55.1078 120.491 57.5078 122.891 59.7378 125.321C61.0978 126.801 61.5978 128.131 61.5478 130.221C61.3078 139.441 61.3578 148.671 61.4078 157.891C61.4278 160.861 61.1778 163.871 62.0378 166.811C62.5278 168.491 60.3878 169.231 60.4078 170.801C59.5378 172.091 59.9078 173.301 60.6478 174.481C62.4578 178.621 65.6678 180.631 69.7178 180.141C73.5378 179.681 76.6378 176.691 77.3978 172.671C77.5078 172.111 77.6578 171.451 77.4778 170.951C75.5378 165.611 76.8678 160.101 76.6278 154.681C76.4178 150.041 76.6878 145.381 76.8278 140.731C76.9078 138.221 78.4578 136.671 80.6078 136.751C83.0478 136.841 84.3778 138.311 84.4078 140.991C84.5078 149.961 84.6078 158.931 84.6578 167.901C84.6578 169.191 84.6978 169.891 86.3778 169.611C87.9978 169.331 89.7178 169.361 91.3578 169.571C93.3178 169.831 93.7678 169.021 93.7678 167.281C93.7778 158.471 94.0178 149.671 93.8378 140.861C93.7778 138.041 96.5478 136.471 98.6778 137.011C100.268 137.421 101.388 138.241 101.398 140.071C101.468 149.121 101.728 158.181 101.498 167.231C101.438 169.551 100.448 171.821 101.328 174.231C102.738 178.111 106.018 180.261 110.488 180.041C114.568 179.841 117.238 177.591 118.258 173.551C118.538 172.461 118.688 171.261 117.988 170.421C116.348 168.441 116.938 166.341 116.988 164.091C117.238 152.551 117.258 141.001 117.258 129.451C117.258 127.741 117.628 126.521 118.928 125.321C121.488 122.941 123.858 120.371 124.398 116.651C124.548 115.631 125.268 115.051 126.408 115.491C134.438 118.651 140.728 123.611 143.328 132.191C145.378 138.961 143.808 145.331 140.598 151.361C139.838 152.791 140.038 153.121 141.448 153.781C145.488 155.671 148.708 158.481 150.148 162.881C152.448 169.921 149.038 176.571 141.998 178.901C140.978 179.241 139.948 179.561 138.928 179.881C134.768 179.871 130.598 179.861 126.438 179.851C125.138 179.361 124.148 179.491 123.468 180.941C122.578 182.841 120.758 183.931 119.258 185.291L119.278 185.331ZM135.948 160.481L134.008 160.251C133.318 160.171 132.628 160.091 131.948 160.011C131.348 159.731 130.688 159.541 130.148 159.171C127.748 157.541 127.598 156.101 129.528 154.021C131.688 151.691 133.448 149.081 134.748 146.171C138.588 137.551 135.448 128.401 127.378 124.551C125.768 123.781 125.098 123.661 125.098 125.851C125.128 139.061 125.008 152.271 125.008 165.491C125.008 172.321 125.088 172.321 131.948 171.931C133.018 172.001 134.108 172.201 135.168 172.121C137.168 171.981 139.348 172.701 141.068 171.051C144.508 167.471 142.358 161.941 137.008 160.601C136.648 160.561 136.298 160.521 135.938 160.471L135.948 160.481ZM35.1378 166.441C34.9478 167.151 34.7978 167.861 35.3778 168.481C35.8678 171.031 37.7878 171.731 39.9778 171.801C43.8778 171.931 47.7878 171.871 51.6878 171.931C52.8678 171.951 53.4078 171.561 53.6378 170.291C54.2778 166.801 53.5978 163.351 53.5978 159.881C53.6078 148.111 53.4878 136.341 53.4178 124.571C53.5078 124.211 53.4778 123.951 52.9978 124.101C45.9978 125.301 40.4178 133.621 41.7778 140.441C42.8078 145.621 44.9878 150.131 48.4378 154.101C50.5878 156.571 50.1278 158.101 47.1178 159.561C45.6378 160.271 43.9778 159.871 42.5178 160.531C42.1578 160.581 41.8078 160.631 41.4478 160.681C38.1078 161.261 35.9578 163.131 35.1478 166.461L35.1378 166.441ZM31.8778 109.561C30.8178 109.521 30.9078 110.241 31.0378 110.751C32.0278 114.791 33.3778 118.641 36.4378 121.691C38.7478 123.991 38.6978 124.041 40.9478 121.891C41.1878 121.661 41.4178 121.411 41.7078 121.251C43.8478 120.061 42.9078 119.261 41.3878 118.471C37.7878 116.621 34.7078 114.201 32.7478 110.561C32.5278 110.151 32.4178 109.581 31.8878 109.551L31.8778 109.561Z" fill="#EDEDEC"/>
<path d="M57.1677 87.7008C51.2877 82.1908 47.2577 75.4908 44.4677 68.0008C44.0277 66.8208 43.7777 66.3208 42.3377 67.4008C33.4877 74.0508 21.3877 75.7808 12.3277 64.4008C9.04773 60.2808 8.99773 55.0208 9.73773 49.8608C10.6877 43.2108 14.6277 38.1208 18.5777 33.1408C25.7577 24.0908 34.2077 16.2508 43.2077 9.04079C47.5077 5.60079 52.8377 4.81079 58.2877 5.24079C59.7677 5.36079 61.2677 5.33079 62.7277 5.80079C65.0877 6.55079 67.2277 5.59079 69.2477 4.55079C74.3477 1.92079 79.8077 0.720788 85.4877 0.310788C94.9277 -0.759212 103.838 0.920788 112.148 5.55079C113.218 6.14079 114.168 6.37079 115.428 6.07079C124.218 4.00079 132.008 5.71079 138.958 11.7808C148.758 20.3308 158.228 29.0908 165.158 40.2808C169.258 46.9008 170.608 53.6808 167.958 61.1408C166.488 65.2908 163.618 68.1308 159.958 70.3308C157.718 71.1808 155.488 71.9808 153.048 72.2208C148.558 72.6608 144.318 71.8208 140.198 70.1008C138.868 68.8408 136.998 68.5508 135.558 67.4008C134.468 66.5308 134.148 67.7108 133.838 68.6308C132.118 73.7208 129.838 78.5208 126.418 82.7408C124.408 85.2208 121.928 87.1508 119.558 89.2408C118.868 89.8508 117.768 89.7808 117.538 89.5408C115.728 87.6208 113.358 87.5608 110.398 87.6108C112.538 85.3808 114.368 83.9308 116.328 82.4908C121.078 79.0008 124.008 74.0408 126.038 68.5908C127.408 64.9008 128.838 61.3508 131.908 58.6508C133.108 57.5908 133.978 56.1608 133.498 53.6208C136.328 57.1608 138.868 59.8108 141.848 62.0208C145.218 64.5108 148.978 65.4208 153.058 64.7708C159.448 63.7508 163.048 58.3308 161.658 51.9708C160.848 48.2608 159.008 45.0008 156.928 41.8908C152.368 35.0708 146.778 29.1708 140.618 23.7908C140.108 22.9108 139.368 22.2808 138.478 21.8108C134.478 17.9408 130.218 14.4908 124.388 12.4708C125.418 14.2508 126.218 15.5208 126.888 16.8408C127.078 17.2108 127.088 17.9008 126.868 18.2108C126.448 18.7908 126.038 18.1908 125.658 17.9308C123.348 16.3508 120.758 15.4208 117.998 15.1908C114.098 14.8708 111.068 12.4108 107.498 11.2808C99.1977 7.16079 90.4777 6.47079 81.4777 8.07079C76.2677 8.95079 71.4977 11.0108 66.9777 13.6608C65.9077 14.2908 64.8777 14.7308 63.6077 14.8808C59.4777 15.3908 55.4677 16.4008 51.6477 18.1108C51.2177 18.3008 50.7277 18.3308 49.9977 18.5008C50.7577 16.9208 51.6977 15.8308 52.6377 14.7408C53.0877 14.2108 53.9977 13.7208 53.4677 12.8908C52.8277 11.8908 51.9277 12.6708 51.2577 12.9608C48.1777 14.3008 45.5777 16.3108 43.3477 18.8208C37.9377 23.1208 33.1677 28.0808 28.5777 33.2108C24.7677 37.4708 21.1477 41.9408 18.5077 47.0708C15.9477 52.0408 16.6077 58.2408 19.9977 61.7208C23.4577 65.2708 29.3277 65.8508 34.5977 63.3708C38.8777 61.3608 41.1077 57.5608 43.5377 53.8708C44.2777 53.6408 44.7877 53.7508 45.0177 54.6408C45.5477 56.6508 46.8577 58.1808 48.4477 59.4008C50.0677 60.6508 50.3277 62.5708 50.7777 64.1908C53.1277 72.7308 58.5477 79.0208 65.0577 84.6108C65.8577 85.2908 66.5777 86.0508 67.6077 87.0308C65.0277 87.2608 62.9677 87.8108 61.0777 89.1308C59.3777 90.3108 58.3077 88.7008 57.1777 87.7208L57.1677 87.7008ZM54.7477 12.6408C54.3977 12.4708 54.1877 12.2808 54.0077 12.3008C53.8077 12.3208 53.6277 12.5308 53.4377 12.6608C53.5577 12.8208 53.7277 13.1308 53.7977 13.1108C54.0777 13.0408 54.3377 12.8608 54.7477 12.6408Z" fill="#EDEDEC"/>
<path d="M44.1578 31.3108C46.1978 27.6108 48.6278 24.3208 52.2478 21.9008C64.9678 13.3808 81.4078 20.1708 84.8578 34.6908C85.2378 36.2808 85.6778 36.6008 87.1078 36.1408C88.3078 35.7608 89.6678 35.4608 90.7978 35.9308C93.5878 37.0908 93.8978 35.2908 94.4478 33.3508C97.6878 21.8108 108.628 16.6408 118.658 18.6808C128.268 20.6408 137.598 30.3208 135.348 43.2908C133.008 56.7708 121.818 64.5308 108.838 61.2008C101.128 59.2208 96.0078 54.0508 94.0378 46.2308C93.4678 43.9608 92.4278 42.9608 90.1578 43.1408C89.3278 43.2008 88.4978 43.2908 87.6678 43.2908C86.0678 43.2808 85.3578 43.7908 84.8878 45.5808C81.4978 58.2908 68.6278 64.8408 56.1678 60.4908C52.5978 59.2408 50.0578 57.0108 47.7978 54.0608C44.6478 49.9408 43.5078 45.1708 42.4578 40.3008C43.0278 37.3108 43.5978 34.3208 44.1678 31.3208L44.1578 31.3108ZM114.668 26.2808C105.728 25.3408 99.9278 33.8208 100.038 40.1408C100.168 47.9008 106.868 54.8108 114.368 54.8208C122.238 54.8308 128.278 48.4908 128.588 40.5008C128.878 32.9708 121.408 24.9208 114.668 26.2808ZM78.5478 40.1108C78.7678 33.3308 72.0078 25.6308 64.3578 25.8008C56.6478 25.9708 49.9778 32.3708 49.8778 40.0408C49.7878 47.5408 56.6478 54.7508 63.9178 54.7808C71.6878 54.8108 78.4978 47.9908 78.5478 40.1208V40.1108Z" fill="#EDEDEC"/>
<path d="M120.508 105.861C120.678 109.941 120.548 113.991 119.308 117.941C117.568 123.461 113.748 125.601 108.168 124.131C103.948 123.021 100.048 121.171 96.3978 118.841C95.6278 118.351 95.2278 118.101 94.2978 118.751C91.3278 120.851 88.0978 120.971 84.9678 119.101C84.0578 118.561 83.6078 118.701 82.8178 119.181C78.6678 121.731 74.1078 123.281 69.4178 124.441C65.5178 125.401 62.4078 123.741 60.5878 120.121C59.0478 117.061 58.7678 113.761 58.6578 110.431C58.5378 106.871 58.5378 103.301 58.5378 99.7408C58.5378 94.4408 63.8878 90.0208 69.0978 91.3108C73.7678 92.4608 78.4078 93.8208 82.7178 96.0608C83.4678 96.4508 84.0778 96.7808 85.0178 96.3208C88.0178 94.8608 91.1478 94.9308 94.1978 96.1408C95.6478 96.7208 96.7278 96.4608 98.1378 95.8508C102.528 93.9608 106.848 91.7008 111.688 91.1608C117.918 90.4608 120.068 94.7708 120.478 98.8808C120.708 101.181 120.518 103.521 120.518 105.851L120.508 105.861ZM65.9978 107.341C65.9978 109.761 66.2078 112.151 66.5478 114.531C66.8178 116.401 67.6678 117.331 69.7078 116.441C71.8278 115.511 73.9578 114.561 76.1578 113.861C78.5278 113.111 79.3978 111.951 78.6078 109.401C78.1378 107.871 78.3678 106.121 78.3278 104.471C78.3078 103.731 78.5178 102.991 77.5578 102.611C74.4778 101.391 71.4178 100.141 68.3478 98.8708C67.0178 98.3208 66.5278 98.8508 66.4578 100.161C66.3278 102.561 66.1478 104.951 65.9878 107.341H65.9978ZM112.408 107.851C112.408 107.851 112.448 107.851 112.468 107.851C112.468 105.451 112.438 103.051 112.478 100.651C112.508 99.2308 112.058 98.6308 110.568 99.1908C107.628 100.311 104.698 101.431 101.718 102.451C100.868 102.741 100.838 103.101 100.948 103.881C101.298 106.431 101.368 109.011 100.368 111.451C100.028 112.281 100.228 112.671 100.968 112.981C104.258 114.321 107.478 115.831 110.938 116.771C112.338 117.151 112.368 116.351 112.378 115.551C112.438 112.991 112.398 110.421 112.398 107.861L112.408 107.851ZM85.4478 106.811C85.4178 110.641 86.4878 111.971 89.3978 111.961C92.8378 111.941 93.7478 110.821 93.5978 106.811C93.5678 106.061 93.5278 105.321 93.4778 104.571C93.4478 104.081 93.4678 103.431 92.8878 103.321C90.6478 102.881 88.3378 103.011 86.2178 103.681C84.7478 104.151 85.7878 105.891 85.4478 106.811Z" fill="#EDEDEC"/>
<path d="M89.6078 55.3108C91.1278 55.0208 92.7478 55.5008 94.3578 55.8208C97.7478 56.4908 99.3778 59.7508 97.9678 62.8908C97.2078 64.6008 96.0178 66.1208 94.3778 66.9208C92.0578 68.0408 92.2378 69.7408 92.7078 71.6608C93.9278 76.6608 98.4978 78.4708 102.738 75.5308C104.518 74.3008 105.908 74.9308 107.198 76.1008C108.398 77.2008 108.008 78.4208 107.208 79.6708C104.388 84.1308 97.0078 85.1208 92.6178 81.5708C92.2978 81.3108 91.9378 81.0508 91.7078 80.7208C90.3378 78.7808 89.3178 79.0408 87.6478 80.7108C84.0878 84.2908 78.7778 84.6708 74.8278 82.0608C72.2978 80.3808 71.5978 77.8008 73.0578 75.7408C73.8478 74.6208 74.7178 74.2008 75.9878 74.9808C76.6978 75.4108 77.4378 75.7908 78.1878 76.1508C81.6278 77.8408 84.4378 76.6508 85.6178 73.0008C86.6778 69.7308 86.4078 68.8808 83.6378 66.7708C82.0678 65.5808 80.9478 64.0808 80.4178 62.1608C79.5878 59.1408 81.3878 56.3808 84.4978 55.7608C86.1378 55.4308 87.7678 55.2108 89.5978 55.2908L89.6078 55.3108Z" fill="#EDEDEC"/>
<path d="M81.4678 8.05078C90.4778 6.44078 99.1978 7.14079 107.488 11.2608C107.798 13.0508 108.368 14.9408 105.568 15.2608C104.538 15.3808 103.678 15.4108 102.948 14.3908C101.118 11.8508 97.1078 10.9208 94.0778 12.9008C89.9978 15.5608 85.7578 15.4208 81.4478 13.1408C78.6778 11.6708 78.5078 10.6608 81.1078 8.70078C81.2878 8.57078 81.3478 8.28078 81.4578 8.07078L81.4678 8.05078Z" fill="#070606"/>
<path d="M69.718 73.7808C68.188 73.7508 67.358 72.6208 67.208 70.9808C67.008 68.7608 68.328 67.2508 70.348 67.2208C72.228 67.2008 73.558 68.0808 73.898 69.9308C74.178 71.4708 71.768 73.7408 69.718 73.7808Z" fill="#EDEDEC"/>
<path d="M111.948 71.1808C112.078 72.5908 111.738 73.9209 109.908 74.0909C108.138 74.2509 105.368 72.0408 105.328 70.6008C105.288 68.9608 106.768 67.6308 108.628 67.6208C110.678 67.6208 111.938 68.9008 111.948 71.1808Z" fill="#EDEDEC"/>
<path d="M26.3962 46.5662C27.9691 49.2459 26.6014 51.7878 25.4114 53.9206C24.3687 55.794 22.3217 55.2875 20.7884 53.8234C20.7673 51.4328 22.7833 50.3343 24.0418 48.7864C24.7082 47.9582 25.5994 47.2996 26.3821 46.5667L26.3962 46.5662Z" fill="#070606"/>
<path d="M31.1955 57.9995C30.2085 57.0199 29.1108 56.1147 28.2551 55.0388C27.1705 53.6662 27.6932 52.5526 29.4399 52.3119C30.1653 52.2105 30.9336 52.3411 31.6435 52.1978C33.7586 51.754 35.4917 51.7472 35.0858 54.7106C34.5556 55.1594 34.0255 55.6082 33.5021 56.0497C33.0711 55.6322 32.6315 55.3847 32.0886 55.8764C31.5799 56.3315 31.6023 56.8048 32.0219 57.3076C31.7466 57.543 31.4781 57.771 31.1955 57.9995Z" fill="#070606"/>
<path d="M54.7477 12.6408C54.3377 12.8608 54.0777 13.0408 53.7977 13.1108C53.7177 13.1308 53.5577 12.8208 53.4377 12.6608C53.6277 12.5308 53.8077 12.3208 54.0077 12.3008C54.1877 12.2808 54.3977 12.4708 54.7477 12.6408Z" fill="#070606"/>
<path d="M114.668 26.2808C121.408 24.9308 128.878 32.9708 128.588 40.5008C128.278 48.4808 122.238 54.8308 114.368 54.8208C106.868 54.8108 100.168 47.9008 100.038 40.1408C99.9279 33.8208 105.728 25.3408 114.668 26.2808ZM115.938 31.8008H118.478C117.698 31.1808 117.198 29.9008 115.968 30.7908C108.538 29.7208 104.278 35.7708 106.608 42.9808C107.918 47.0408 112.468 49.0608 116.728 47.4908C121.368 45.7808 123.658 41.1108 121.858 37.0108C118.918 40.0508 116.638 40.4608 114.738 38.2708C112.828 36.0708 113.258 33.7908 115.938 31.8008Z" fill="#070606"/>
<path d="M78.5478 40.1107C78.4978 47.9807 71.6978 54.8007 63.9178 54.7707C56.6478 54.7407 49.7778 47.5407 49.8778 40.0307C49.9778 32.3607 56.6478 25.9707 64.3578 25.7907C72.0178 25.6207 78.7778 33.3207 78.5478 40.1007V40.1107ZM72.4078 35.9907C72.3778 35.6107 72.3378 35.2307 72.3078 34.8607C71.6878 35.1307 72.1178 35.6207 72.0578 36.0007C71.8878 36.8807 71.2078 37.3907 70.5878 37.9307C68.5578 39.7007 66.5278 39.8307 65.0578 38.3107C63.4278 36.6307 63.5578 34.2207 65.3178 32.3107C65.6678 31.9307 66.4378 31.8207 66.2878 31.0407C60.8078 29.6107 56.7378 32.5807 56.1878 38.3907C55.7078 43.4407 58.4878 47.3707 63.0478 48.0707C67.5878 48.7607 71.8878 45.7107 72.7878 41.1507C73.1378 39.3907 72.7878 37.7007 72.3978 36.0007L72.4078 35.9907Z" fill="#070606"/>
<path d="M65.9978 107.341C66.1578 104.951 66.3378 102.551 66.4678 100.161C66.5378 98.8508 67.0278 98.3208 68.3578 98.8708C71.4178 100.131 74.4878 101.381 77.5678 102.611C78.5278 102.991 78.3178 103.731 78.3378 104.471C78.3778 106.121 78.1478 107.881 78.6178 109.401C79.4078 111.951 78.5478 113.111 76.1678 113.861C73.9678 114.551 71.8378 115.511 69.7178 116.441C67.6778 117.341 66.8178 116.401 66.5578 114.531C66.2178 112.151 66.0078 109.761 66.0078 107.341H65.9978Z" fill="#EA394B"/>
<path d="M112.408 107.851C112.408 110.411 112.448 112.981 112.388 115.541C112.368 116.341 112.348 117.141 110.948 116.761C107.488 115.821 104.268 114.311 100.978 112.971C100.238 112.671 100.028 112.281 100.378 111.441C101.378 109.001 101.308 106.431 100.958 103.871C100.848 103.091 100.878 102.741 101.728 102.441C104.698 101.421 107.638 100.301 110.578 99.1808C112.058 98.6208 112.508 99.2208 112.488 100.641C112.448 103.041 112.478 105.441 112.478 107.841C112.458 107.841 112.438 107.841 112.418 107.841L112.408 107.851Z" fill="#EA394B"/>
<path d="M85.448 106.811C85.788 105.891 84.748 104.141 86.218 103.681C88.338 103.011 90.638 102.881 92.888 103.321C93.458 103.431 93.438 104.081 93.478 104.571C93.528 105.321 93.578 106.061 93.598 106.811C93.748 110.821 92.828 111.941 89.398 111.961C86.488 111.981 85.428 110.641 85.448 106.811Z" fill="#EA394B"/>
<path d="M115.938 31.8007C113.258 33.7907 112.828 36.0807 114.738 38.2707C116.638 40.4607 118.918 40.0507 121.858 37.0107C123.658 41.1107 121.378 45.7807 116.728 47.4907C112.468 49.0607 107.908 47.0407 106.608 42.9807C104.288 35.7707 108.548 29.7207 115.968 30.7907C115.958 31.1307 115.948 31.4607 115.938 31.8007Z" fill="#EDEDEC"/>
<path d="M115.938 31.8007C115.948 31.4607 115.958 31.1307 115.968 30.7907C117.198 29.9007 117.698 31.1807 118.478 31.8007H115.938Z" fill="#070606"/>
<path d="M72.4079 35.9908C72.7979 37.6908 73.1479 39.3908 72.7979 41.1408C71.8979 45.7008 67.5979 48.7608 63.0579 48.0608C58.4979 47.3608 55.7179 43.4408 56.1979 38.3808C56.7479 32.5708 60.8179 29.6108 66.2979 31.0308C66.4479 31.8108 65.6779 31.9208 65.3279 32.3008C63.5579 34.2108 63.4379 36.6108 65.0679 38.3008C66.5379 39.8208 68.5679 39.6908 70.5979 37.9208C71.2179 37.3808 71.8979 36.8808 72.0679 35.9908L72.2379 35.9808H72.4079V35.9908Z" fill="#EDEDEC"/>
<path d="M72.4079 35.9908H72.2379H72.0679C72.1179 35.6008 71.6979 35.1108 72.3179 34.8508C72.3479 35.2308 72.3879 35.6108 72.4179 35.9808L72.4079 35.9908Z" fill="#070606"/>
</svg>
