<svg width="776" height="1093" viewBox="0 0 776 1093" fill="none" xmlns="http://www.w3.org/2000/svg">
<path d="M516.499 133.468C515.057 130.465 512.261 128.787 509.906 126.668C505.314 122.606 500.78 118.455 497.277 113.363C495.629 110.949 493.451 108.447 495.246 105.356C496.806 102.677 499.838 103.001 502.547 102.972C508.552 102.913 514.203 104.62 519.678 106.74C575.019 128.375 611.991 166.348 625.178 225.456C626.679 232.227 626.709 239.144 625.826 245.944C624.001 260.338 611.373 265.872 599.245 257.659C593.093 253.509 588.177 248.093 583.791 242.088C568.631 221.335 559.094 197.609 547.937 174.767C546.348 171.47 544.64 168.173 542.521 165.23C540.078 161.815 536.663 160.137 532.248 161.609C528.627 162.816 526.949 164.405 529.098 168.526C547.79 204.262 555.149 243.236 561.213 282.504C571.31 348.058 574.43 414.143 576.137 480.345C577.992 550.992 585.263 621.139 596.095 690.962C600.187 717.337 604.249 743.711 608.429 770.086C608.841 772.618 608.37 776.268 610.931 777.269C613.757 778.387 615.464 775.002 617.26 773.207C640.779 749.687 656.057 722.223 657.352 688.254C657.882 674.36 655.115 660.966 650.817 647.808C650.346 646.336 648.109 644.747 650.14 643.393C652.142 642.039 653.584 643.716 654.762 645.512C679.37 683.22 687.259 722.694 667.92 765.259C657.882 787.395 641.957 804.91 624.324 821.041C620.145 824.838 618.555 828.164 619.673 834.228C629.123 885.506 639.484 936.608 649.64 987.738C650.817 993.596 653.231 995.48 659.295 995.745C688.142 996.981 715.724 1003.02 739.626 1020.35C749.988 1027.86 758.112 1037.28 758.495 1051.17C758.878 1065.21 752.578 1075.05 739.568 1080.55C724.732 1086.82 708.954 1089.29 693.146 1090.47C649.051 1093.74 604.955 1091.8 560.86 1089.65C521.209 1087.7 481.676 1084.5 442.084 1081.76C426.689 1080.7 402.935 1078.88 387.54 1077.88C380.417 1077.4 392.366 1072.51 391.748 1069.39C390.895 1064.98 379.676 1064.49 381.653 1064.63C412.443 1066.78 458.422 1070.13 489.212 1072.25C502.399 1073.16 515.616 1073.84 528.804 1074.87C532.778 1075.16 533.896 1074.28 533.278 1070.1C521.533 990.564 524.8 910.674 528.333 830.814C529.157 812.21 530.452 793.606 531.6 775.032C531.688 773.442 531.07 771.617 532.836 770.116C535.427 771.735 534.544 774.443 534.662 776.621C540.343 864.194 546.642 951.767 546.701 1039.61C546.701 1049.91 546.642 1060.21 546.377 1070.48C546.289 1074.31 547.054 1075.99 551.499 1076.28C595.065 1079.23 638.66 1080.14 682.284 1078.73C698.151 1078.2 714.046 1076.52 729.324 1071.66C748.369 1065.6 752.196 1048.94 737.625 1035.1C721.081 1019.41 700.241 1013.14 678.458 1009.9C649.463 1005.61 620.822 1010.4 592.239 1014.64C591.532 1014.76 590.797 1014.76 589.678 1014.88C590.708 1010.9 593.946 1009.52 596.802 1007.84C607.811 1001.34 619.968 998.394 632.449 997.305C638.513 996.775 638.895 994.803 637.689 989.534C623.5 929.16 609.312 868.816 597.096 808C582.083 733.232 568.484 658.258 561.507 582.253C558.152 545.576 557.946 508.81 558.682 472.014C559.918 409.963 558.946 347.941 550.645 286.301C546.024 251.978 538.871 218.244 524.3 186.512C523.417 184.569 523.152 181.449 520.944 181.184C517.971 180.831 517.706 184.304 516.588 186.306C513.673 191.428 510.524 196.461 508.287 201.848C502.517 215.801 491.449 220.717 477.349 220.982C455.978 221.365 434.784 219.422 413.855 215.095C399.932 212.21 392.102 199.493 395.516 185.717C397.106 179.359 399.166 173.06 401.551 166.937C403.199 162.669 402.699 160.225 398.136 158.459C391.542 155.898 385.155 150.6 378.649 150.541C371.555 150.482 370.23 160.049 366.05 165.082C357.661 175.179 346.328 177.446 334.495 178.181C312.476 179.506 290.988 176.592 270.53 168.026C253.515 160.902 246.804 147.803 250.484 129.759C252.838 118.22 256.282 107.034 260.816 96.172C267.557 79.982 281.127 72.3875 297.994 76.538C321.837 82.3664 344.562 91.5505 366.992 101.412C374.764 104.826 379.562 111.479 381.975 119.574C382.976 122.959 384.831 124.902 388.039 126.226C395.045 129.141 401.933 132.32 408.821 135.528C412.383 137.177 414.709 137.177 417.034 133.056C424.275 120.133 431.487 116.719 446.176 119.368C469.313 123.548 492.156 129.229 514.969 134.94C515.587 135.057 516.234 135.205 516.853 135.322C516.735 134.734 516.617 134.145 516.499 133.556V133.468ZM322.926 156.987C329.02 156.487 335.113 155.928 341.206 155.457C344.326 155.221 346.828 153.926 348.771 151.512C353.363 145.743 357.455 139.649 360.34 132.879C362.783 127.139 361.635 122.076 355.424 119.544C335.319 111.302 315.126 103.266 294.079 97.5555C287.426 95.7599 283.187 97.997 280.774 104.296C277.006 114.128 273.709 124.107 271.472 134.41C270.059 140.856 272.178 145.272 278.566 147.744C292.842 153.308 307.531 156.693 322.956 156.987H322.926ZM464.78 194.548C469.431 194.548 474.082 194.401 478.733 194.607C481.853 194.725 483.648 193.518 485.061 190.78C489.712 181.626 494.393 172.5 499.456 163.552C501.899 159.195 500.663 157.606 496.247 156.634C479.321 152.866 462.454 149.01 445.587 145.036C441.908 144.183 439.582 144.918 437.904 148.451C432.37 160.166 426.63 171.764 422.568 184.128C420.979 188.896 422.009 190.751 426.836 191.428C439.435 193.194 452.034 195.078 464.809 194.548H464.78Z" fill="#131B25"/>
<path d="M518.473 339.489C524.096 352.588 526.539 366.276 524.213 380.288C520.858 400.481 508.406 413.139 488.801 418.202C470.522 422.912 452.271 421.734 434.58 415.111C419.479 409.459 409.235 398.803 403.76 383.614C403.26 382.231 403.26 380.7 400.934 379.64C393.634 390.384 385.568 400.834 375.354 409.283C339.353 439.013 298.967 450.258 254.842 431.801C202.298 409.842 178.661 366.306 195.351 310.701C204.594 279.94 221.137 253.182 241.036 228.308C243.45 225.306 246.335 222.598 250.309 225.806C254.577 229.25 253.223 233.018 250.309 236.698C234.678 256.391 221.343 277.408 212.218 300.928C203.417 323.564 197.618 347.084 207.449 370.309C221.579 403.631 248.336 422.706 284.013 426.65C328.697 431.566 362.608 411.932 388.188 376.137C391.603 371.369 391.809 369.132 385.568 366.365C360.783 355.385 339.913 339.754 328.079 314.321C322.81 303.018 320.691 291.096 321.015 278.674C321.25 270.373 326.431 265.28 332.524 260.924C346.065 251.21 361.902 247.766 377.856 245.205C411.325 239.847 444.647 240.76 477.675 248.943C486.8 251.21 495.248 254.978 503.078 260.1C513.646 267.017 517.884 276.584 515.088 289.183C509.731 313.32 495.454 331.6 476.88 346.848C459.718 360.919 440.497 370.839 418.007 373.076C413.71 373.518 414.387 375.843 415.358 378.698C421.275 395.977 434.58 404.043 451.476 407.134C461.632 408.988 472.111 409.106 482.208 407.251C502.018 403.631 513.528 389.06 516.795 365.099C517.943 356.68 518.473 348.202 518.473 339.519V339.489Z" fill="#131B25"/>
<path d="M211.22 118.664C211.279 124.64 209.218 129.379 207.776 134.148C188.23 199.349 171.599 265.257 158.588 332.048C147.549 388.742 138.395 445.76 131.212 503.102C123.912 561.445 118.084 619.964 114.228 678.631C108.311 768.677 105.779 858.869 106.662 949.121C106.721 956.48 107.634 963.81 107.693 971.139C107.693 975.26 109.459 976.526 113.227 977.144C123.942 978.94 127.915 980.912 136.246 988.212C122.117 987.653 109.429 988.095 96.7719 989.154C75.5189 990.95 54.5014 993.952 35.1029 1003.67C27.0962 1007.67 19.9137 1012.67 15.3511 1020.65C9.72877 1030.54 11.23 1036.31 21.0617 1041.93C32.1004 1048.23 44.4636 1050.35 56.7091 1052.5C84.497 1057.39 112.697 1058.36 140.809 1059.68C160.384 1060.6 180.018 1060.54 199.593 1061.36C205.362 1061.6 207.806 1059.6 209.189 1054.12C216.548 1025.3 220.287 995.984 222.759 966.43C227.057 915.063 227.852 863.609 227.793 812.095C227.793 810.976 227.263 809.652 229.029 808.386C232.149 813.626 231.826 819.572 232.355 825.018C237.301 874.912 237.183 924.895 233.533 974.848C231.561 1001.99 228.47 1029.01 221.14 1055.33C219.521 1061.1 222.583 1061.24 226.821 1061.24C264.824 1061.24 302.826 1061.33 340.828 1062.77C353.81 1063.27 366.791 1064.31 379.772 1064.16C386.925 1064.07 395.99 1068.98 396.372 1073.46C396.873 1079.37 382.922 1077.4 379.655 1077.17C323.843 1072.9 267.914 1075.08 212.044 1073.31C181.666 1072.34 151.229 1073.14 120.88 1071.25C88.5003 1069.25 55.8849 1067.93 24.8296 1056.86C24.1526 1056.62 23.4461 1056.39 22.7691 1056.12C-3.22319 1045.7 -7.49145 1024.36 12.7019 1004.64C26.4192 991.244 44.022 985.857 62.1254 981.972C70.7208 980.117 79.5222 978.793 88.2648 978.057C94.1226 977.586 96.1243 975.731 95.9477 969.609C94.4464 923.276 94.9763 876.943 95.7416 830.61C98.0376 689.993 107.634 549.906 127.474 410.643C139.307 327.633 155.026 245.329 177.604 164.467C182.667 146.364 191.233 130.969 207.452 120.637C208.424 120.018 209.483 119.518 211.22 118.605V118.664Z" fill="#131B25"/>
<path d="M83.8788 161.674C78.5509 161.262 72.6931 160.643 67.159 158.524C54.5897 153.726 50.2626 142.599 56.297 130.56C61.0657 121.052 68.8958 114.428 77.4617 108.541C93.3279 97.6498 110.784 89.9081 128.651 83.1377C181.107 63.2682 235.682 52.1118 290.904 43.5165C295.496 42.81 299.617 43.5753 300.589 48.7855C301.59 54.0841 297.998 56.3212 293.318 56.91C270.74 59.7947 248.163 62.915 225.968 68.0663C212.604 71.1571 199.416 74.8955 186.788 80.3118C181.784 82.4607 177.221 85.2571 173.277 89.025C168.567 93.4993 167.625 99.0627 170.51 104.45C173.218 109.483 178.605 109.483 183.58 108.335C192.528 106.304 200.476 101.889 208.306 97.2966C212.957 94.559 217.314 92.675 220.875 98.474C223.79 103.243 221.788 107.305 215.076 110.19C179.37 125.585 143.635 140.951 107.899 156.257C100.422 159.466 92.592 161.379 83.9083 161.762L83.8788 161.674Z" fill="#131B25"/>
<path d="M435.845 744.63C433.814 744.571 432.607 743.305 431.871 741.716C430.517 738.831 429.604 735.74 428.103 732.973C426.337 729.735 426.337 724.613 421.274 724.407C416.623 724.201 415.828 728.823 414.062 731.796C403.995 748.898 394.134 766.118 384.096 783.221C382.565 785.841 381.623 789.903 377.797 789.609C373.734 789.285 373.97 784.928 373.116 782.073C368.995 768.002 365.08 753.873 361.253 739.743C360.459 736.8 359.899 733.768 356.367 733.238C352.452 732.62 351.628 736.035 350.303 738.566C337.793 762.704 325.371 786.9 312.831 811.038C311.565 813.452 311.182 817.19 307.15 816.749C303.882 816.396 303.264 813.334 302.234 810.92C290.547 783.191 278.891 755.492 267.322 727.733C266.204 725.025 263.289 721.728 266.675 719.05C269.883 716.489 272.562 719.756 275.152 721.316C285.602 727.675 296.17 733.886 306.355 740.627C312.213 744.483 315.333 743.158 318.276 737.183C325.547 722.494 333.23 708.011 340.736 693.44C341.855 691.262 342.65 688.583 345.534 688.407C348.831 688.201 349.773 691.056 351.098 693.44C358.84 707.628 366.67 721.787 374.5 735.946C375.913 738.507 377.12 741.627 380.77 741.215C384.361 740.803 384.92 737.447 385.833 734.71C390.66 720.345 395.576 706.009 400.109 691.586C401.905 685.904 404.436 684.374 409.617 687.847C414.504 691.115 419.714 693.882 424.541 697.237C429.369 700.564 433.137 700.505 437.287 695.883C442.35 690.232 448.032 685.139 453.507 679.899C454.831 678.634 456.215 676.691 458.511 678.074C460.807 679.458 460.866 681.636 460.042 683.903C453.095 703.007 446.177 722.111 439.201 741.215C438.612 742.864 437.729 744.336 435.816 744.63H435.845Z" fill="#131B25"/>
<path d="M435.934 19.1352C434.462 31.3513 427.044 41.7423 416.741 50.1905C408.735 56.7548 399.462 61.3174 389.748 64.732C386.716 65.7917 382.713 67.0869 380.594 63.0247C378.71 59.4335 381.388 57.108 383.831 54.9592C395.724 44.4504 400.787 30.9097 401.994 15.4263C402.759 5.80059 410.53 -0.498814 419.92 0.0310394C429.34 0.590329 436.11 7.97887 435.934 19.1058V19.1352Z" fill="#131B25"/>
<path d="M712.899 727.438C709.661 726.26 703.156 730.058 702.302 723.964C701.449 717.9 708.307 719.667 711.751 718.577C741.806 709.07 759.762 688.965 766.179 658.145C766.915 654.612 765.002 647.93 771.007 648.342C776.394 648.696 774.775 655.054 775.157 658.792C778.984 694.263 749.165 727.261 712.899 727.408V727.438Z" fill="#131B25"/>
<path d="M721.819 639.657C721.466 617.462 713.076 598.887 696.857 583.757C694.885 581.903 691.088 580.284 693.501 576.781C695.797 573.396 698.8 575.927 701.302 577.163C737.126 594.649 747.635 642.895 722.349 673.508C720.818 675.363 719.435 678.1 716.55 676.717C713.106 675.039 714.784 672.184 715.785 669.711C719.758 660.115 722.084 650.195 721.819 639.716V639.657Z" fill="#131B25"/>
<path d="M629.418 581.438C665.448 581.702 694.031 610.403 693.472 646.05C693.413 648.905 694.208 652.762 690.292 653.174C686.907 653.527 686.79 649.789 686.054 647.286C676.134 613.876 652.614 594.095 618.321 590.416C615.701 590.121 613.11 589.797 613.081 586.648C613.081 583.91 615.583 583.351 617.82 583.027C621.676 582.468 625.562 581.967 629.418 581.467V581.438Z" fill="#131B25"/>
<path d="M437.17 81.5471C434.609 81.5471 433.137 81.6059 431.665 81.5471C428.781 81.3999 425.278 81.8414 424.571 77.9853C423.776 73.6287 427.839 73.8642 430.341 72.9222C440.496 69.125 447.502 62.1191 452.388 52.5523C456.156 45.1049 462.75 42.2202 469.255 44.5751C477.409 47.5187 480.235 57.2916 474.907 64.5918C465.282 77.7204 451.182 80.87 437.17 81.5765V81.5471Z" fill="#131B25"/>
<path d="M516.5 133.477C516.618 134.065 516.736 134.654 516.854 135.243C516.235 135.125 515.588 134.978 514.97 134.86C515.47 134.389 516 133.948 516.5 133.477Z" fill="#FEFEFE"/>
<path d="M245.51 484C253.211 485.74 260.944 487.331 268.591 489.251C293.423 495.487 316.122 506.19 336.71 521.263C346.395 528.359 354.997 536.643 363.78 544.758C368.595 549.213 374.843 548.99 378.693 543.909C391.157 527.457 407.449 516.076 426.171 507.675C438.485 502.159 451.352 498.574 464.674 496.548C470.158 495.71 475.324 494.119 481.317 495.159C490.492 496.75 496.581 501.968 501.396 508.746C509.161 519.672 514.888 531.647 516.617 545.139C516.331 544.991 516.639 545.33 516.617 545.139V548.046C516.617 548.046 517.02 555.478 516.999 560.244C516.978 565.107 516.49 572.686 516.49 572.686C516.161 573.004 516.511 572.336 516.49 572.686C515.811 584.884 512.078 596.382 507.686 607.626C505.501 613.216 504.037 619.824 496.729 621.68C493.462 622.508 490.344 623.717 486.769 624.417C481.996 626.029 480.362 625.663 474.062 626.029L462.903 625.477C450.917 625.732 440.055 621.298 429.756 616.059C410.599 606.3 395.102 591.906 381.387 575.688C375.469 568.687 372.552 567.51 364.31 571.731C343.043 582.604 322.338 594.537 300.625 604.592C285.679 611.508 270.596 617.841 254.219 620.789C244.853 622.476 236.717 619.771 232.188 612.272C229.239 607.382 227.34 601.972 225.357 596.616C222.747 589.551 222.121 583.049 221.061 575.094L220 557.592L221.061 539.443C221.05 539.772 221.39 539.125 221.061 539.443C221.316 527.054 223.978 515.047 227.669 503.337C230.077 495.678 231.498 486.821 241.278 484H245.51ZM471.304 618.88C473.563 619.4 476.947 618.774 480.405 618.583C490.471 618.053 498.044 614.595 501.799 603.436C507.029 587.865 510.794 572.113 510.847 555.884C510.9 540.345 504.398 526.28 495.753 513.509C490.715 506.052 483.926 500.282 473.712 501.82C468.44 502.615 463.2 503.74 457.992 504.917C428.653 511.568 403.28 524.753 384.156 548.385C377.59 556.5 367.375 557.253 358.953 550.517C353.586 546.221 349.004 541.087 343.881 536.505C331.831 525.739 318.413 517.062 303.998 509.913C287.621 501.788 270.182 496.474 252.299 492.528C241.193 490.078 239.401 490.767 236.006 501.406C229.239 522.578 226.057 544.142 227.33 566.481C228.178 581.299 231.689 595.067 238.51 608.177C240.387 611.773 243.007 613.555 247.176 613.545C253.657 613.513 259.957 612.601 266.078 610.564C283.463 604.794 300.073 597.422 316.154 588.629C331.11 580.44 346.363 572.76 361.457 564.784C371.152 559.661 379.446 561.655 384.771 567.839C394.275 578.891 404.225 589.35 415.786 598.398C431.75 610.903 449.559 618.127 471.314 618.891L471.304 618.88Z" fill="#131B25"/>
<path d="M471.305 618.88C449.549 618.116 431.74 610.893 415.776 598.387C404.225 589.339 394.265 578.881 384.761 567.828C379.447 561.644 371.152 559.65 361.447 564.773C346.363 572.75 331.1 580.429 316.144 588.618C300.074 597.422 283.453 604.783 266.068 610.554C259.958 612.58 253.647 613.502 247.166 613.534C242.997 613.555 240.367 611.773 238.5 608.167C231.679 595.057 228.168 581.289 227.32 566.47C226.047 544.132 229.219 522.557 235.996 501.396C239.401 490.757 241.194 490.067 252.289 492.518C270.173 496.464 287.611 501.778 303.988 509.903C318.393 517.052 331.81 525.739 343.871 536.495C348.994 541.077 353.576 546.211 358.943 550.507C367.366 557.242 377.591 556.489 384.146 548.375C403.26 524.731 428.643 511.547 457.982 504.907C463.19 503.729 468.419 502.605 473.702 501.81C483.916 500.271 490.705 506.052 495.743 513.499C504.378 526.27 510.88 540.335 510.837 555.874C510.784 572.103 507.019 587.854 501.789 603.426C498.035 614.584 490.472 618.064 480.406 618.583C476.948 618.764 473.553 619.379 471.294 618.87L471.305 618.88Z" fill="#E05263"/>
</svg>
