<svg width="123" height="55" viewBox="0 0 123 55" fill="none" xmlns="http://www.w3.org/2000/svg">
<g filter="url(#filter0_d_789_10824)">
<path d="M85.2799 31.7012C85.3676 31.7362 85.4552 31.7923 85.5463 31.8063C86.5313 31.9396 87.1587 32.5145 87.2919 33.4611C87.4812 34.8353 87.5758 36.2236 87.667 37.6119C87.8247 40.0343 87.9369 42.4638 88.0981 44.8863C88.1787 46.0782 87.8282 46.6006 86.6435 46.8285C86.3736 46.8811 86.0931 46.9056 85.8197 46.9021C84.663 46.8811 84.1898 46.4779 84.1443 45.328C84.0987 44.2342 84.1618 43.1334 84.1758 42.0361C84.1793 41.7276 84.1758 41.4191 84.1373 41.1036C83.969 41.8643 83.8218 42.6321 83.622 43.3823C83.3977 44.2272 82.8894 44.8512 82.0131 45.1142C81.1018 45.3876 80.541 45.1597 80.0923 44.3359C79.9451 44.0659 79.8259 43.7785 79.6226 43.519C79.6577 44.0554 79.7067 44.5883 79.7243 45.1247C79.7593 46.1589 79.3562 46.6637 78.3327 46.8144C77.8876 46.8811 77.4249 46.9091 76.9797 46.8635C76.0859 46.7724 75.6828 46.3201 75.6688 45.4262C75.6583 44.6234 75.7109 43.817 75.6968 43.0142C75.6688 41.5663 75.5987 40.1185 75.5671 38.6706C75.5496 37.8187 75.8406 37.3384 76.6818 37.1842C77.502 37.0299 78.3713 36.9738 79.195 37.072C79.6016 37.1175 80.0012 37.5628 80.3131 37.9063C80.534 38.1482 80.6006 38.5304 80.7933 38.9826C81.0387 37.675 81.2665 36.4865 81.4874 35.2981C81.575 34.8353 81.6416 34.369 81.7292 33.9063C81.929 32.8125 82.5634 32.1184 83.6641 31.8589C83.8113 31.8239 83.955 31.7573 84.0987 31.7082C84.4948 31.7082 84.8874 31.7082 85.2834 31.7082L85.2799 31.7012Z" fill="#131B25"/>
<path fill-rule="evenodd" clip-rule="evenodd" d="M80.4731 32.1461C80.3868 32.4336 80.177 32.6549 79.8234 32.728C80.2757 33.8079 78.2828 33.8259 78.628 33.0013C78.0341 34.202 76.773 33.3251 77.4684 32.5326C76.9747 32.5925 76.638 32.2945 76.5568 31.8789C75.7193 31.8936 74.8818 31.9106 74.0444 31.9286C73.6746 31.9364 73.3046 31.9419 72.9346 31.9474C71.8245 31.9638 70.7145 31.9803 69.6104 32.0618C67.6615 32.2055 66.4172 33.2222 66.0106 34.9295C65.6916 36.2617 65.6811 37.6149 65.9685 38.9541C66.2279 40.1671 66.9535 40.9909 68.1733 41.324C68.4634 41.4046 68.7599 41.465 69.0563 41.5255C69.34 41.5833 69.6236 41.6412 69.9013 41.7166C70.1494 41.7834 70.3894 41.8843 70.629 41.9851C70.7414 42.0323 70.8538 42.0796 70.9669 42.1233C70.9599 42.2214 70.9564 42.3195 70.9529 42.4175L70.9529 42.4177C70.8124 42.4542 70.6727 42.4995 70.5332 42.5446C70.2305 42.6425 69.9291 42.7401 69.6244 42.7473C69.1258 42.7607 68.6244 42.7213 68.1229 42.682C67.8381 42.6596 67.5533 42.6373 67.2689 42.6246C66.4662 42.5895 65.986 42.9366 65.8423 43.7219C65.7582 44.1952 65.7442 44.6965 65.7862 45.1803C65.8669 46.1198 66.0667 46.3652 67.0095 46.5721C68.9058 46.9857 70.8091 46.9752 72.6914 46.4809C73.778 46.1934 74.5141 45.4783 74.6227 44.3529C74.7174 43.3503 74.7594 42.3126 74.6122 41.3204C74.3564 39.5956 73.3083 38.4703 71.5838 38.0145C71.507 37.994 71.43 37.9736 71.353 37.9533C70.9167 37.8378 70.478 37.7218 70.052 37.5728C69.7997 37.4852 69.5438 37.3414 69.358 37.1556C68.9549 36.7454 69.032 36.3949 69.5893 36.2581C70.1782 36.1144 70.7916 36.0092 71.3945 36.0092C72.8507 36.0053 74.308 36.0177 75.7658 36.03C76.9327 36.0399 78.0999 36.0498 79.2671 36.0513C80.2836 36.0548 80.8199 35.5675 80.904 34.5754C80.9496 34.032 80.918 33.4781 80.876 32.9347C80.8461 32.5833 80.709 32.3173 80.4731 32.1461Z" fill="#131B25"/>
<path d="M112.346 35.8762C111.939 35.8762 111.628 35.8762 111.316 35.8762C110.73 35.8832 110.439 35.5607 110.408 35.0138C110.373 34.4284 110.355 33.8394 110.39 33.2539C110.429 32.5352 110.807 32.0865 111.522 32.0655C113.233 32.0199 114.947 32.0059 116.657 32.076C117.551 32.1146 117.828 32.5002 117.891 33.4187C117.926 33.8885 117.933 34.3582 117.926 34.828C117.916 35.5397 117.639 35.8236 116.892 35.9253C115.813 36.0725 115.732 36.1181 115.732 37.1909C115.732 38.2671 115.83 39.3399 115.872 40.4162C115.918 41.6081 115.546 42.0043 114.337 42.0639C113.846 42.0884 113.352 42.0919 112.861 42.0639C112.031 42.0183 111.638 41.5871 111.743 40.7492C111.866 39.7992 112.104 38.8631 112.234 37.9166C112.322 37.2645 112.315 36.6019 112.35 35.8797L112.346 35.8762Z" fill="#131B25"/>
<path d="M38.5604 40.7836C38.5604 41.2744 38.5323 41.7652 38.5674 42.256C38.641 43.3112 38.7917 44.3594 38.8233 45.4147C38.8478 46.2595 38.5919 46.5295 37.7577 46.7048C37.2214 46.817 36.6641 46.8801 36.1173 46.8801C35.0552 46.8801 34.4593 46.2841 34.4769 45.2218C34.5154 42.9887 34.6241 40.7555 34.6346 38.5224C34.6416 36.8782 34.5329 35.234 34.4769 33.5863C34.4313 32.2646 34.7433 31.9351 36.0577 31.9175C36.5099 31.9105 36.9655 31.907 37.4177 31.9281C38.294 31.9701 38.5814 32.2646 38.5954 33.127C38.6094 34.2033 38.5954 35.2831 38.6094 36.3593C38.6094 36.6012 38.6901 36.8431 38.7391 37.1166C39.4156 37.0184 39.696 36.5591 39.8152 36.0824C39.9975 35.3497 40.1202 34.5854 40.1447 33.8317C40.1973 32.0613 40.2674 31.9561 42.02 31.9561C42.2583 31.9561 42.4932 31.9561 42.7315 31.9561C43.4816 31.9561 43.8426 32.205 43.9373 32.9377C44.2177 35.0517 43.8952 36.9974 42.2513 38.5574C41.4101 39.3567 41.4241 39.3708 41.9253 40.419C41.9849 40.5417 42.0445 40.6679 42.1076 40.7871C43.1907 42.8344 44.3123 43.3638 46.6643 42.9676C47.0709 42.8975 47.4845 42.8449 47.8981 42.8379C48.4029 42.8309 48.7288 43.0728 48.7043 43.6267C48.6693 44.4085 48.6798 45.1973 48.5606 45.9651C48.5185 46.2385 48.182 46.6347 47.9226 46.6802C46.0404 47.0168 44.1546 47.0694 42.3424 46.3051C41.2804 45.8564 40.6494 44.9835 40.2008 43.9738C39.8082 43.0974 39.4682 42.1999 39.0896 41.3164C39.002 41.1131 38.8618 40.9343 38.7461 40.745C38.6866 40.759 38.6235 40.7731 38.5639 40.7836H38.5604Z" fill="#131B25"/>
<path d="M44.8942 38.5301C44.8942 37.6712 44.9047 36.8087 44.8907 35.9498C44.8837 35.4906 45.101 35.3188 45.5392 35.3328C46.1876 35.3503 46.8396 35.3293 47.488 35.3574C48.154 35.3889 48.487 35.6904 48.494 36.339C48.508 37.906 48.4835 39.4696 48.466 41.0367C48.459 41.6116 48.112 41.9762 47.5827 42.0533C46.9062 42.1515 46.2122 42.176 45.5252 42.162C45.094 42.155 44.8557 41.8325 44.8487 41.4083C44.8311 40.4512 44.8452 39.4906 44.8452 38.5336C44.8627 38.5336 44.8767 38.5336 44.8942 38.5336V38.5301Z" fill="#131B25"/>
<path d="M46.0567 35.0329C45.992 35.0234 45.926 35.0193 45.8629 35.0035C45.6917 34.9609 45.5417 34.8817 45.4437 34.7322C45.3343 34.5652 45.3265 34.3871 45.401 34.2047C45.4567 34.0684 45.5464 33.9559 45.6625 33.8646C45.828 33.7345 45.964 33.5802 46.0721 33.4019C46.1372 33.2943 46.2229 33.2069 46.3341 33.143C46.6641 32.9536 47.0915 33.0463 47.3069 33.3567C47.3368 33.3997 47.3594 33.4474 47.385 33.4932C47.4595 33.6264 47.5623 33.7339 47.6888 33.8214C47.8178 33.9107 47.9223 34.0216 47.989 34.1637C48.0643 34.3242 48.0825 34.487 48.0077 34.6531C47.941 34.8011 47.8244 34.8976 47.6755 34.9606C47.581 35.0006 47.4822 35.0232 47.3793 35.0289C47.3714 35.0294 47.3634 35.0315 47.3555 35.0328H47.2486C47.243 35.0317 47.2375 35.0299 47.232 35.0295C47.1191 35.0229 47.0102 34.9977 46.9028 34.9639C46.7944 34.9299 46.6836 34.9225 46.5723 34.9474C46.5063 34.9622 46.4423 34.9856 46.3763 34.9998C46.3095 35.0142 46.2412 35.022 46.1735 35.0327H46.0567V35.0329Z" fill="#131B25"/>
<path d="M47.1078 31.6934C47.2732 31.7171 47.3897 31.8149 47.4958 31.9276C47.583 32.0201 47.6494 32.1251 47.6962 32.2413C47.792 32.4793 47.7156 32.7904 47.5219 32.9519C47.3692 33.0794 47.1364 33.076 46.9899 32.9419C46.8647 32.8274 46.8016 32.685 46.7888 32.5238C46.7746 32.3448 46.788 32.1664 46.8282 31.9906C46.8447 31.9187 46.8704 31.8501 46.9145 31.7885C46.952 31.7362 47.0021 31.704 47.0688 31.6966C47.0715 31.6963 47.074 31.6945 47.0767 31.6934C47.087 31.6934 47.0974 31.6934 47.1077 31.6934L47.1078 31.6934Z" fill="#131B25"/>
<path d="M44.875 33.2109C44.8834 33.1497 44.8878 33.0876 44.9012 33.0275C44.9251 32.9201 44.9671 32.8193 45.0411 32.7349C45.0823 32.6878 45.1332 32.655 45.1983 32.6485C45.2529 32.643 45.3009 32.6611 45.3465 32.6876C45.418 32.7293 45.4688 32.7915 45.5174 32.8555C45.6175 32.9875 45.6935 33.1315 45.7333 33.292C45.7646 33.4182 45.7509 33.5406 45.6918 33.6575C45.6164 33.8065 45.4517 33.8739 45.2817 33.8238C45.1546 33.7862 45.0606 33.7045 44.9865 33.6C44.9228 33.5103 44.8855 33.4101 44.8787 33.3C44.8783 33.2944 44.8763 33.289 44.8751 33.2835C44.8751 33.2592 44.8751 33.235 44.8751 33.2108L44.875 33.2109Z" fill="#131B25"/>
<path d="M48.5325 33.2776C48.5242 33.3257 48.521 33.3754 48.5064 33.4217C48.4523 33.5931 48.3474 33.7267 48.1785 33.8019C48.061 33.8543 47.9391 33.8574 47.8277 33.7826C47.7383 33.7226 47.6906 33.6335 47.6697 33.5313C47.6474 33.4223 47.657 33.3144 47.696 33.2104C47.7541 33.0554 47.8335 32.9116 47.9454 32.7867C47.9862 32.7413 48.031 32.6994 48.0876 32.6725C48.1851 32.6263 48.2809 32.6449 48.3549 32.7224C48.4363 32.8077 48.4794 32.9113 48.506 33.0225C48.5174 33.0699 48.5238 33.1186 48.5325 33.1667L48.5325 33.2776Z" fill="#131B25"/>
<path d="M46.6228 32.379C46.6285 32.489 46.6181 32.5971 46.5782 32.7012C46.5411 32.7978 46.4891 32.8856 46.4043 32.9515C46.2573 33.0657 46.0631 33.0845 45.8976 32.9567C45.7739 32.8612 45.7142 32.7326 45.6836 32.5882C45.653 32.4442 45.6754 32.3069 45.7411 32.1751C45.8249 32.0071 45.9431 31.8667 46.1056 31.7623C46.1536 31.7314 46.2059 31.7087 46.2632 31.6983C46.3681 31.6794 46.4497 31.7149 46.5049 31.8026C46.5485 31.8718 46.5704 31.9481 46.5876 32.0262C46.6133 32.1426 46.6174 32.2608 46.6228 32.379Z" fill="#131B25"/>
<path fill-rule="evenodd" clip-rule="evenodd" d="M109.307 42.5446C108.27 42.2922 107.579 41.6681 107.271 40.5919L107.274 40.6024C108.645 39.8662 109.272 38.6918 109.314 37.1878C109.328 36.5813 109.332 35.9713 109.314 35.3648C109.265 33.6224 108.375 32.4796 106.668 32.0764C104.95 31.6697 103.215 31.7469 101.498 32.0694C100.236 32.3043 99.7837 32.8547 99.8013 34.1378C99.8095 34.6782 99.8444 35.2179 99.8793 35.7571C99.9192 36.3722 99.959 36.9869 99.959 37.6015C99.9553 38.8769 99.9314 40.1524 99.9074 41.4279C99.8857 42.5819 99.864 43.7359 99.8574 44.8899C99.8503 46.2011 100.404 46.7409 101.733 46.769C102.122 46.776 102.525 46.7164 102.9 46.6147C103.636 46.4184 104.102 45.9416 104.13 45.1528C104.15 44.6251 104.145 44.0974 104.141 43.5281C104.139 43.2729 104.137 43.0094 104.137 42.7339C104.261 42.9496 104.378 43.1561 104.492 43.3561C104.763 43.832 105.013 44.2707 105.269 44.7076C105.998 45.9416 107.078 46.6638 108.515 46.7865C110.941 46.9899 113.363 47.0004 115.778 46.6708C117.348 46.457 118.154 45.9557 117.99 44.0135C117.912 43.1125 117.52 42.6743 116.609 42.6848C116.134 42.6896 115.662 42.7341 115.19 42.7785C114.975 42.7988 114.759 42.8191 114.544 42.8355C112.784 42.9688 111.032 42.9582 109.307 42.5446ZM105.126 34.7155C105.279 34.7411 105.386 34.8465 105.484 34.9679C105.565 35.0675 105.626 35.1806 105.67 35.3059C105.758 35.5623 105.688 35.8973 105.509 36.0714C105.367 36.2087 105.152 36.2051 105.016 36.0606C104.901 35.9372 104.842 35.7838 104.83 35.6102C104.817 35.4174 104.83 35.2252 104.867 35.0357C104.882 34.9583 104.906 34.8844 104.947 34.818C104.981 34.7616 105.028 34.727 105.089 34.719C105.091 34.7187 105.093 34.7178 105.094 34.7168L105.097 34.7156H105.125L105.126 34.7155ZM104.104 38.127L104.104 38.127C104.066 38.1218 104.028 38.1167 103.991 38.1063C103.846 38.0652 103.719 37.9889 103.636 37.8448C103.543 37.6839 103.537 37.5123 103.6 37.3366C103.647 37.2053 103.723 37.0969 103.822 37.0089C103.962 36.8835 104.077 36.7349 104.169 36.563C104.224 36.4593 104.297 36.3752 104.391 36.3136C104.671 36.1311 105.033 36.2204 105.216 36.5195C105.234 36.5489 105.249 36.5806 105.263 36.6123L105.263 36.6123L105.263 36.6124L105.263 36.6124C105.27 36.6254 105.276 36.6383 105.282 36.6511C105.345 36.7794 105.432 36.8829 105.539 36.9673C105.649 37.0533 105.737 37.1602 105.794 37.297C105.858 37.4518 105.873 37.6086 105.81 37.7686C105.753 37.9112 105.654 38.0042 105.528 38.0649C105.448 38.1034 105.364 38.1252 105.277 38.1307C105.273 38.131 105.268 38.132 105.264 38.133L105.257 38.1344H105.166L105.161 38.1332C105.158 38.1324 105.155 38.1315 105.152 38.1313C105.056 38.1249 104.964 38.1007 104.873 38.0681C104.781 38.0353 104.687 38.0282 104.593 38.0522C104.566 38.059 104.539 38.0679 104.513 38.0767L104.513 38.0767L104.513 38.0767C104.484 38.0862 104.456 38.0956 104.427 38.1027C104.387 38.1123 104.348 38.1189 104.308 38.1254C104.29 38.1283 104.272 38.1312 104.255 38.1344H104.156V38.1345C104.139 38.1317 104.121 38.1293 104.104 38.127L104.104 38.127L104.104 38.127L104.104 38.127L104.104 38.127ZM103.081 36.2978C103.079 36.3181 103.077 36.3383 103.074 36.3584L103.074 36.3583V36.4355L103.076 36.441L103.076 36.441C103.077 36.4449 103.078 36.4489 103.078 36.4529C103.084 36.5699 103.119 36.6762 103.18 36.7715C103.25 36.8824 103.338 36.9692 103.458 37.0091C103.619 37.0623 103.774 36.9908 103.845 36.8326C103.901 36.7084 103.914 36.5785 103.885 36.4445C103.847 36.2741 103.775 36.1212 103.681 35.9811C103.635 35.9131 103.587 35.847 103.519 35.8028C103.476 35.7747 103.431 35.7555 103.38 35.7612C103.318 35.7682 103.27 35.803 103.231 35.853C103.161 35.9427 103.122 36.0496 103.099 36.1636C103.09 36.2077 103.086 36.2528 103.081 36.2978ZM106.334 36.4376C106.332 36.4538 106.33 36.4702 106.328 36.4866C106.323 36.5224 106.319 36.5583 106.31 36.5924C106.259 36.7767 106.16 36.9203 106 37.0012C105.889 37.0576 105.774 37.0609 105.669 36.9804C105.585 36.9159 105.539 36.8202 105.52 36.7102C105.499 36.5931 105.508 36.4771 105.545 36.3653C105.599 36.1987 105.674 36.0441 105.78 35.9099C105.819 35.861 105.861 35.816 105.914 35.7871C106.006 35.7374 106.097 35.7574 106.167 35.8407C106.243 35.9324 106.284 36.0438 106.309 36.1633C106.317 36.1982 106.322 36.2337 106.327 36.2693V36.2693C106.329 36.2857 106.332 36.302 106.334 36.3184L106.334 36.4376ZM104.541 35.8013C104.578 35.6892 104.587 35.5727 104.582 35.4541L104.581 35.4311C104.576 35.3115 104.572 35.1919 104.549 35.0741C104.533 34.99 104.513 34.9078 104.473 34.8332C104.422 34.7388 104.346 34.7004 104.249 34.7208C104.196 34.732 104.148 34.7565 104.104 34.7898C103.953 34.9023 103.844 35.0535 103.766 35.2345C103.706 35.3765 103.685 35.5244 103.713 35.6796C103.741 35.8352 103.797 35.9737 103.911 36.0766C104.064 36.2143 104.244 36.1939 104.38 36.0709C104.458 36 104.506 35.9053 104.541 35.8013Z" fill="#131B25"/>
<path fill-rule="evenodd" clip-rule="evenodd" d="M4.00351 33.5834C4.38206 32.4755 5.2233 31.9637 6.34145 31.9497C7.7365 31.9357 9.14557 31.9216 10.5301 32.0689C11.834 32.2091 12.3633 32.8682 12.3353 34.1758C12.3244 34.63 12.221 35.0814 12.1175 35.5335L12.1174 35.5336C12.0548 35.8073 11.992 36.0814 11.9497 36.3564C11.9147 36.5913 11.9041 36.9068 12.0268 37.0821C13.3763 39.0067 12.4229 41.5519 10.0815 42.0217C8.5497 42.3302 6.9864 42.3547 5.43712 42.0217C4.76413 41.878 4.23835 41.5554 4 40.8788V33.5834H4.00351ZM8.79991 34.5456C8.84468 34.6824 8.86958 34.822 8.85751 34.9664C8.8463 35.1003 8.81402 35.2281 8.73475 35.3391C8.59735 35.5314 8.37031 35.6193 8.12698 35.5128C7.94522 35.4332 7.82893 35.291 7.74223 35.1191C7.65573 34.9476 7.63525 34.7673 7.66873 34.5795C7.71148 34.3401 7.80524 34.1243 7.96461 33.9391C8.01171 33.8843 8.06671 33.8385 8.13212 33.8065C8.25173 33.748 8.36217 33.766 8.45887 33.8582C8.53523 33.9311 8.58792 34.02 8.63563 34.1127C8.70243 34.2426 8.74688 34.3807 8.79133 34.5189L8.79991 34.5456ZM8.93685 39.2602C8.94892 39.1159 8.92403 38.9762 8.87926 38.8394C8.87639 38.8305 8.87353 38.8216 8.87067 38.8127C8.82622 38.6746 8.78177 38.5364 8.71498 38.4066C8.66726 38.3138 8.61457 38.2249 8.53821 38.1521C8.44151 38.0598 8.33108 38.0419 8.21146 38.1003C8.14605 38.1323 8.09105 38.1782 8.04396 38.2329C7.88458 38.4181 7.79083 38.634 7.74808 38.8733C7.71459 39.0611 7.73507 39.2415 7.82157 39.4129C7.90827 39.5848 8.02456 39.7271 8.20633 39.8066C8.44966 39.9131 8.67669 39.8253 8.8141 39.6329C8.89337 39.522 8.92564 39.3941 8.93685 39.2602Z" fill="#131B25"/>
<path fill-rule="evenodd" clip-rule="evenodd" d="M6.21957 42.9337C5.34678 42.7899 4.4775 42.7023 4.00781 43.7119L4.01482 43.7154V45.7172C4.33379 46.4219 4.94019 46.7444 5.65874 46.7689C5.86514 46.7763 6.07159 46.7841 6.27807 46.7919C7.64959 46.8439 9.02237 46.8959 10.3872 46.8075C11.7332 46.7234 13.1002 46.5165 14.3901 46.1414C15.9534 45.6892 16.6439 44.5673 16.6755 42.9477C16.6776 42.8156 16.6748 42.683 16.672 42.5503C16.6657 42.2498 16.6594 41.9494 16.7105 41.6576C16.7491 41.4402 16.9769 41.1107 17.1416 41.0966C17.3414 41.0791 17.6849 41.2965 17.755 41.4893C17.8882 41.8644 17.9198 42.2921 17.9128 42.6953C17.9044 43.0984 17.8775 43.5016 17.8506 43.9047C17.8213 44.343 17.7921 44.7812 17.7866 45.2194C17.7796 46.0853 18.3054 46.6708 19.1711 46.7689C19.6969 46.825 20.2332 46.832 20.7625 46.79C21.7334 46.7164 22.1645 46.2255 22.1645 45.265C22.164 44.8837 22.1636 44.5024 22.1632 44.1211C22.1606 41.8345 22.158 39.5479 22.14 37.2614C22.133 36.2797 22.1085 35.2981 22.0243 34.3235C21.9332 33.2788 21.3794 32.5251 20.3594 32.171C19.2474 31.7837 18.1085 31.8728 16.9754 31.9615C16.7548 31.9788 16.5344 31.996 16.3144 32.0097C15.9148 32.0343 15.4977 32.1815 15.1367 32.3638C13.8783 32.9914 13.5734 34.1728 13.4998 35.4208C13.4342 36.5287 13.3978 37.641 13.3614 38.7529C13.3414 39.365 13.3214 39.9771 13.2965 40.5883C13.2544 41.6015 12.6375 42.1904 11.7612 42.555C11.4002 42.7058 11.0146 42.811 10.6326 42.8951C9.1639 43.2176 7.69524 43.172 6.21957 42.9337ZM18.1423 34.6357C18.2953 34.6613 18.4031 34.7667 18.5012 34.8881C18.5819 34.9878 18.6432 35.1008 18.6865 35.2261C18.7752 35.4825 18.7045 35.8176 18.5254 35.9916C18.3841 36.1289 18.1687 36.1253 18.0332 35.9808C17.9174 35.8574 17.859 35.704 17.8472 35.5304C17.834 35.3376 17.8465 35.1454 17.8837 34.9559C17.8989 34.8785 17.9227 34.8046 17.9634 34.7383C17.9981 34.6818 18.0445 34.6472 18.1062 34.6392C18.1079 34.6389 18.1095 34.638 18.1111 34.6371L18.1135 34.6358H18.1422L18.1423 34.6357ZM17.1725 38.0547C17.1553 38.0519 17.138 38.0495 17.1207 38.0472C17.0828 38.042 17.0449 38.0369 17.0082 38.0265C16.8631 37.9854 16.7358 37.9091 16.6528 37.765C16.56 37.6041 16.5534 37.4326 16.6166 37.2568C16.6638 37.1255 16.7398 37.0171 16.8383 36.9291C16.9786 36.8037 17.0939 36.6551 17.1855 36.4832C17.2408 36.3796 17.3134 36.2954 17.4077 36.2339C17.6874 36.0513 18.0498 36.1406 18.2324 36.4397C18.2504 36.4691 18.2653 36.5008 18.2801 36.5325C18.2862 36.5455 18.2923 36.5585 18.2986 36.5713C18.3618 36.6996 18.449 36.8031 18.5562 36.8875C18.6656 36.9735 18.7542 37.0804 18.8107 37.2172C18.8745 37.372 18.89 37.5288 18.8265 37.6888C18.77 37.8314 18.6711 37.9244 18.5449 37.9851C18.4648 38.0236 18.381 38.0454 18.2938 38.0509C18.2893 38.0512 18.2848 38.0522 18.2803 38.0533L18.2737 38.0547H18.1829L18.1782 38.0534C18.1751 38.0526 18.172 38.0517 18.1689 38.0515C18.0732 38.0451 17.9808 38.0209 17.8898 37.9883C17.7979 37.9555 17.7039 37.9484 17.6097 37.9724C17.5826 37.9793 17.5559 37.9881 17.5293 37.9969L17.5293 37.9969C17.5008 38.0064 17.4723 38.0158 17.4434 38.0229C17.4042 38.0325 17.3643 38.0391 17.3244 38.0456C17.3067 38.0485 17.2891 38.0514 17.2715 38.0546H17.1725V38.0547ZM16.0978 36.218L16.0977 36.2182C16.0956 36.2383 16.0935 36.2585 16.0911 36.2786L16.0911 36.2785V36.3557L16.0924 36.3612C16.0933 36.3651 16.0943 36.3691 16.0945 36.3731C16.101 36.4901 16.1362 36.5964 16.1963 36.6917C16.2663 36.8027 16.355 36.8894 16.475 36.9293C16.6355 36.9825 16.791 36.911 16.8622 36.7528C16.918 36.6286 16.9309 36.4987 16.9014 36.3647C16.8638 36.1943 16.7921 36.0414 16.6975 35.9013C16.6517 35.8333 16.6037 35.7672 16.5362 35.723C16.4932 35.6949 16.4478 35.6757 16.3963 35.6814C16.3348 35.6884 16.2868 35.7232 16.2479 35.7732C16.178 35.8629 16.1384 35.9698 16.1158 36.0838C16.1071 36.1279 16.1024 36.173 16.0978 36.218ZM19.3511 36.3578C19.3486 36.374 19.3466 36.3903 19.3446 36.4067L19.3446 36.4068C19.3402 36.4426 19.3358 36.4785 19.3264 36.5126C19.2753 36.6969 19.1763 36.8405 19.0169 36.9214C18.9059 36.9778 18.7909 36.9811 18.6857 36.9007C18.6013 36.8362 18.5562 36.7404 18.5365 36.6305C18.5155 36.5134 18.5245 36.3973 18.5613 36.2856C18.6162 36.1189 18.6912 35.9643 18.7968 35.8301C18.8353 35.7812 18.8776 35.7362 18.931 35.7073C19.0231 35.6576 19.1135 35.6776 19.1834 35.7609C19.2602 35.8526 19.3009 35.964 19.326 36.0835C19.3334 36.1184 19.3385 36.1539 19.3437 36.1895L19.3437 36.1895C19.346 36.2059 19.3484 36.2222 19.351 36.2386L19.3511 36.3578ZM17.5574 35.7215C17.5944 35.6094 17.604 35.4929 17.5988 35.3743L17.5979 35.3513C17.5932 35.2317 17.5885 35.1121 17.5661 34.9943C17.5502 34.9102 17.53 34.828 17.4896 34.7534C17.4386 34.659 17.3631 34.6207 17.2661 34.641C17.213 34.6522 17.1647 34.6767 17.1203 34.71C16.97 34.8225 16.8606 34.9737 16.7831 35.1547C16.7224 35.2967 16.7017 35.4446 16.7299 35.5998C16.7582 35.7554 16.8135 35.8939 16.9279 35.9968C17.081 36.1345 17.2606 36.1141 17.3966 35.9911C17.475 35.9202 17.5232 35.8255 17.5574 35.7215Z" fill="#131B25"/>
<path fill-rule="evenodd" clip-rule="evenodd" d="M29.5074 31.7303C29.4602 31.7206 29.4131 31.7109 29.366 31.7012H26.639C26.4412 31.7385 26.2423 31.7718 26.0436 31.805C25.6258 31.875 25.2084 31.9449 24.8023 32.0517C23.8384 32.3112 23.3932 32.9001 23.3476 33.8817C23.3367 34.0947 23.3407 34.3099 23.3446 34.5238C23.3458 34.5845 23.3469 34.6451 23.3476 34.7056C23.3558 35.2492 23.3661 35.7924 23.3764 36.3356C23.4013 37.6525 23.4262 38.9688 23.4213 40.2867C23.4176 41.1658 23.3919 42.0459 23.3663 42.9264C23.3428 43.7313 23.3193 44.5367 23.3126 45.342C23.3056 46.3342 23.6841 46.7584 24.6761 46.8285C25.3175 46.874 25.9765 46.8039 26.618 46.7233C27.1297 46.6602 27.5223 46.3377 27.5819 45.8188C27.6419 45.2953 27.6425 44.7633 27.6431 44.2327C27.6432 44.0811 27.6434 43.9296 27.645 43.7785C27.6496 43.3227 27.6481 42.867 27.6465 42.4112C27.6458 42.1834 27.645 41.9555 27.645 41.7276C27.6669 41.7218 27.6894 41.7153 27.7122 41.7088C27.7443 41.6996 27.777 41.6902 27.8097 41.682C27.8728 41.8364 27.9432 41.9891 28.0137 42.1418C28.1704 42.4814 28.3271 42.821 28.4021 43.179C28.5586 43.9321 28.659 44.6956 28.7594 45.4583C28.7893 45.6861 28.8193 45.9139 28.8507 46.1413C28.9244 46.6882 29.2328 46.9301 29.7761 46.9091C29.9564 46.9024 30.1366 46.8998 30.3169 46.8972C30.6098 46.893 30.9028 46.8887 31.1957 46.867C32.1351 46.8004 32.4435 46.5059 32.5592 45.5734C32.773 43.8451 32.4225 42.2605 31.3359 40.8652C31.2474 40.7501 31.1644 40.6294 31.0782 40.5039C31.0279 40.4307 30.9765 40.356 30.9223 40.2797C31.0168 40.21 31.1091 40.1424 31.1995 40.076C31.441 39.8989 31.6698 39.731 31.8967 39.5575C32.6889 38.9511 33.1621 38.1447 33.2708 37.1736C33.3479 36.497 33.3374 35.7994 33.2672 35.1228C33.1025 33.5382 31.8932 32.2446 30.3369 31.9045C30.0615 31.8446 29.7836 31.7873 29.5074 31.7303ZM27.9558 38.3495C27.9426 38.3239 27.9294 38.2991 27.9163 38.2749C27.8172 38.2398 27.7186 38.1616 27.625 38.0344C27.4151 37.7493 27.3121 37.3645 27.2579 36.9318C27.2038 36.5002 27.2389 36.0883 27.3469 35.6923C27.4846 35.1875 27.6808 34.7654 27.9522 34.4505C28.0323 34.3574 28.1198 34.2887 28.2161 34.257C28.3921 34.1991 28.53 34.3049 28.6246 34.5672C28.6992 34.7743 28.7375 35.0028 28.768 35.2369C28.7755 35.2944 28.782 35.3521 28.7877 35.4099C28.8074 35.5592 28.8177 35.7144 28.819 35.8722C28.8243 35.9913 28.8281 36.1106 28.8319 36.23C28.8326 36.2514 28.8333 36.2728 28.834 36.2942C28.8456 36.6241 28.8302 36.9484 28.765 37.2611C28.7045 37.5509 28.6186 37.8149 28.4772 38.0133C28.3408 38.2048 28.1791 38.3079 28.0142 38.2958C27.995 38.3144 27.9756 38.3323 27.9558 38.3495Z" fill="#131B25"/>
<path fill-rule="evenodd" clip-rule="evenodd" d="M93.0064 31.7252C92.958 31.7173 92.9096 31.7093 92.8615 31.7012H92.2656C92.1768 31.714 92.088 31.7288 91.9992 31.7436C91.8216 31.7732 91.644 31.8028 91.4664 31.8169C89.6612 31.9606 89.1425 32.5566 89.2757 34.341C89.3984 36.0203 89.6227 36.185 91.3157 36.0939C92.1955 36.0483 93.0823 36.1009 93.9586 36.185C94.3897 36.2271 94.7612 36.5356 94.7192 37.0194C94.6736 37.5312 94.2845 37.7871 93.7833 37.8362C93.5061 37.8638 93.228 37.8807 92.9499 37.8977C92.697 37.9131 92.4441 37.9285 92.192 37.9519C90.5831 38.0992 89.4194 38.9195 89.3283 40.1851C89.2161 41.7031 89.2126 43.2386 89.2967 44.7601C89.3633 45.9625 89.9837 46.6216 91.2035 46.7128C92.928 46.8425 94.6701 46.8705 96.3982 46.7864C97.6635 46.7268 98.2629 46.0747 98.4311 44.8092C98.5784 43.7048 98.6765 42.583 98.6625 41.4717C98.638 39.554 98.5749 37.6329 98.4031 35.7258C98.2699 34.2393 97.5549 32.9878 96.1037 32.4058C95.5236 32.1728 94.8915 32.0641 94.2584 31.9553C93.9772 31.907 93.6958 31.8586 93.4188 31.7993C93.2837 31.7708 93.1449 31.748 93.0064 31.7252ZM94.8378 43.4503C94.9198 43.0813 94.9392 42.6987 94.9249 42.3094C94.924 42.2842 94.9231 42.2589 94.9223 42.2337C94.9091 41.8411 94.8959 41.4485 94.8425 41.0619C94.8044 40.7857 94.7564 40.5161 94.6629 40.2718C94.5443 39.9624 94.3713 39.8376 94.1504 39.906C94.0296 39.9435 93.9198 40.0246 93.8192 40.1344C93.4785 40.5061 93.2321 41.0043 93.059 41.6C92.9233 42.0672 92.8791 42.5533 92.9468 43.0625C93.0147 43.573 93.1437 44.027 93.4069 44.3633C93.7592 44.8133 94.1686 44.7439 94.4764 44.3379C94.6539 44.1038 94.7618 43.7923 94.8378 43.4503Z" fill="#131B25"/>
<path fill-rule="evenodd" clip-rule="evenodd" d="M59.5177 31.7344C59.5025 31.7226 59.4871 31.7107 59.4709 31.7004V31.6934H58.7594C58.7176 31.7056 58.6758 31.7187 58.6339 31.7319C58.5318 31.7639 58.4292 31.7962 58.3248 31.8161C57.1225 32.0334 56.6913 32.5137 56.6913 33.7232C56.6933 34.6055 56.7061 35.4877 56.7188 36.37C56.729 37.0758 56.7393 37.7817 56.7439 38.4875C56.7464 38.7286 56.7247 38.9714 56.703 39.2136C56.6938 39.3165 56.6846 39.4192 56.6773 39.5217C56.6498 39.5254 56.6214 39.5281 56.5925 39.5308C56.5661 39.5333 56.5394 39.5359 56.5126 39.5392C56.4504 39.3117 56.3877 39.0842 56.325 38.8566C56.1509 38.2248 55.9765 37.5921 55.8116 36.9555L55.7863 36.8569C55.5073 35.7681 55.2291 34.6824 54.9773 33.59C54.7705 32.696 54.3394 32.0054 53.428 31.6934H51.8858C50.5188 32.0509 49.986 32.9519 49.979 34.3297C49.9592 37.5802 49.8895 40.8337 49.82 44.0846C49.8157 44.2838 49.8115 44.483 49.8072 44.6821C49.7722 46.4666 50.0771 47.0205 52.2608 46.6769C53.5437 46.4736 54.073 45.8741 54.0309 44.6015C53.9947 43.4955 53.9252 42.3911 53.8557 41.2861C53.8243 40.787 53.7929 40.2877 53.7645 39.7881C53.7599 39.7137 53.7707 39.6377 53.7815 39.5612C53.787 39.5224 53.7926 39.4835 53.7961 39.4446C54.066 39.8512 54.2448 40.2614 54.3779 40.6856C54.8827 42.3123 55.3804 43.9424 55.8676 45.5761C56.106 46.3719 56.6493 46.7926 57.4555 46.8487C57.6096 46.8589 57.7646 46.8673 57.9199 46.8722C57.8922 46.7065 57.9182 46.5274 58.0127 46.3416C56.8868 46.0206 58.117 44.4527 58.5456 45.2373C57.9786 44.0236 59.451 43.5862 59.6357 44.6242C59.8877 44.2167 60.308 44.1303 60.6741 44.2998C60.6705 43.5872 60.666 42.8743 60.6616 42.1612C60.6516 40.575 60.6417 38.9878 60.6417 37.4007C60.6452 36.03 60.6802 34.6557 60.7188 33.285C60.7433 32.2788 60.5996 32.0685 59.6147 31.7915C59.5794 31.7821 59.5488 31.7585 59.5177 31.7344Z" fill="#131B25"/>
<path d="M64.5769 3.73656C64.5365 3.6525 64.4582 3.60552 64.3923 3.54618C64.2637 3.43245 64.1368 3.31624 64.0387 3.17366C63.9926 3.10608 63.9316 3.03602 63.9818 2.94949C64.0255 2.87449 64.1104 2.88355 64.1862 2.88273C64.3544 2.88108 64.5126 2.92888 64.6659 2.98822C66.2153 3.59398 67.2505 4.65715 67.6197 6.31207C67.6617 6.50163 67.6626 6.6953 67.6378 6.88569C67.5867 7.2887 67.2332 7.44364 66.8936 7.2137C66.7214 7.09749 66.5837 6.94585 66.4609 6.77772C66.0365 6.19669 65.7695 5.53241 65.4571 4.89286C65.4126 4.80055 65.3648 4.70825 65.3054 4.62583C65.237 4.53023 65.1414 4.48325 65.0178 4.52446C64.9164 4.55825 64.8695 4.60276 64.9296 4.71814C65.453 5.71867 65.659 6.80986 65.8288 7.90929C66.1115 9.7447 66.1988 11.5949 66.2466 13.4485C66.2986 15.4265 66.5021 17.3905 66.8054 19.3454C66.92 20.0838 67.0337 20.8223 67.1507 21.5607C67.1623 21.6316 67.1491 21.7338 67.2208 21.7618C67.2999 21.7931 67.3477 21.6984 67.398 21.6481C68.0565 20.9896 68.4842 20.2206 68.5205 19.2695C68.5353 18.8805 68.4579 18.5055 68.3375 18.1371C68.3244 18.0959 68.2617 18.0514 68.3186 18.0135C68.3746 17.9756 68.415 18.0226 68.448 18.0729C69.137 19.1286 69.3579 20.2338 68.8164 21.4256C68.5353 22.0453 68.0895 22.5357 67.5958 22.9873C67.4788 23.0937 67.4343 23.1868 67.4656 23.3566C67.7301 24.7923 68.0202 26.223 68.3046 27.6546C68.3375 27.8186 68.4051 27.8713 68.5749 27.8787C69.3826 27.9134 70.1548 28.0823 70.824 28.5677C71.1141 28.7779 71.3416 29.0416 71.3523 29.4306C71.363 29.8238 71.1867 30.099 70.8224 30.2532C70.407 30.4287 69.9653 30.4979 69.5227 30.5309C68.2881 30.6224 67.0535 30.568 65.8189 30.5078C64.7088 30.4534 63.6019 30.3636 62.4934 30.2869C62.0624 30.2573 61.3973 30.2063 60.9663 30.1782C60.7668 30.165 61.1014 30.0282 61.0841 29.9408C61.0602 29.8172 60.7461 29.8035 60.8014 29.8074C61.6635 29.8675 62.9508 29.9614 63.8129 30.0207C64.1821 30.0463 64.5522 30.0652 64.9214 30.0941C65.0327 30.1023 65.064 30.0776 65.0467 29.9606C64.7178 27.7337 64.8093 25.4969 64.9082 23.261C64.9313 22.7401 64.9675 22.2192 64.9997 21.6992C65.0022 21.6547 64.9848 21.6036 65.0343 21.5615C65.1068 21.6069 65.0821 21.6827 65.0854 21.7437C65.2445 24.1956 65.4208 26.6474 65.4225 29.1067C65.4225 29.3952 65.4208 29.6837 65.4134 29.9713C65.4109 30.0784 65.4324 30.1254 65.5568 30.1337C66.7766 30.2161 67.9972 30.2416 69.2186 30.2021C69.6628 30.1872 70.1078 30.1402 70.5356 30.0043C71.0688 29.8345 71.176 29.368 70.768 28.9806C70.3048 28.5414 69.7213 28.3658 69.1114 28.2752C68.2996 28.1548 67.4977 28.2892 66.6975 28.4079C66.6777 28.4112 66.6571 28.4112 66.6258 28.4144C66.6546 28.3032 66.7453 28.2645 66.8252 28.2175C67.1334 28.0353 67.4738 27.9529 67.8233 27.9224C67.993 27.9076 68.0038 27.8524 67.97 27.7048C67.5727 26.0145 67.1755 24.325 66.8334 22.6222C66.4131 20.5289 66.0324 18.4297 65.837 16.3017C65.7431 15.2748 65.7373 14.2455 65.7579 13.2152C65.7925 11.4779 65.7653 9.74141 65.5329 8.01561C65.4035 7.05464 65.2033 6.11015 64.7953 5.2217C64.7706 5.16731 64.7632 5.07995 64.7013 5.07253C64.6181 5.06264 64.6107 5.15989 64.5794 5.21593C64.4978 5.35934 64.4096 5.50027 64.3469 5.65109C64.1854 6.04174 63.8755 6.17938 63.4808 6.18679C62.8824 6.19751 62.289 6.14311 61.703 6.02196C61.3132 5.94119 61.094 5.58516 61.1896 5.19945C61.2341 5.02143 61.2918 4.84506 61.3585 4.67363C61.4047 4.55413 61.3907 4.48573 61.2629 4.43628C61.0783 4.36457 60.8995 4.21622 60.7173 4.21458C60.5187 4.21293 60.4816 4.48078 60.3646 4.62171C60.1297 4.9044 59.8124 4.96786 59.4811 4.98846C58.8646 5.02555 58.263 4.94396 57.6902 4.70413C57.2138 4.50468 57.0259 4.13793 57.1289 3.63272C57.1949 3.30965 57.2913 2.99646 57.4182 2.69235C57.607 2.23906 57.9869 2.02643 58.4591 2.14263C59.1267 2.30582 59.763 2.56295 60.391 2.83905C60.6085 2.93465 60.7429 3.12091 60.8105 3.34756C60.8385 3.44234 60.8904 3.49673 60.9802 3.53382C61.1764 3.61541 61.3693 3.70442 61.5621 3.79425C61.6618 3.84041 61.7269 3.84041 61.792 3.72502C61.9948 3.36322 62.1967 3.26761 62.608 3.34179C63.2558 3.45882 63.8953 3.61788 64.534 3.77777C64.5513 3.78107 64.5695 3.78519 64.5868 3.78848C64.5835 3.772 64.5802 3.75552 64.5769 3.73903V3.73656ZM59.1572 4.39507C59.3278 4.38106 59.4984 4.3654 59.669 4.35221C59.7564 4.34562 59.8264 4.30935 59.8808 4.24177C60.0094 4.08024 60.1239 3.90964 60.2047 3.72008C60.2731 3.55937 60.241 3.41761 60.0671 3.34673C59.5042 3.11597 58.9388 2.89097 58.3495 2.73108C58.1633 2.68081 58.0446 2.74345 57.977 2.91982C57.8715 3.19509 57.7792 3.47448 57.7166 3.76293C57.677 3.94343 57.7363 4.06705 57.9152 4.13628C58.3149 4.29205 58.7262 4.38683 59.158 4.39507H59.1572ZM63.1288 5.4467C63.2591 5.4467 63.3893 5.44258 63.5195 5.44835C63.6069 5.45164 63.6571 5.41785 63.6967 5.3412C63.8269 5.08489 63.9579 4.8294 64.0997 4.57885C64.1681 4.45688 64.1335 4.41237 64.0099 4.38518C63.536 4.27968 63.0637 4.17172 62.5915 4.06046C62.4885 4.03656 62.4234 4.05716 62.3764 4.15606C62.2214 4.48408 62.0607 4.8088 61.947 5.15494C61.9025 5.28846 61.9313 5.34038 62.0665 5.35934C62.4192 5.40879 62.772 5.46153 63.1297 5.4467H63.1288Z" fill="#131B25"/>
<path d="M64.6323 9.50467C64.7898 9.87143 64.8582 10.2547 64.7931 10.647C64.6991 11.2123 64.3505 11.5667 63.8016 11.7085C63.2898 11.8403 62.7788 11.8074 62.2835 11.6219C61.8607 11.4637 61.5739 11.1654 61.4206 10.7401C61.4066 10.7014 61.4066 10.6585 61.3415 10.6288C61.1371 10.9296 60.9113 11.2222 60.6253 11.4588C59.6173 12.2912 58.4866 12.606 57.2511 12.0892C55.78 11.4744 55.1182 10.2555 55.5855 8.69864C55.8443 7.83739 56.3075 7.08823 56.8646 6.39181C56.9322 6.30775 57.013 6.23193 57.1242 6.32176C57.2437 6.41819 57.2058 6.52368 57.1242 6.6267C56.6866 7.17806 56.3133 7.76652 56.0578 8.42502C55.8113 9.0588 55.649 9.71731 55.9242 10.3676C56.3198 11.3005 57.069 11.8346 58.0679 11.945C59.319 12.0827 60.2684 11.5329 60.9846 10.5308C61.0802 10.3972 61.086 10.3346 60.9113 10.2571C60.2173 9.94972 59.633 9.51209 59.3017 8.80001C59.1541 8.48354 59.0948 8.14975 59.1039 7.80195C59.1105 7.56954 59.2555 7.42696 59.4261 7.30498C59.8052 7.03301 60.2486 6.93658 60.6953 6.86488C61.6324 6.71488 62.5653 6.74043 63.4901 6.96955C63.7455 7.03301 63.9821 7.1385 64.2013 7.28191C64.4972 7.47559 64.6159 7.74344 64.5376 8.09618C64.3876 8.77199 63.9878 9.2838 63.4678 9.71071C62.9873 10.1047 62.4491 10.3824 61.8195 10.445C61.6992 10.4574 61.7181 10.5225 61.7453 10.6025C61.911 11.0862 62.2835 11.3121 62.7566 11.3986C63.0409 11.4505 63.3343 11.4538 63.617 11.4019C64.1716 11.3005 64.4939 10.8926 64.5854 10.2217C64.6175 9.98598 64.6323 9.74863 64.6323 9.5055V9.50467Z" fill="#131B25"/>
<path d="M56.031 3.32196C56.0326 3.48927 55.9749 3.62196 55.9345 3.75547C55.3873 5.58099 54.9216 7.42629 54.5574 9.29631C54.2483 10.8836 53.992 12.48 53.7909 14.0855C53.5865 15.719 53.4233 17.3574 53.3154 19C53.1497 21.5211 53.0788 24.0463 53.1035 26.5732C53.1052 26.7793 53.1307 26.9845 53.1324 27.1897C53.1324 27.3051 53.1818 27.3405 53.2873 27.3578C53.5873 27.4081 53.6986 27.4633 53.9318 27.6677C53.5362 27.652 53.181 27.6644 52.8266 27.6941C52.2316 27.7444 51.6431 27.8284 51.1 28.1004C50.8758 28.2125 50.6747 28.3526 50.547 28.5759C50.3896 28.8529 50.4316 29.0144 50.7069 29.1718C51.0159 29.3482 51.3621 29.4075 51.7049 29.4677C52.4829 29.6045 53.2725 29.6317 54.0596 29.6688C54.6076 29.6943 55.1574 29.6927 55.7054 29.7158C55.867 29.7223 55.9354 29.6663 55.9741 29.513C56.1801 28.7062 56.2848 27.8853 56.354 27.0578C56.4744 25.6197 56.4966 24.179 56.495 22.7367C56.495 22.7054 56.4801 22.6683 56.5296 22.6329C56.6169 22.7796 56.6079 22.9461 56.6227 23.0986C56.7612 24.4955 56.7579 25.8949 56.6557 27.2935C56.6005 28.0534 56.5139 28.81 56.3087 29.5468C56.2634 29.7083 56.3491 29.7125 56.4678 29.7125C57.5318 29.7125 58.5958 29.7149 59.6598 29.7553C60.0232 29.7693 60.3867 29.7982 60.7501 29.794C60.9504 29.7916 61.2042 29.9291 61.2149 30.0544C61.2289 30.22 60.8383 30.1649 60.7468 30.1583C59.1842 30.0388 57.6183 30.0998 56.054 30.0504C55.2035 30.0232 54.3513 30.0454 53.5016 29.9927C52.595 29.9366 51.6819 29.8995 50.8124 29.5897C50.7934 29.5831 50.7736 29.5765 50.7547 29.569C50.0269 29.2773 49.9074 28.6798 50.4728 28.1276C50.8569 27.7526 51.3497 27.6018 51.8566 27.493C52.0972 27.4411 52.3437 27.404 52.5884 27.3834C52.7524 27.3702 52.8085 27.3183 52.8035 27.1468C52.7615 25.8496 52.7763 24.5524 52.7978 23.2551C52.8621 19.3181 53.1307 15.3959 53.6862 11.4968C54.0175 9.17269 54.4576 6.86833 55.0898 4.60436C55.2315 4.0975 55.4714 3.66646 55.9255 3.37718C55.9527 3.35987 55.9823 3.34586 56.031 3.32031V3.32196Z" fill="#131B25"/>
<path d="M52.4687 4.52733C52.3195 4.5158 52.1555 4.49849 52.0005 4.43915C51.6486 4.30481 51.5275 3.99328 51.6964 3.65619C51.8299 3.38999 52.0492 3.20455 52.289 3.03972C52.7332 2.73478 53.2219 2.51803 53.7222 2.32847C55.1909 1.77216 56.7189 1.4598 58.265 1.21915C58.3936 1.19937 58.5089 1.2208 58.5361 1.36667C58.5642 1.51502 58.4636 1.57766 58.3326 1.59414C57.7004 1.67491 57.0683 1.76227 56.4469 1.9065C56.0727 1.99304 55.7035 2.0977 55.3499 2.24935C55.2098 2.30951 55.0821 2.38781 54.9716 2.4933C54.8398 2.61858 54.8134 2.77434 54.8942 2.92516C54.97 3.06609 55.1208 3.0661 55.2601 3.03395C55.5106 2.97709 55.7332 2.85346 55.9524 2.72489C56.0826 2.64825 56.2046 2.5955 56.3043 2.75786C56.3859 2.89137 56.3299 3.00511 56.142 3.08587C55.1422 3.51691 54.1417 3.94712 53.1412 4.37569C52.9318 4.46552 52.7126 4.51909 52.4695 4.52981L52.4687 4.52733Z" fill="#131B25"/>
<path d="M62.3199 20.8475C62.2631 20.8458 62.2293 20.8104 62.2087 20.7659C62.1708 20.6851 62.1452 20.5986 62.1032 20.5211C62.0537 20.4305 62.0537 20.2871 61.912 20.2813C61.7818 20.2755 61.7595 20.4049 61.7101 20.4881C61.4282 20.967 61.1521 21.4491 60.8711 21.928C60.8282 22.0013 60.8018 22.115 60.6947 22.1068C60.581 22.0977 60.5876 21.9758 60.5637 21.8958C60.4483 21.5019 60.3387 21.1063 60.2315 20.7107C60.2093 20.6283 60.1936 20.5434 60.0947 20.5285C59.9851 20.5112 59.962 20.6068 59.9249 20.6777C59.5747 21.3535 59.2269 22.031 58.8758 22.7068C58.8403 22.7744 58.8296 22.879 58.7167 22.8667C58.6252 22.8568 58.6079 22.7711 58.5791 22.7035C58.2519 21.9271 57.9255 21.1516 57.6016 20.3744C57.5703 20.2986 57.4887 20.2063 57.5835 20.1313C57.6733 20.0596 57.7483 20.1511 57.8208 20.1947C58.1134 20.3728 58.4093 20.5467 58.6945 20.7354C58.8585 20.8434 58.9458 20.8063 59.0282 20.639C59.2318 20.2277 59.4469 19.8222 59.6571 19.4143C59.6884 19.3533 59.7107 19.2783 59.7914 19.2733C59.8837 19.2676 59.9101 19.3475 59.9472 19.4143C60.1639 19.8115 60.3832 20.2079 60.6024 20.6044C60.642 20.6761 60.6757 20.7634 60.7779 20.7519C60.8785 20.7403 60.8941 20.6464 60.9197 20.5697C61.0549 20.1676 61.1925 19.7662 61.3194 19.3623C61.3697 19.2033 61.4406 19.1604 61.5856 19.2577C61.7224 19.3492 61.8683 19.4266 62.0035 19.5206C62.1386 19.6137 62.2441 19.6121 62.3603 19.4827C62.5021 19.3244 62.6612 19.1819 62.8144 19.0351C62.8515 18.9997 62.8903 18.9453 62.9546 18.9841C63.0188 19.0228 63.0205 19.0838 62.9974 19.1472C62.8029 19.6821 62.6092 20.217 62.4139 20.7519C62.3974 20.798 62.3727 20.8392 62.3191 20.8475H62.3199Z" fill="#131B25"/>
<path d="M62.325 0.535751C62.2838 0.877778 62.0761 1.16871 61.7876 1.40524C61.5635 1.58903 61.3039 1.71678 61.0319 1.81238C60.947 1.84205 60.8349 1.87831 60.7756 1.76458C60.7228 1.66403 60.7978 1.59892 60.8662 1.53876C61.1992 1.24453 61.341 0.865416 61.3747 0.431907C61.3962 0.162406 61.6138 -0.0139659 61.8767 0.000869048C62.1404 0.0165281 62.3299 0.223394 62.325 0.534927V0.535751Z" fill="#131B25"/>
<path d="M70.0761 20.3674C69.9854 20.3344 69.8033 20.4407 69.7794 20.2701C69.7555 20.1003 69.9475 20.1498 70.0439 20.1193C70.8854 19.8531 71.3881 19.2902 71.5678 18.4273C71.5884 18.3284 71.5348 18.1413 71.703 18.1529C71.8538 18.1627 71.8085 18.3408 71.8192 18.4454C71.9263 19.4385 71.0915 20.3624 70.0761 20.3666V20.3674Z" fill="#131B25"/>
<path d="M70.3263 17.9094C70.3164 17.288 70.0816 16.7679 69.6274 16.3443C69.5722 16.2924 69.4659 16.247 69.5335 16.149C69.5978 16.0542 69.6818 16.1251 69.7519 16.1597C70.7549 16.6492 71.0491 18 70.3412 18.8572C70.2983 18.9091 70.2596 18.9857 70.1788 18.947C70.0824 18.9 70.1294 18.8201 70.1574 18.7508C70.2686 18.4822 70.3338 18.2044 70.3263 17.911V17.9094Z" fill="#131B25"/>
<path d="M67.7387 16.2793C68.7474 16.2867 69.5477 17.0903 69.532 18.0883C69.5304 18.1683 69.5526 18.2762 69.443 18.2878C69.3482 18.2977 69.345 18.193 69.3243 18.1229C69.0466 17.1875 68.3881 16.6337 67.428 16.5307C67.3546 16.5224 67.2821 16.5134 67.2812 16.4252C67.2812 16.3485 67.3513 16.3329 67.4139 16.3238C67.5219 16.3081 67.6307 16.2941 67.7387 16.2801V16.2793Z" fill="#131B25"/>
<path d="M62.3556 2.2822C62.2839 2.2822 62.2427 2.28385 62.2015 2.2822C62.1207 2.27808 62.0226 2.29044 62.0028 2.18248C61.9806 2.0605 62.0943 2.0671 62.1644 2.04072C62.4487 1.93441 62.6449 1.73825 62.7817 1.4704C62.8872 1.26189 63.0718 1.18112 63.2539 1.24705C63.4822 1.32947 63.5613 1.60309 63.4122 1.80748C63.1427 2.17506 62.7479 2.26325 62.3556 2.28303V2.2822Z" fill="#131B25"/>
<path d="M64.5776 3.73633C64.5809 3.75265 64.5841 3.76897 64.5874 3.78529C64.5702 3.78202 64.5523 3.77794 64.5352 3.77468C64.549 3.76162 64.5637 3.74938 64.5776 3.73633Z" fill="#FEFEFE"/>
<path d="M56.9916 13.5508C57.2072 13.5995 57.4237 13.644 57.6378 13.6978C58.333 13.8724 58.9686 14.1721 59.545 14.5941C59.8162 14.7927 60.057 15.0247 60.3029 15.2519C60.4377 15.3766 60.6127 15.3704 60.7205 15.2281C61.0694 14.7675 61.5256 14.4488 62.0497 14.2136C62.3945 14.0592 62.7548 13.9588 63.1278 13.9021C63.2813 13.8786 63.4259 13.8341 63.5937 13.8632C63.8506 13.9078 64.0211 14.0539 64.1559 14.2436C64.3733 14.5495 64.5337 14.8848 64.5821 15.2626C64.5741 15.2584 64.5827 15.2679 64.5821 15.2626V15.3439C64.5821 15.3439 64.5934 15.552 64.5928 15.6855C64.5922 15.8216 64.5785 16.0338 64.5785 16.0338C64.5791 16.024 64.5693 16.0427 64.5785 16.0338C64.5595 16.3754 64.455 16.6973 64.332 17.0121C64.2709 17.1686 64.2299 17.3536 64.0253 17.4056C63.9338 17.4287 63.8465 17.4626 63.7464 17.4822C63.6128 17.5273 63.567 17.5171 63.3906 17.5273L63.0782 17.5119C62.7426 17.519 62.4385 17.3949 62.1501 17.2482C61.6138 16.975 61.1799 16.572 60.7959 16.1179C60.6302 15.9219 60.5485 15.8889 60.3178 16.0071C59.7223 16.3115 59.1426 16.6456 58.5347 16.9271C58.1162 17.1208 57.6939 17.2981 57.2354 17.3806C56.9732 17.4278 56.7454 17.3521 56.6186 17.1422C56.536 17.0052 56.4829 16.8538 56.4273 16.7038C56.3543 16.506 56.3367 16.324 56.307 16.1012L56.2773 15.6112L56.307 15.1031C56.3068 15.1123 56.3163 15.0942 56.307 15.1031C56.3142 14.7562 56.3887 14.42 56.4921 14.0922C56.5595 13.8778 56.5993 13.6298 56.8731 13.5508H56.9916ZM63.3134 17.3272C63.3766 17.3417 63.4714 17.3242 63.5682 17.3189C63.85 17.304 64.0621 17.2072 64.1672 16.8948C64.3136 16.4588 64.419 16.0178 64.4205 15.5634C64.422 15.1283 64.24 14.7345 63.9979 14.377C63.8569 14.1682 63.6668 14.0066 63.3808 14.0497C63.2332 14.072 63.0865 14.1035 62.9407 14.1364C62.1192 14.3226 61.4089 14.6918 60.8734 15.3534C60.6896 15.5806 60.4036 15.6017 60.1678 15.4131C60.0175 15.2929 59.8892 15.1491 59.7458 15.0208C59.4084 14.7194 59.0327 14.4765 58.6291 14.2763C58.1706 14.0488 57.6824 13.9 57.1817 13.7896C56.8707 13.721 56.8205 13.7403 56.7255 14.0381C56.536 14.6309 56.4469 15.2347 56.4826 15.8601C56.5063 16.275 56.6046 16.6605 56.7956 17.0275C56.8481 17.1282 56.9215 17.1781 57.0382 17.1778C57.2197 17.1769 57.3961 17.1514 57.5674 17.0943C58.0542 16.9328 58.5192 16.7264 58.9695 16.4802C59.3882 16.2509 59.8153 16.0359 60.2379 15.8126C60.5093 15.6691 60.7415 15.725 60.8906 15.8981C61.1567 16.2076 61.4353 16.5004 61.759 16.7537C62.206 17.1038 62.7046 17.3061 63.3137 17.3275L63.3134 17.3272Z" fill="#131B25"/>
<path d="M63.3115 17.3266C62.7024 17.3053 62.2038 17.103 61.7568 16.7529C61.4334 16.4996 61.1545 16.2067 60.8884 15.8973C60.7397 15.7241 60.5074 15.6683 60.2357 15.8118C59.8134 16.0351 59.386 16.2501 58.9673 16.4794C58.5174 16.7259 58.052 16.932 57.5652 17.0935C57.3942 17.1502 57.2175 17.1761 57.036 17.177C56.9193 17.1776 56.8457 17.1277 56.7934 17.0267C56.6024 16.6596 56.5041 16.2742 56.4804 15.8593C56.4447 15.2338 56.5335 14.6298 56.7233 14.0373C56.8186 13.7394 56.8688 13.7201 57.1795 13.7887C57.6802 13.8992 58.1684 14.048 58.627 14.2755C59.0302 14.4756 59.4059 14.7189 59.7436 15.02C59.887 15.1483 60.0153 15.292 60.1656 15.4123C60.4014 15.6009 60.6877 15.5798 60.8712 15.3526C61.4064 14.6907 62.1171 14.3215 62.9385 14.1356C63.0843 14.1026 63.2307 14.0712 63.3786 14.0489C63.6646 14.0058 63.8547 14.1677 63.9957 14.3762C64.2375 14.7337 64.4195 15.1275 64.4184 15.5626C64.4169 16.017 64.3114 16.458 64.165 16.8939C64.0599 17.2064 63.8482 17.3038 63.5663 17.3183C63.4695 17.3234 63.3745 17.3406 63.3112 17.3263L63.3115 17.3266Z" fill="#E05263"/>
</g>
<defs>
<filter id="filter0_d_789_10824" x="0" y="0" width="122.012" height="54.9297" filterUnits="userSpaceOnUse" color-interpolation-filters="sRGB">
<feFlood flood-opacity="0" result="BackgroundImageFix"/>
<feColorMatrix in="SourceAlpha" type="matrix" values="0 0 0 0 0 0 0 0 0 0 0 0 0 0 0 0 0 0 127 0" result="hardAlpha"/>
<feOffset dy="4"/>
<feGaussianBlur stdDeviation="2"/>
<feComposite in2="hardAlpha" operator="out"/>
<feColorMatrix type="matrix" values="0 0 0 0 0 0 0 0 0 0 0 0 0 0 0 0 0 0 0.25 0"/>
<feBlend mode="normal" in2="BackgroundImageFix" result="effect1_dropShadow_789_10824"/>
<feBlend mode="normal" in="SourceGraphic" in2="effect1_dropShadow_789_10824" result="shape"/>
</filter>
</defs>
</svg>
