<svg width="1584" height="192" viewBox="0 0 1584 192" fill="none" xmlns="http://www.w3.org/2000/svg">
<path d="M1171.77 0.0898438C1172.88 0.530753 1173.98 1.23621 1175.12 1.41257C1187.51 3.08803 1195.4 10.3189 1197.08 22.2235C1199.46 39.5071 1200.65 56.9671 1201.79 74.4271C1203.78 104.894 1205.19 135.449 1207.22 165.916C1208.23 180.907 1203.82 187.476 1188.92 190.342C1185.53 191.003 1182 191.312 1178.56 191.268C1164.01 191.003 1158.06 185.933 1157.49 171.471C1156.92 157.715 1157.71 143.87 1157.89 130.07C1157.93 126.19 1157.89 122.31 1157.4 118.342C1155.29 127.909 1153.43 137.565 1150.92 147.001C1148.1 157.627 1141.71 165.475 1130.69 168.782C1119.23 172.221 1112.17 169.355 1106.53 158.993C1104.68 155.598 1103.18 151.983 1100.62 148.72C1101.06 155.466 1101.68 162.168 1101.9 168.914C1102.34 181.921 1097.27 188.27 1084.4 190.166C1078.8 191.003 1072.98 191.356 1067.38 190.783C1056.14 189.637 1051.07 183.949 1050.9 172.706C1050.76 162.609 1051.43 152.468 1051.25 142.371C1050.9 124.162 1050.01 105.952 1049.62 87.7426C1049.4 77.0285 1053.06 70.988 1063.64 69.048C1073.95 67.108 1084.88 66.4026 1095.24 67.6371C1100.36 68.2103 1105.38 73.8098 1109.31 78.1308C1112.08 81.173 1112.92 85.9789 1115.35 91.6667C1118.43 75.2208 1121.3 60.2739 1124.07 45.3271C1125.18 39.5071 1126.01 33.643 1127.12 27.823C1129.63 14.0667 1137.61 5.33666 1151.45 2.07393C1153.3 1.63303 1155.11 0.795298 1156.92 0.178026C1161.9 0.178026 1166.84 0.178026 1171.82 0.178026L1171.77 0.0898438Z" fill="#131B25"/>
<path fill-rule="evenodd" clip-rule="evenodd" d="M1111.34 5.69259C1110.25 9.30891 1107.61 12.0935 1103.16 13.0132C1108.85 26.5942 1083.79 26.8215 1088.13 16.4502C1080.66 31.5515 1064.8 20.5222 1073.55 10.5559C1067.34 11.3085 1063.1 7.55973 1062.08 2.33203C1051.55 2.51681 1041.02 2.73083 1030.48 2.95639C1025.83 3.0556 1021.18 3.12449 1016.53 3.19338C1002.57 3.40006 988.605 3.60673 974.719 4.63185C950.209 6.43957 934.559 19.2259 929.445 40.6982C925.434 57.4528 925.301 74.4718 928.916 91.3146C932.178 106.57 941.304 116.931 956.645 121.12C960.293 122.134 964.023 122.894 967.75 123.654C971.318 124.382 974.885 125.109 978.378 126.058C981.498 126.898 984.517 128.168 987.53 129.435C988.944 130.029 990.357 130.624 991.779 131.173C991.691 132.407 991.647 133.641 991.603 134.875L991.603 134.876C989.837 135.335 988.079 135.904 986.325 136.472C982.519 137.704 978.728 138.93 974.895 139.021C968.625 139.19 962.319 138.695 956.012 138.2C952.43 137.919 948.848 137.637 945.271 137.478C935.176 137.037 929.137 141.402 927.329 151.278C926.271 157.23 926.095 163.535 926.624 169.62C927.638 181.436 930.151 184.523 942.009 187.124C965.858 192.327 989.796 192.195 1013.47 185.978C1027.13 182.362 1036.39 173.368 1037.76 159.215C1038.95 146.605 1039.48 133.554 1037.63 121.076C1034.41 99.3832 1021.23 85.23 999.538 79.4982C998.572 79.2402 997.604 78.9841 996.635 78.7278C991.149 77.2761 985.631 75.8165 980.274 73.9428C977.1 72.8405 973.881 71.0328 971.545 68.6959C966.475 63.5373 967.445 59.1282 974.455 57.4087C981.861 55.6009 989.575 54.2782 997.158 54.2782C1015.47 54.2292 1033.8 54.3843 1052.13 54.5394C1066.81 54.6635 1081.49 54.7877 1096.17 54.8073C1108.95 54.8514 1115.7 48.7228 1116.76 36.245C1117.33 29.4109 1116.93 22.4446 1116.4 15.6105C1116.03 11.1911 1114.3 7.84563 1111.34 5.69259Z" fill="#131B25"/>
<path d="M1512.19 52.6017C1507.07 52.6017 1503.15 52.6017 1499.22 52.6017C1491.86 52.6899 1488.2 48.6336 1487.81 41.7554C1487.37 34.3922 1487.15 26.9849 1487.59 19.6217C1488.07 10.5831 1492.83 4.93947 1501.83 4.67493C1523.34 4.10174 1544.9 3.92538 1566.41 4.8072C1577.65 5.2922 1581.13 10.1422 1581.93 21.694C1582.37 27.6022 1582.45 33.5104 1582.37 39.4186C1582.23 48.369 1578.75 51.9404 1569.36 53.219C1555.78 55.0708 1554.77 55.644 1554.77 69.1358C1554.77 82.6717 1556 96.1636 1556.53 109.699C1557.11 124.69 1552.43 129.673 1537.23 130.422C1531.05 130.731 1524.84 130.775 1518.67 130.422C1508.22 129.849 1503.28 124.426 1504.6 113.888C1506.15 101.939 1509.14 90.1672 1510.77 78.2627C1511.88 70.0617 1511.79 61.7286 1512.23 52.6458L1512.19 52.6017Z" fill="#131B25"/>
<path d="M584.19 114.328C584.19 120.501 583.838 126.674 584.279 132.846C585.204 146.118 587.1 159.301 587.497 172.572C587.805 183.198 584.587 186.593 574.095 188.798C567.351 190.209 560.341 191.002 553.464 191.002C540.107 191.002 532.613 183.507 532.833 170.147C533.318 142.061 534.685 113.975 534.817 85.8895C534.905 65.2108 533.538 44.5322 532.833 23.8095C532.26 7.18718 536.183 3.04263 552.715 2.82218C558.402 2.734 564.132 2.68991 569.819 2.95445C580.84 3.48354 584.455 7.18718 584.631 18.0335C584.808 31.5695 584.631 45.1495 584.808 58.6854C584.808 61.7276 585.822 64.7699 586.439 68.209C594.947 66.9745 598.474 61.1985 599.972 55.2022C602.265 45.9872 603.808 36.3754 604.116 26.8958C604.777 4.6299 605.659 3.30718 627.701 3.30718C630.699 3.30718 633.652 3.30718 636.65 3.30718C646.084 3.30718 650.624 6.43763 651.815 15.6526C655.341 42.2395 651.286 66.7099 630.61 86.3304C620.03 96.3831 620.207 96.5595 626.511 109.743C627.26 111.286 628.009 112.873 628.803 114.372C642.425 140.121 656.532 146.779 686.112 141.797C691.225 140.915 696.427 140.254 701.629 140.165C707.977 140.077 712.077 143.119 711.768 150.086C711.327 159.918 711.46 169.839 709.961 179.494C709.432 182.934 705.2 187.916 701.938 188.489C678.265 192.722 654.548 193.383 631.757 183.771C618.399 178.128 610.464 167.149 604.822 154.451C599.884 143.428 595.608 132.141 590.847 121.03C589.745 118.473 587.982 116.224 586.527 113.843C585.777 114.019 584.984 114.196 584.235 114.328H584.19Z" fill="#131B25"/>
<path d="M663.849 85.9786C663.849 75.1764 663.981 64.33 663.805 53.5277C663.717 47.7518 666.45 45.5914 671.96 45.7677C680.116 45.9882 688.315 45.7236 696.471 46.0764C704.847 46.4732 709.035 50.265 709.123 58.4218C709.299 78.1305 708.991 97.795 708.77 117.504C708.682 124.735 704.318 129.32 697.661 130.29C689.153 131.525 680.424 131.833 671.784 131.657C666.362 131.569 663.364 127.512 663.276 122.177C663.055 110.14 663.232 98.0595 663.232 86.0227C663.452 86.0227 663.629 86.0227 663.849 86.0227V85.9786Z" fill="#131B25"/>
<path d="M678.477 42C677.663 41.8814 676.832 41.8294 676.039 41.6314C673.886 41.0956 671.999 40.099 670.767 38.2185C669.39 36.1186 669.293 33.8789 670.229 31.5846C670.93 29.8704 672.058 28.4557 673.519 27.3073C675.6 25.6708 677.31 23.7305 678.669 21.4874C679.489 20.1341 680.566 19.0352 681.965 18.2323C686.115 15.85 691.491 17.0155 694.2 20.9191C694.575 21.4601 694.86 22.0607 695.182 22.6367C696.119 24.3116 697.412 25.6631 699.003 26.7638C700.626 27.8866 701.94 29.2817 702.778 31.0683C703.725 33.088 703.954 35.1349 703.013 37.2236C702.174 39.0853 700.708 40.2987 698.835 41.0913C697.647 41.5939 696.404 41.878 695.111 41.9505C695.01 41.9565 694.911 41.9829 694.811 41.9991H693.466C693.396 41.9855 693.327 41.9625 693.257 41.9582C691.838 41.8746 690.468 41.558 689.117 41.1331C687.754 40.7048 686.36 40.6126 684.961 40.9249C684.131 41.1109 683.326 41.4062 682.495 41.5845C681.655 41.7654 680.796 41.8635 679.945 41.9983H678.477V42Z" fill="#131B25"/>
<path d="M691.695 5.92263e-09C693.776 0.29869 695.241 1.52908 696.576 2.94597C697.673 4.10964 698.507 5.42949 699.095 6.89186C700.301 9.88483 699.339 13.7966 696.904 15.8283C694.983 17.4317 692.055 17.3892 690.212 15.7025C688.638 14.2621 687.845 12.4715 687.683 10.4443C687.504 8.19351 687.674 5.94955 688.18 3.73818C688.386 2.83453 688.71 1.97105 689.264 1.19704C689.736 0.538249 690.367 0.134183 691.205 0.0401792C691.239 0.0363887 691.271 0.0144039 691.304 0.000758103C691.435 0.000758103 691.564 0.000758103 691.695 0.000758103L691.695 5.92263e-09Z" fill="#131B25"/>
<path d="M663.614 19.0859C663.72 18.3163 663.776 17.5353 663.944 16.7788C664.245 15.4283 664.773 14.1613 665.704 13.099C666.221 12.5072 666.861 12.0941 667.681 12.0121C668.367 11.9439 668.971 12.1715 669.545 12.5049C670.443 13.0284 671.083 13.811 671.694 14.6166C672.953 16.276 673.909 18.0872 674.409 20.1061C674.803 21.6934 674.631 23.2317 673.887 24.7026C672.939 26.5766 670.867 27.4243 668.729 26.7935C667.13 26.3214 665.948 25.2935 665.016 23.979C664.215 22.8508 663.747 21.5907 663.66 20.2057C663.656 20.1359 663.631 20.0677 663.615 19.9988C663.615 19.6937 663.615 19.3894 663.615 19.0843L663.614 19.0859Z" fill="#131B25"/>
<path d="M709.614 19.9245C709.509 20.5292 709.469 21.1546 709.285 21.7364C708.605 23.8923 707.285 25.5726 705.162 26.5191C703.683 27.1781 702.151 27.2171 700.75 26.276C699.626 25.5214 699.025 24.4006 698.762 23.1148C698.483 21.7448 698.603 20.387 699.093 19.0797C699.824 17.1303 700.823 15.3215 702.23 13.7512C702.743 13.1793 703.306 12.6526 704.018 12.3147C705.245 11.7329 706.449 11.9668 707.38 12.9416C708.404 14.0142 708.945 15.3176 709.281 16.7159C709.424 17.313 709.504 17.9246 709.613 18.5301L709.614 19.9245Z" fill="#131B25"/>
<path d="M685.596 8.62267C685.667 10.0066 685.537 11.3662 685.035 12.6758C684.569 13.8898 683.914 14.9947 682.848 15.8228C680.999 17.259 678.557 17.4963 676.475 15.8887C674.92 14.6876 674.168 13.0709 673.783 11.2547C673.399 9.44315 673.681 7.7165 674.507 6.05885C675.561 3.94546 677.048 2.18013 679.091 0.866748C679.695 0.478497 680.352 0.192617 681.073 0.0621888C682.392 -0.175918 683.418 0.27148 684.113 1.37405C684.661 2.24458 684.936 3.20384 685.153 4.1866C685.476 5.65012 685.527 7.13715 685.596 8.62267Z" fill="#131B25"/>
<path fill-rule="evenodd" clip-rule="evenodd" d="M1474.01 136.463C1460.96 133.288 1452.28 125.44 1448.4 111.904L1448.44 112.037C1465.68 102.777 1473.57 88.007 1474.1 69.092C1474.27 61.4643 1474.32 53.7925 1474.1 46.1648C1473.48 24.2516 1462.28 9.87795 1440.81 4.8075C1419.21 -0.307049 1397.39 0.66295 1375.79 4.71931C1359.92 7.6734 1354.23 14.5957 1354.45 30.733C1354.56 37.5297 1355 44.3168 1355.44 51.0987C1355.94 58.8352 1356.44 66.565 1356.44 74.2948C1356.39 90.3361 1356.09 106.377 1355.79 122.419C1355.52 136.932 1355.24 151.446 1355.16 165.96C1355.07 182.45 1362.04 189.24 1378.74 189.592C1383.64 189.681 1388.71 188.931 1393.42 187.653C1402.68 185.183 1408.54 179.187 1408.9 169.267C1409.14 162.629 1409.09 155.992 1409.04 148.832C1409.01 145.623 1408.99 142.31 1408.99 138.844C1410.54 141.557 1412.02 144.154 1413.45 146.668C1416.86 152.654 1420 158.172 1423.22 163.667C1432.39 179.187 1445.97 188.27 1464.05 189.813C1494.55 192.37 1525.01 192.503 1555.39 188.358C1575.14 185.668 1585.28 179.363 1583.2 154.937C1582.23 143.606 1577.3 138.094 1565.83 138.227C1559.87 138.287 1553.93 138.846 1548 139.405C1545.29 139.66 1542.58 139.915 1539.87 140.122C1517.74 141.798 1495.7 141.666 1474.01 136.463ZM1421.41 38C1423.34 38.3218 1424.69 39.6473 1425.93 41.1738C1426.94 42.4275 1427.71 43.8494 1428.26 45.4249C1429.37 48.6493 1428.48 52.8637 1426.23 55.0525C1424.45 56.7799 1421.74 56.7342 1420.04 54.9169C1418.58 53.3651 1417.85 51.436 1417.7 49.2521C1417.53 46.8272 1417.69 44.4097 1418.16 42.0273C1418.35 41.0538 1418.65 40.1235 1419.16 39.2896C1419.6 38.5799 1420.18 38.1446 1420.96 38.0433C1420.98 38.0405 1421 38.0287 1421.02 38.0168C1421.03 38.0112 1421.04 38.0055 1421.05 38.0008H1421.41L1421.41 38ZM1408.56 80.9052H1408.56C1408.09 80.8405 1407.61 80.7758 1407.15 80.6449C1405.32 80.1286 1403.72 79.1683 1402.68 77.3564C1401.51 75.3332 1401.43 73.1752 1402.22 70.9645C1402.82 69.3129 1403.77 67.9499 1405.01 66.8433C1406.78 65.2665 1408.23 63.397 1409.38 61.2357C1410.07 59.9318 1410.99 58.873 1412.17 58.0993C1415.69 55.804 1420.25 56.927 1422.55 60.6882C1422.77 61.0579 1422.96 61.4566 1423.15 61.8552L1423.15 61.8554C1423.22 62.0187 1423.3 62.1819 1423.38 62.3431C1424.17 63.9569 1425.27 65.2591 1426.62 66.3196C1427.99 67.4015 1429.11 68.7457 1429.82 70.4671C1430.62 72.4131 1430.82 74.3853 1430.02 76.3978C1429.31 78.1917 1428.06 79.3607 1426.48 80.1245C1425.47 80.6087 1424.41 80.8824 1423.32 80.9523C1423.26 80.9562 1423.2 80.9688 1423.15 80.9814L1423.15 80.9815L1423.15 80.9816C1423.12 80.9878 1423.09 80.994 1423.06 80.9992H1421.92C1421.9 80.9948 1421.88 80.9893 1421.86 80.9839C1421.82 80.9732 1421.79 80.9624 1421.75 80.9597C1420.54 80.8792 1419.38 80.5742 1418.24 80.1647C1417.08 79.752 1415.9 79.6633 1414.71 79.9641C1414.37 80.0507 1414.04 80.1619 1413.7 80.2731L1413.7 80.2731L1413.7 80.2732L1413.7 80.2732L1413.7 80.2733L1413.7 80.2733C1413.34 80.3921 1412.99 80.5109 1412.62 80.5996C1412.13 80.7205 1411.63 80.803 1411.13 80.8855C1410.9 80.922 1410.68 80.9585 1410.46 80.9984H1409.22V81C1409 80.9642 1408.78 80.9347 1408.56 80.9052ZM1395.7 57.9005C1395.67 58.1548 1395.65 58.4091 1395.61 58.6622L1395.61 58.6605V59.6314C1395.62 59.6545 1395.63 59.6776 1395.63 59.7007C1395.64 59.7506 1395.65 59.8005 1395.66 59.8511C1395.74 61.3216 1396.18 62.6595 1396.94 63.8574C1397.82 65.253 1398.93 66.3443 1400.44 66.8456C1402.46 67.5154 1404.42 66.6153 1405.31 64.6256C1406.01 63.0639 1406.18 61.4307 1405.8 59.7453C1405.33 57.6018 1404.43 55.6788 1403.24 53.917C1402.66 53.0617 1402.06 52.2308 1401.21 51.675C1400.67 51.321 1400.1 51.0793 1399.45 51.1517C1398.68 51.2388 1398.08 51.6774 1397.59 52.3057C1396.71 53.4336 1396.21 54.7788 1395.93 56.2127C1395.82 56.767 1395.76 57.3338 1395.7 57.9004L1395.7 57.9005ZM1436.61 59.6577C1436.58 59.8617 1436.56 60.0678 1436.53 60.274C1436.48 60.725 1436.42 61.1763 1436.3 61.6055C1435.66 63.9231 1434.42 65.7295 1432.41 66.7469C1431.02 67.4553 1429.57 67.4972 1428.25 66.4855C1427.18 65.6744 1426.62 64.4696 1426.37 63.0872C1426.11 61.6145 1426.22 60.1549 1426.68 58.7496C1427.37 56.6539 1428.32 54.7095 1429.64 53.0214C1430.13 52.4067 1430.66 51.8404 1431.33 51.4772C1432.49 50.8518 1433.63 51.1032 1434.51 52.1511C1435.47 53.3041 1435.98 54.7053 1436.3 56.2085C1436.39 56.6477 1436.46 57.0942 1436.52 57.541L1436.52 57.5414L1436.52 57.5427C1436.55 57.7482 1436.58 57.9538 1436.61 58.1587L1436.61 59.6577ZM1414.06 51.6562C1414.52 50.2453 1414.64 48.7805 1414.58 47.2896L1414.56 46.9993C1414.51 45.4956 1414.45 43.9918 1414.17 42.5104C1413.97 41.4516 1413.71 40.4182 1413.2 39.4803C1412.56 38.2925 1411.61 37.8105 1410.39 38.067C1409.72 38.2075 1409.12 38.5155 1408.56 38.9338C1406.67 40.3487 1405.29 42.2506 1404.32 44.5275C1403.55 46.3133 1403.29 48.1735 1403.65 50.1252C1404 52.0818 1404.7 53.8235 1406.14 55.1176C1408.06 56.8495 1410.32 56.5938 1412.03 55.0465C1413.02 54.1544 1413.63 52.9641 1414.06 51.6562Z" fill="#131B25"/>
<path fill-rule="evenodd" clip-rule="evenodd" d="M149.658 23.7676C154.419 9.83484 164.999 3.39756 179.062 3.2212C196.607 3.04484 214.329 2.86847 231.742 4.72029C248.141 6.48393 254.798 14.773 254.445 31.2189C254.308 36.9308 253.008 42.6084 251.705 48.2944C250.917 51.7379 250.128 55.1844 249.596 58.6435C249.155 61.5976 249.023 65.5658 250.566 67.7703C267.538 91.9762 255.547 123.986 226.099 129.894C206.835 133.774 187.173 134.083 167.689 129.894C159.224 128.087 152.612 124.03 149.614 115.521V23.7676H149.658ZM195.782 36.2974C195.952 35.3453 196.186 34.4227 196.49 33.5326C196.622 33.0617 196.794 32.6115 197.012 32.1928C197.635 30.7795 198.456 29.4586 199.503 28.2428C200.095 27.5544 200.787 26.9775 201.609 26.5753C203.114 25.8403 204.503 26.0656 205.719 27.226C206.679 28.1421 207.342 29.2601 207.942 30.427C208.782 32.0597 209.341 33.7975 209.9 35.5353L209.9 35.5354L210.008 35.8707C210.571 37.5912 210.884 39.3475 210.732 41.1633C210.591 42.8468 210.186 44.4549 209.189 45.8501C207.461 48.2697 204.605 49.3741 201.545 48.0351C199.259 47.0344 197.796 45.245 196.706 43.0834C195.618 40.9273 195.36 38.6586 195.782 36.2974ZM211.732 95.1633C211.884 93.3475 211.571 91.5912 211.008 89.8707C210.972 89.7589 210.936 89.6471 210.9 89.5353C210.341 87.7975 209.782 86.0597 208.942 84.427C208.342 83.2601 207.679 82.1421 206.719 81.226C205.503 80.0656 204.114 79.8402 202.609 80.5753C201.787 80.9775 201.095 81.5544 200.503 82.2428C198.498 84.5718 197.319 87.2867 196.782 90.2974C196.36 92.6586 196.618 94.9273 197.706 97.0834C198.796 99.245 200.259 101.034 202.545 102.035C205.605 103.374 208.461 102.27 210.189 99.8501C211.186 98.4549 211.591 96.8468 211.732 95.1633Z" fill="#131B25"/>
<path fill-rule="evenodd" clip-rule="evenodd" d="M177.476 141.358C166.499 139.55 155.566 138.448 149.659 151.146L149.747 151.19V176.366C153.759 185.228 161.385 189.284 170.423 189.593C173.018 189.685 175.615 189.784 178.212 189.882C195.461 190.535 212.726 191.189 229.891 190.078C246.819 189.02 264.012 186.418 280.235 181.701C299.896 176.013 308.58 161.904 308.977 141.534C309.004 139.873 308.969 138.205 308.934 136.537C308.855 132.756 308.776 128.979 309.418 125.308C309.903 122.575 312.768 118.43 314.84 118.254C317.353 118.033 321.673 120.767 322.555 123.192C324.23 127.91 324.627 133.289 324.539 138.359C324.433 143.43 324.094 148.5 323.756 153.571C323.388 159.082 323.02 164.593 322.952 170.105C322.863 180.995 329.476 188.358 340.365 189.593C346.977 190.298 353.722 190.387 360.378 189.858C372.59 188.932 378.012 182.759 378.012 170.678C378.006 165.885 378 161.091 377.995 156.298C377.962 127.538 377.93 98.7783 377.703 70.0185C377.615 57.673 377.307 45.3276 376.249 33.0703C375.102 19.9312 368.137 10.4516 355.309 5.99847C341.324 1.12705 327 2.24824 312.75 3.36364C309.975 3.58084 307.203 3.79782 304.436 3.97028C299.411 4.27892 294.165 6.13074 289.624 8.42347C273.798 16.3157 269.963 31.1744 269.037 46.8707C268.213 60.8041 267.755 74.7924 267.297 88.7767C267.046 96.4759 266.794 104.174 266.481 111.861C265.952 124.603 258.193 132.01 247.172 136.596C242.631 138.492 237.782 139.814 232.977 140.873C214.506 144.929 196.035 144.356 177.476 141.358ZM327.411 37C329.336 37.3218 330.692 38.6473 331.926 40.1738C332.94 41.4275 333.712 42.8494 334.256 44.4249C335.372 47.6493 334.482 51.8637 332.23 54.0525C330.452 55.7799 327.744 55.7342 326.039 53.9169C324.584 52.3651 323.849 50.436 323.7 48.2521C323.535 45.8272 323.691 43.4097 324.159 41.0273C324.35 40.0538 324.65 39.1235 325.162 38.2896C325.599 37.5799 326.182 37.1446 326.957 37.0433C326.979 37.0405 326.999 37.0287 327.02 37.0168C327.03 37.0112 327.04 37.0055 327.049 37.0008H327.411L327.411 37ZM315.215 80C314.999 79.9642 314.782 79.9347 314.564 79.9052C314.087 79.8405 313.61 79.7758 313.149 79.6449C311.323 79.1286 309.723 78.1683 308.679 76.3564C307.512 74.3332 307.429 72.1752 308.223 69.9645C308.817 68.3129 309.773 66.9499 311.012 65.8433C312.776 64.2665 314.226 62.397 315.379 60.2357C316.074 58.9318 316.987 57.873 318.173 57.0993C321.691 54.804 326.248 55.927 328.546 59.6882C328.771 60.058 328.958 60.4568 329.146 60.8555L329.146 60.8566C329.223 61.0194 329.299 61.1823 329.378 61.3431C330.172 62.9569 331.269 64.2591 332.617 65.3196C333.993 66.4015 335.107 67.7457 335.818 69.4671C336.621 71.4131 336.815 73.3853 336.017 75.3978C335.306 77.1917 334.063 78.3607 332.475 79.1245C331.468 79.6087 330.414 79.8824 329.317 79.9523C329.261 79.9562 329.204 79.9688 329.148 79.9815L329.147 79.9815C329.12 79.9878 329.092 79.994 329.064 79.9992H327.923C327.903 79.9948 327.883 79.9893 327.864 79.9839L327.843 79.9782C327.833 79.9756 327.824 79.9732 327.814 79.9709C327.804 79.9685 327.794 79.9664 327.784 79.9645C327.774 79.9626 327.763 79.9611 327.752 79.9602L327.746 79.9597C326.543 79.8792 325.381 79.5742 324.236 79.1647C323.08 78.752 321.899 78.6633 320.713 78.9641C320.373 79.0508 320.037 79.162 319.702 79.2733L319.702 79.2733C319.344 79.3921 318.986 79.5109 318.622 79.5996C318.128 79.7205 317.627 79.803 317.125 79.8855L317.124 79.8857C316.903 79.9221 316.681 79.9586 316.46 79.9984H315.215V80ZM301.698 56.9007C301.672 57.1549 301.645 57.4091 301.614 57.6622L301.615 57.6605V58.6314C301.63 58.7046 301.653 58.7771 301.658 58.8511C301.739 60.3216 302.182 61.6595 302.937 62.8574C303.818 64.253 304.933 65.3443 306.443 65.8456C308.461 66.5154 310.417 65.6153 311.312 63.6256C312.014 62.0639 312.177 60.4307 311.805 58.7453C311.332 56.6018 310.43 54.6788 309.242 52.917C308.665 52.0617 308.061 51.2308 307.213 50.675C306.671 50.321 306.101 50.0793 305.453 50.1517C304.679 50.2388 304.075 50.6774 303.587 51.3057C302.708 52.4336 302.21 53.7788 301.926 55.2127C301.816 55.7669 301.757 56.3336 301.698 56.9001L301.698 56.9007ZM342.614 58.6577C342.583 58.8617 342.558 59.0678 342.533 59.274C342.478 59.725 342.423 60.1763 342.304 60.6055C341.662 62.9231 340.416 64.7295 338.411 65.7469C337.015 66.4553 335.569 66.4972 334.246 65.4855C333.185 64.6744 332.618 63.4696 332.37 62.0872C332.106 60.6145 332.219 59.1549 332.682 57.7496C333.372 55.6539 334.315 53.7095 335.643 52.0214C336.127 51.4067 336.659 50.8404 337.331 50.4772C338.489 49.8518 339.626 50.1032 340.505 51.1511C341.471 52.3041 341.983 53.7053 342.299 55.2085C342.392 55.6479 342.456 56.0945 342.521 56.5414C342.551 56.7474 342.581 56.9534 342.614 57.1587L342.614 58.6577ZM320.056 50.6562C320.521 49.2453 320.641 47.7805 320.576 46.2896L320.564 45.9992C320.505 44.4955 320.446 42.9918 320.166 41.5104C319.965 40.4516 319.711 39.4182 319.203 38.4803C318.561 37.2925 317.612 36.8105 316.392 37.067C315.725 37.2075 315.117 37.5155 314.558 37.9338C312.668 39.3487 311.293 41.2506 310.318 43.5275C309.554 45.3133 309.293 47.1735 309.648 49.1252C310.005 51.0818 310.7 52.8235 312.138 54.1176C314.064 55.8495 316.323 55.5938 318.033 54.0465C319.02 53.1544 319.625 51.9641 320.056 50.6562Z" fill="#131B25"/>
<path fill-rule="evenodd" clip-rule="evenodd" d="M470.427 0.456843C469.833 0.334419 469.24 0.212131 468.648 0.0898438H434.351C431.864 0.558973 429.363 0.977682 426.862 1.39622C421.609 2.27577 416.359 3.15457 411.251 4.49893C399.128 7.76166 393.53 15.1689 392.957 27.5144C392.819 30.1932 392.869 32.8987 392.919 35.5893C392.933 36.353 392.947 37.1154 392.957 37.8758C393.06 44.7121 393.189 51.5447 393.318 58.3758C393.632 74.9388 393.945 91.4926 393.882 108.068C393.836 119.125 393.514 130.193 393.191 141.267C392.895 151.39 392.6 161.519 392.516 171.648C392.428 184.125 397.189 189.46 409.664 190.342C417.732 190.915 426.019 190.033 434.087 189.019C440.523 188.226 445.46 184.169 446.21 177.644C446.964 171.06 446.972 164.369 446.979 157.696C446.981 155.789 446.983 153.884 447.003 151.983C447.062 146.251 447.042 140.519 447.023 134.788C447.013 131.922 447.003 129.056 447.003 126.19C447.278 126.116 447.561 126.035 447.849 125.953C448.252 125.838 448.663 125.72 449.075 125.617C449.868 127.558 450.754 129.479 451.64 131.399C453.611 135.671 455.582 139.942 456.525 144.443C458.494 153.915 459.757 163.517 461.019 173.11C461.396 175.975 461.772 178.84 462.168 181.7C463.094 188.578 466.973 191.621 473.806 191.356C476.073 191.272 478.34 191.239 480.607 191.207C484.291 191.153 487.976 191.1 491.66 190.827C503.474 189.989 507.353 186.286 508.808 174.558C511.497 152.821 507.089 132.892 493.423 115.343C492.31 113.896 491.266 112.377 490.182 110.8C489.55 109.88 488.903 108.939 488.221 107.98C489.41 107.103 490.57 106.252 491.708 105.418C494.745 103.19 497.622 101.079 500.476 98.8976C510.439 91.2698 516.391 81.1289 517.757 68.9158C518.727 60.4062 518.595 51.6321 517.713 43.1226C515.641 23.1935 500.432 6.92393 480.859 2.64712C477.396 1.89402 473.9 1.17309 470.427 0.456843ZM450.913 83.7039C450.749 83.3863 450.585 83.0783 450.422 82.7783C449.167 82.3419 447.916 81.3548 446.729 79.7433C444.09 76.1581 442.795 71.3182 442.113 65.8763C441.433 60.4481 441.874 55.2674 443.232 50.2878C444.964 43.9392 447.432 38.6297 450.844 34.6695C451.853 33.4988 452.953 32.6345 454.164 32.2357C456.378 31.5076 458.112 32.8383 459.301 36.1371C460.24 38.7417 460.721 41.6152 461.105 44.5599C461.173 45.0842 461.235 45.6095 461.291 46.1358C461.62 48.3685 461.776 50.7118 461.77 53.0993C461.825 54.4148 461.867 55.7324 461.909 57.0499C461.918 57.3191 461.926 57.5883 461.935 57.8574C462.08 62.0065 461.887 66.085 461.067 70.0174C460.307 73.6629 459.227 76.983 457.448 79.4774C455.737 81.8793 453.711 83.1752 451.643 83.0318C451.403 83.2646 451.16 83.4888 450.913 83.7039Z" fill="#131B25"/>
<path fill-rule="evenodd" clip-rule="evenodd" d="M1268.99 0.392507C1268.38 0.292534 1267.78 0.192669 1267.17 0.0898438H1259.68C1258.56 0.251511 1257.44 0.437673 1256.33 0.623835C1254.09 0.996158 1251.86 1.36848 1249.62 1.54484C1226.92 3.35257 1220.4 10.848 1222.07 33.2903C1223.62 54.4098 1226.44 56.4821 1247.73 55.3358C1258.79 54.7626 1269.95 55.4239 1280.97 56.4821C1286.39 57.0112 1291.06 60.8912 1290.53 66.9758C1289.96 73.413 1285.07 76.6317 1278.76 77.2489C1275.28 77.5953 1271.78 77.8086 1268.28 78.0219C1265.1 78.2159 1261.92 78.4099 1258.75 78.7039C1238.52 80.5558 1223.88 90.873 1222.73 106.79C1221.32 125.881 1221.28 145.193 1222.34 164.328C1223.17 179.452 1230.98 187.741 1246.32 188.887C1268.01 190.518 1289.92 190.871 1311.65 189.813C1327.56 189.063 1335.1 180.863 1337.22 164.946C1339.07 151.057 1340.3 136.948 1340.13 122.971C1339.82 98.8535 1339.03 74.6917 1336.87 50.7062C1335.19 32.0117 1326.2 16.2712 1307.95 8.95212C1300.65 6.02119 1292.7 4.65467 1284.74 3.28622C1281.2 2.67841 1277.66 2.07021 1274.18 1.32439C1272.48 0.965065 1270.73 0.678344 1268.99 0.392507ZM1292.01 147.856C1293.04 143.216 1293.28 138.403 1293.1 133.508C1293.09 133.19 1293.08 132.873 1293.07 132.555C1292.9 127.617 1292.74 122.679 1292.07 117.818C1291.59 114.344 1290.98 110.954 1289.81 107.881C1288.32 103.989 1286.14 102.42 1283.36 103.28C1281.84 103.751 1280.46 104.772 1279.2 106.153C1274.91 110.828 1271.81 117.094 1269.64 124.585C1267.93 130.461 1267.37 136.574 1268.22 142.979C1269.08 149.399 1270.7 155.109 1274.01 159.338C1278.44 164.998 1283.59 164.126 1287.46 159.02C1289.69 156.076 1291.05 152.158 1292.01 147.856Z" fill="#131B25"/>
<path fill-rule="evenodd" clip-rule="evenodd" d="M847.825 0.516525C847.634 0.368261 847.44 0.218684 847.237 0.0881818V0H838.288C837.762 0.153893 837.237 0.318977 836.71 0.484402C835.426 0.887713 834.135 1.29305 832.822 1.54318C817.701 4.27682 812.279 10.3173 812.279 25.5286C812.303 36.6247 812.464 47.7208 812.624 58.8168C812.753 67.6939 812.881 76.5711 812.94 85.4482C812.971 88.4806 812.698 91.5348 812.426 94.5801C812.31 95.8741 812.195 97.1665 812.103 98.455C811.757 98.5011 811.399 98.5351 811.036 98.5697C810.704 98.6013 810.367 98.6334 810.031 98.6755C809.248 95.8143 808.46 92.9532 807.671 90.0904C805.481 82.1447 803.288 74.1864 801.214 66.1805L800.897 64.942C797.388 51.2481 793.889 37.5922 790.722 23.8532C788.121 12.61 782.699 3.92409 771.237 0H751.84C734.648 4.49727 727.947 15.8286 727.859 33.1564C727.61 74.0368 726.734 114.956 725.859 155.841C725.806 158.347 725.752 160.852 725.699 163.357C725.258 185.799 729.093 192.765 756.557 188.445C772.692 185.887 779.348 178.348 778.819 162.343C778.364 148.432 777.49 134.543 776.616 120.646C776.221 114.368 775.826 108.089 775.469 101.806C775.411 100.87 775.546 99.9143 775.683 98.9522C775.752 98.4642 775.821 97.9746 775.866 97.485C779.26 102.6 781.509 107.758 783.184 113.093C789.532 133.551 795.792 154.054 801.919 174.6C804.917 184.609 811.75 189.9 821.889 190.605C823.826 190.733 825.773 190.839 827.724 190.901C827.375 188.816 827.702 186.563 828.891 184.227C814.73 180.19 830.203 160.471 835.593 170.338C828.462 155.074 846.981 149.572 849.304 162.627C852.474 157.5 857.764 156.415 862.368 158.55C862.324 149.588 862.267 140.622 862.211 131.654C862.086 111.704 861.961 91.742 861.961 71.78C862.005 54.5405 862.446 37.2568 862.931 20.0173C863.239 7.36318 861.432 4.71773 849.045 1.23455C848.601 1.11618 848.217 0.819088 847.825 0.516525Z" fill="#131B25"/>
<path d="M90.321 23.3383C90.0688 22.8133 89.5798 22.5199 89.168 22.1493C88.365 21.4389 87.5723 20.7131 86.9597 19.8226C86.6715 19.4005 86.2905 18.9629 86.6045 18.4224C86.8773 17.954 87.4076 18.0106 87.8811 18.0055C88.9312 17.9952 89.9196 18.2938 90.877 18.6644C100.554 22.4478 107.02 29.0881 109.326 39.4244C109.588 40.6083 109.593 41.818 109.439 43.0071C109.12 45.5242 106.912 46.4919 104.791 45.0558C103.715 44.33 102.855 43.3828 102.088 42.3327C99.4373 38.7037 97.7695 34.5548 95.8186 30.5603C95.5406 29.9838 95.2421 29.4073 94.8715 28.8925C94.4442 28.2954 93.8471 28.002 93.075 28.2594C92.4418 28.4704 92.1484 28.7484 92.5242 29.4691C95.7929 35.7182 97.0798 42.5335 98.1402 49.4003C99.9058 60.8638 100.451 72.4201 100.75 83.9968C101.074 96.3509 102.346 108.617 104.24 120.827C104.955 125.44 105.666 130.052 106.397 134.664C106.469 135.107 106.387 135.745 106.834 135.92C107.329 136.116 107.627 135.524 107.941 135.21C112.054 131.097 114.725 126.294 114.952 120.354C115.045 117.924 114.561 115.582 113.809 113.281C113.727 113.024 113.336 112.746 113.691 112.509C114.041 112.272 114.293 112.566 114.499 112.88C118.802 119.474 120.182 126.376 116.8 133.82C115.045 137.691 112.26 140.754 109.176 143.574C108.446 144.238 108.168 144.82 108.363 145.88C110.016 154.847 111.827 163.784 113.603 172.725C113.809 173.749 114.231 174.079 115.292 174.125C120.336 174.341 125.16 175.396 129.339 178.428C131.151 179.741 132.572 181.388 132.639 183.818C132.706 186.273 131.604 187.992 129.329 188.955C126.735 190.051 123.976 190.484 121.211 190.69C113.5 191.261 105.789 190.921 98.0784 190.546C91.1447 190.206 84.2315 189.645 77.3081 189.166C74.6159 188.981 70.4621 188.662 67.7699 188.487C66.5242 188.405 68.6139 187.55 68.5058 187.004C68.3565 186.232 66.3947 186.147 66.7404 186.171C72.1248 186.546 80.165 187.133 85.5493 187.503C87.8554 187.663 90.1666 187.781 92.4727 187.962C93.1676 188.013 93.3632 187.859 93.2551 187.128C91.2013 173.219 91.7726 159.249 92.3904 145.283C92.5345 142.03 92.761 138.777 92.9617 135.529C92.9772 135.251 92.8691 134.932 93.1779 134.669C93.6309 134.952 93.4765 135.426 93.4971 135.807C94.4906 151.121 95.5921 166.435 95.6024 181.795C95.6024 183.596 95.5921 185.398 95.5458 187.195C95.5303 187.864 95.6642 188.157 96.4415 188.209C104.06 188.723 111.683 188.883 119.312 188.636C122.086 188.543 124.866 188.25 127.538 187.4C130.868 186.34 131.537 183.427 128.989 181.007C126.096 178.264 122.452 177.167 118.643 176.601C113.572 175.849 108.564 176.688 103.566 177.43C103.442 177.45 103.313 177.45 103.118 177.471C103.298 176.776 103.864 176.534 104.364 176.241C106.289 175.103 108.415 174.588 110.597 174.398C111.658 174.305 111.724 173.96 111.513 173.039C109.032 162.481 106.551 151.929 104.415 141.294C101.79 128.219 99.4116 115.109 98.1916 101.818C97.6048 95.4038 97.5688 88.9745 97.6975 82.5401C97.9137 71.6891 97.7438 60.8433 96.2922 50.0643C95.484 44.0623 94.2332 38.1632 91.6851 32.6142C91.5307 32.2745 91.4844 31.7288 91.0983 31.6825C90.5784 31.6207 90.5321 32.2281 90.3365 32.5782C89.8269 33.4738 89.2761 34.3541 88.8849 35.2961C87.876 37.736 85.9405 38.5956 83.4748 38.6419C79.7377 38.7089 76.0315 38.3691 72.3716 37.6124C69.9368 37.108 68.5676 34.8843 69.1647 32.4752C69.4427 31.3633 69.803 30.2618 70.2199 29.1911C70.5082 28.4447 70.4207 28.0174 69.6228 27.7086C68.4698 27.2608 67.3528 26.3342 66.2152 26.3239C64.9746 26.3136 64.743 27.9866 64.012 28.8668C62.545 30.6324 60.5632 31.0288 58.4939 31.1574C54.6435 31.3891 50.8858 30.8795 47.3083 29.3815C44.333 28.1358 43.1594 25.8452 43.8028 22.6898C44.2146 20.6719 44.8169 18.7159 45.6096 16.8164C46.7884 13.9853 49.1614 12.6572 52.1109 13.383C56.2804 14.4022 60.2543 16.0083 64.1767 17.7327C65.5357 18.3298 66.3747 19.4931 66.7968 20.9087C66.9718 21.5007 67.2961 21.8404 67.8572 22.0721C69.0823 22.5817 70.2869 23.1376 71.4914 23.6987C72.1142 23.9869 72.5209 23.9869 72.9275 23.2663C74.1938 21.0065 75.455 20.4094 78.0236 20.8727C82.0696 21.6036 86.064 22.5971 90.0534 23.5957C90.1615 23.6163 90.2747 23.642 90.3828 23.6626C90.3622 23.5597 90.3416 23.4567 90.321 23.3538V23.3383ZM56.4709 27.4512C57.5364 27.3637 58.602 27.2659 59.6675 27.1835C60.2131 27.1424 60.6507 26.9159 60.9904 26.4938C61.7934 25.4849 62.5089 24.4193 63.0134 23.2354C63.4406 22.2316 63.2399 21.3462 62.1538 20.9036C58.638 19.4623 55.1068 18.057 51.4263 17.0584C50.263 16.7444 49.5217 17.1356 49.0996 18.2371C48.4407 19.9564 47.8642 21.7014 47.473 23.5031C47.2259 24.6304 47.5965 25.4025 48.7136 25.8349C51.2101 26.8078 53.7787 27.3997 56.476 27.4512H56.4709ZM81.2768 34.0195C82.0901 34.0195 82.9035 33.9937 83.7168 34.0298C84.2624 34.0504 84.5764 33.8393 84.8235 33.3606C85.6368 31.7597 86.4552 30.164 87.3406 28.5991C87.7679 27.8373 87.5517 27.5593 86.7795 27.3894C83.8197 26.7306 80.8702 26.0562 77.9206 25.3613C77.2772 25.212 76.8705 25.3407 76.5771 25.9584C75.6094 28.0071 74.6056 30.0353 73.8953 32.1972C73.6173 33.0311 73.7975 33.3554 74.6417 33.4738C76.8448 33.7827 79.048 34.1121 81.282 34.0195H81.2768Z" fill="#131B25"/>
<path d="M90.6658 59.3672C91.6489 61.6578 92.0762 64.0514 91.6695 66.5016C91.0827 70.0328 88.9053 72.2463 85.477 73.1316C82.2804 73.9553 79.089 73.7494 75.9953 72.5912C73.3546 71.6028 71.5633 69.7394 70.6058 67.0833C70.5183 66.8414 70.5183 66.5737 70.1116 66.3884C68.8351 68.2672 67.4246 70.0946 65.6384 71.5719C59.343 76.771 52.2806 78.7373 44.5645 75.5098C35.3761 71.6697 31.2426 64.0566 34.1613 54.3329C35.7776 48.9537 38.6705 44.2746 42.1503 39.9249C42.5724 39.3999 43.0768 38.9263 43.7717 39.4874C44.5181 40.0896 44.2813 40.7485 43.7717 41.392C41.0384 44.8357 38.7066 48.511 37.1108 52.6239C35.5717 56.5823 34.5577 60.6952 36.2769 64.7566C38.7477 70.5836 43.4268 73.9192 49.6656 74.609C57.4796 75.4686 63.4096 72.0352 67.8828 65.7758C68.4799 64.9419 68.5159 64.5507 67.4246 64.0669C63.0904 62.1468 59.4408 59.4135 57.3715 54.966C56.4501 52.9894 56.0795 50.9046 56.1361 48.7324C56.1773 47.2807 57.0833 46.3902 58.1488 45.6284C60.5167 43.9297 63.286 43.3274 66.076 42.8796C71.9287 41.9428 77.7557 42.1023 83.5313 43.5333C85.127 43.9297 86.6043 44.5886 87.9736 45.4843C89.8216 46.6939 90.5628 48.3669 90.0738 50.57C89.1369 54.791 86.6404 57.9876 83.3923 60.654C80.3913 63.1146 77.0299 64.8493 73.0972 65.2405C72.3457 65.3177 72.4641 65.7244 72.6339 66.2237C73.6686 69.2453 75.9953 70.6557 78.95 71.1962C80.7259 71.5205 82.5584 71.5411 84.324 71.2168C87.7883 70.5836 89.801 68.0356 90.3723 63.8455C90.5731 62.3733 90.6658 60.8908 90.6658 59.3723V59.3672Z" fill="#131B25"/>
<path d="M36.9361 20.7525C36.9464 21.7974 36.5861 22.6262 36.3339 23.4601C32.9159 34.8619 30.0076 46.3872 27.7323 58.0669C25.802 67.9811 24.2011 77.9518 22.9451 87.9792C21.6685 98.1816 20.6493 108.415 19.975 118.674C18.9404 134.42 18.4977 150.192 18.6521 165.975C18.6624 167.262 18.822 168.543 18.8323 169.825C18.8323 170.546 19.1411 170.767 19.8 170.875C21.6737 171.189 22.3686 171.534 23.8254 172.811C21.3546 172.713 19.136 172.79 16.9225 172.975C13.206 173.289 9.53067 173.814 6.13845 175.513C4.73832 176.213 3.48232 177.088 2.68445 178.483C1.70127 180.213 1.9638 181.222 3.68307 182.205C5.6134 183.306 7.77536 183.677 9.91673 184.053C14.776 184.907 19.7073 185.077 24.6232 185.309C28.0463 185.468 31.4797 185.458 34.9029 185.602C35.9118 185.643 36.339 185.293 36.581 184.336C37.8678 179.296 38.5216 174.17 38.954 169.001C39.7055 160.019 39.8445 151.021 39.8342 142.013C39.8342 141.817 39.7415 141.586 40.0504 141.364C40.596 142.281 40.5394 143.32 40.6321 144.273C41.4968 152.998 41.4762 161.738 40.838 170.474C40.4931 175.22 39.9526 179.945 38.6708 184.547C38.3877 185.556 38.9231 185.582 39.6643 185.582C46.3098 185.582 52.9552 185.597 59.6007 185.849C61.8708 185.937 64.1408 186.117 66.4109 186.091C67.6617 186.076 69.2468 186.935 69.3137 187.717C69.4012 188.752 66.9617 188.408 66.3903 188.366C56.6306 187.62 46.8503 188.001 37.0803 187.692C31.768 187.522 26.4455 187.661 21.1384 187.332C15.4761 186.982 9.7726 186.75 4.34196 184.815C4.22356 184.773 4.10002 184.732 3.98163 184.686C-0.56364 182.864 -1.31003 179.132 2.22118 175.683C4.61993 173.341 7.69815 172.399 10.8639 171.719C12.367 171.395 13.9061 171.163 15.4349 171.035C16.4592 170.952 16.8093 170.628 16.7784 169.557C16.5159 161.455 16.6085 153.353 16.7424 145.251C17.1439 120.661 18.822 96.1638 22.2914 71.8108C24.3607 57.2948 27.1095 42.9023 31.0576 28.762C31.943 25.5963 33.441 22.9042 36.2772 21.0974C36.4471 20.9893 36.6324 20.9018 36.9361 20.7422V20.7525Z" fill="#131B25"/>
<path d="M14.6678 28.2716C13.7361 28.1995 12.7117 28.0914 11.744 27.7208C9.54597 26.8817 8.78929 24.936 9.84453 22.8306C10.6784 21.168 12.0477 20.0098 13.5456 18.9803C16.3201 17.0757 19.3726 15.7219 22.4972 14.538C31.6701 11.0634 41.2136 9.11247 50.8704 7.60939C51.6734 7.48585 52.394 7.61968 52.5639 8.5308C52.7389 9.45735 52.1109 9.84857 51.2924 9.95152C47.3443 10.456 43.3961 11.0016 39.5149 11.9024C37.1779 12.4429 34.8718 13.0967 32.6635 14.0438C31.7885 14.4196 30.9906 14.9086 30.3008 15.5675C29.4772 16.3499 29.3125 17.3228 29.8169 18.2648C30.2905 19.145 31.2325 19.145 32.1025 18.9443C33.6673 18.5891 35.0571 17.8169 36.4264 17.0139C37.2397 16.5352 38.0015 16.2058 38.6244 17.2198C39.134 18.0537 38.7839 18.7641 37.6103 19.2685C31.3664 21.9607 25.1173 24.6477 18.8682 27.3244C17.5607 27.8855 16.1914 28.2201 14.6729 28.287L14.6678 28.2716Z" fill="#131B25"/>
<path d="M76.2168 130.214C75.8616 130.204 75.6505 129.982 75.5219 129.705C75.2851 129.2 75.1255 128.66 74.863 128.176C74.5541 127.609 74.5541 126.714 73.6687 126.678C72.8554 126.642 72.7165 127.45 72.4076 127.97C70.6472 130.961 68.9227 133.972 67.1674 136.963C66.8997 137.421 66.735 138.131 66.0658 138.08C65.3555 138.023 65.3967 137.261 65.2474 136.762C64.5267 134.301 63.8421 131.83 63.1729 129.36C63.034 128.845 62.9361 128.315 62.3184 128.222C61.6338 128.114 61.4897 128.711 61.2581 129.154C59.0704 133.375 56.8981 137.606 54.7052 141.827C54.4839 142.249 54.417 142.903 53.7118 142.826C53.1404 142.764 53.0323 142.228 52.8521 141.806C50.8086 136.957 48.7701 132.114 46.7472 127.259C46.5516 126.786 46.0419 126.209 46.6339 125.741C47.195 125.293 47.6634 125.864 48.1164 126.137C49.9438 127.249 51.7917 128.335 53.5728 129.514C54.5972 130.188 55.1428 129.957 55.6575 128.912C56.929 126.343 58.2725 123.811 59.5851 121.263C59.7807 120.882 59.9197 120.413 60.4242 120.382C61.0007 120.346 61.1654 120.846 61.397 121.263C62.7508 123.744 64.1201 126.22 65.4893 128.696C65.7364 129.143 65.9475 129.689 66.5858 129.617C67.2138 129.545 67.3116 128.958 67.4711 128.479C68.3153 125.967 69.1749 123.461 69.9677 120.938C70.2817 119.945 70.7244 119.677 71.6303 120.285C72.4848 120.856 73.3959 121.34 74.2401 121.927C75.0843 122.508 75.7432 122.498 76.469 121.69C77.3544 120.702 78.3479 119.811 79.3053 118.895C79.5369 118.673 79.7789 118.334 80.1804 118.576C80.5819 118.817 80.5922 119.198 80.4481 119.595C79.2332 122.936 78.0236 126.276 76.8036 129.617C76.7006 129.905 76.5462 130.163 76.2116 130.214H76.2168Z" fill="#131B25"/>
<path d="M76.2322 3.34618C75.9748 5.4824 74.6776 7.29948 72.876 8.77682C71.4758 9.92472 69.8544 10.7226 68.1557 11.3197C67.6255 11.505 66.9254 11.7315 66.5548 11.0211C66.2254 10.3931 66.6938 9.98649 67.121 9.61072C69.2006 7.77305 70.086 5.40519 70.2971 2.69759C70.4309 1.01435 71.7898 -0.0872277 73.4319 0.00542788C75.0791 0.103231 76.263 1.39527 76.2322 3.34103V3.34618Z" fill="#131B25"/>
<path d="M124.665 127.206C124.099 127 122.961 127.664 122.812 126.598C122.663 125.538 123.862 125.847 124.464 125.656C129.72 123.994 132.86 120.478 133.982 115.088C134.111 114.471 133.776 113.302 134.826 113.374C135.768 113.436 135.485 114.548 135.552 115.202C136.221 121.404 131.007 127.175 124.665 127.201V127.206Z" fill="#131B25"/>
<path d="M126.225 111.858C126.163 107.976 124.696 104.728 121.86 102.082C121.515 101.758 120.851 101.475 121.273 100.862C121.674 100.27 122.199 100.713 122.637 100.929C128.901 103.987 130.739 112.424 126.317 117.777C126.05 118.102 125.808 118.58 125.303 118.338C124.701 118.045 124.994 117.546 125.169 117.113C125.864 115.435 126.271 113.7 126.225 111.868V111.858Z" fill="#131B25"/>
<path d="M110.067 101.676C116.367 101.722 121.366 106.741 121.268 112.975C121.258 113.474 121.397 114.148 120.712 114.22C120.12 114.282 120.099 113.628 119.971 113.191C118.236 107.348 114.123 103.889 108.126 103.246C107.668 103.194 107.215 103.138 107.21 102.587C107.21 102.108 107.648 102.01 108.039 101.954C108.713 101.856 109.393 101.768 110.067 101.681V101.676Z" fill="#131B25"/>
<path d="M76.4479 14.2617C76.0001 14.2617 75.7427 14.272 75.4853 14.2617C74.9809 14.236 74.3683 14.3132 74.2448 13.6389C74.1058 12.877 74.8162 12.9182 75.2537 12.7535C77.0296 12.0895 78.2547 10.8644 79.1092 9.19141C79.7681 7.88909 80.9211 7.38463 82.0587 7.79643C83.4846 8.31119 83.9788 10.0202 83.0471 11.2968C81.3638 13.5926 78.8981 14.1433 76.4479 14.2669V14.2617Z" fill="#131B25"/>
<path d="M90.3209 23.3398C90.3415 23.4428 90.3621 23.5457 90.3827 23.6487C90.2746 23.6281 90.1613 23.6024 90.0532 23.5818C90.1407 23.4994 90.2334 23.4222 90.3209 23.3398Z" fill="#FEFEFE"/>
<path d="M42.9322 84.6367C44.2788 84.9409 45.631 85.2191 46.9684 85.5549C51.3106 86.6455 55.28 88.5171 58.8803 91.1529C60.5738 92.3938 62.0781 93.8424 63.614 95.2614C64.4561 96.0404 65.5486 96.0015 66.2219 95.113C68.4014 92.2361 71.2505 90.2458 74.5243 88.7768C76.6778 87.8123 78.9278 87.1853 81.2575 86.831C82.2164 86.6845 83.1198 86.4063 84.1678 86.588C85.7722 86.8663 86.8369 87.7789 87.679 88.9641C89.0368 90.8746 90.0384 92.9688 90.3408 95.3282C90.2907 95.3022 90.3445 95.3616 90.3408 95.3282V95.8364C90.3408 95.8364 90.4112 97.1361 90.4075 97.9695C90.4037 98.8199 90.3185 100.145 90.3185 100.145C90.261 100.201 90.3222 100.084 90.3185 100.145C90.1998 102.278 89.5469 104.289 88.779 106.255C88.3969 107.233 88.1409 108.388 86.8629 108.713C86.2916 108.858 85.7464 109.069 85.1212 109.191C84.2865 109.473 84.0008 109.409 82.899 109.473L80.9478 109.377C78.8518 109.421 76.9523 108.646 75.1512 107.73C71.8014 106.023 69.0914 103.506 66.693 100.67C65.658 99.446 65.1479 99.2401 63.7067 99.9783C59.9877 101.88 56.367 103.966 52.5701 105.725C49.9566 106.934 47.319 108.041 44.455 108.557C42.8172 108.852 41.3945 108.379 40.6025 107.068C40.0868 106.213 39.7548 105.267 39.4079 104.33C38.9516 103.095 38.8422 101.957 38.6567 100.566L38.4712 97.5058L38.6567 94.3321C38.6549 94.3896 38.7142 94.2765 38.6567 94.3321C38.7012 92.1656 39.1668 90.0659 39.8123 88.0181C40.2334 86.6789 40.4819 85.1301 42.1921 84.6367H42.9322ZM82.4168 108.223C82.8118 108.314 83.4036 108.205 84.0083 108.171C85.7686 108.079 87.0929 107.474 87.7495 105.523C88.664 102.8 89.3224 100.045 89.3317 97.2072C89.341 94.4898 88.2039 92.0302 86.6922 89.797C85.8112 88.493 84.6241 87.4839 82.8378 87.7529C81.9159 87.892 80.9996 88.0886 80.0889 88.2945C74.9583 89.4575 70.5215 91.7631 67.1772 95.8958C66.029 97.3147 64.2428 97.4464 62.77 96.2686C61.8314 95.5174 61.0301 94.6196 60.1342 93.8183C58.0271 91.9356 55.6807 90.4183 53.1599 89.1682C50.296 87.7473 47.2466 86.818 44.1193 86.128C42.1773 85.6996 41.8638 85.8201 41.2702 87.6806C40.0868 91.3829 39.5304 95.1538 39.7529 99.0602C39.9013 101.651 40.5153 104.059 41.708 106.352C42.0363 106.98 42.4944 107.292 43.2234 107.29C44.3567 107.285 45.4585 107.125 46.5288 106.769C49.5689 105.76 52.4736 104.471 55.2856 102.933C57.901 101.501 60.5683 100.158 63.2078 98.7634C64.9031 97.8675 66.3536 98.2162 67.2847 99.2976C68.9467 101.23 70.6866 103.059 72.7084 104.641C75.5 106.828 78.6143 108.092 82.4186 108.225L82.4168 108.223Z" fill="#131B25"/>
<path d="M82.4166 108.224C78.6122 108.091 75.4979 106.827 72.7063 104.641C70.6864 103.058 68.9447 101.229 67.2827 99.2967C66.3534 98.2153 64.9029 97.8666 63.2057 98.7625C60.5681 100.157 57.8989 101.5 55.2835 102.932C52.4734 104.472 49.5668 105.759 46.5267 106.768C45.4583 107.122 44.3547 107.284 43.2213 107.289C42.4924 107.293 42.0324 106.981 41.7059 106.351C40.5132 104.058 39.8993 101.651 39.7509 99.0593C39.5283 95.153 40.0829 91.3801 41.2682 87.6797C41.8636 85.8193 42.1771 85.6987 44.1172 86.1272C47.2446 86.8172 50.294 87.7465 53.1579 89.1673C55.6768 90.4175 58.0232 91.9366 60.1322 93.8174C61.0281 94.6187 61.8294 95.5165 62.7679 96.2677C64.2407 97.4456 66.0288 97.3139 67.1751 95.8949C70.5176 91.7604 74.9563 89.4548 80.0868 88.2936C80.9976 88.0878 81.912 87.8911 82.8358 87.752C84.622 87.4831 85.8091 88.494 86.6902 89.7961C88.2 92.0294 89.3371 94.4889 89.3297 97.2063C89.3204 100.044 88.6619 102.799 87.7474 105.522C87.0908 107.473 85.7683 108.081 84.0081 108.172C83.4034 108.204 82.8098 108.311 82.4147 108.222L82.4166 108.224Z" fill="#E05263"/>
</svg>
