<svg width="1015" height="408" viewBox="0 0 1015 408" fill="none" xmlns="http://www.w3.org/2000/svg">
<path d="M567.634 198.787C568.831 199.266 570.028 200.032 571.273 200.224C584.725 202.043 593.295 209.896 595.114 222.824C597.699 241.593 598.991 260.554 600.236 279.515C602.39 312.601 603.922 345.783 606.125 378.869C607.226 395.149 602.438 402.283 586.257 405.396C582.571 406.114 578.741 406.449 575.007 406.401C559.209 406.114 552.746 400.608 552.123 384.902C551.501 369.963 552.363 354.929 552.554 339.942C552.602 335.728 552.554 331.515 552.028 327.205C549.73 337.596 547.719 348.082 544.99 358.328C541.926 369.868 534.985 378.391 523.016 381.982C510.569 385.716 502.909 382.604 496.782 371.352C494.771 367.665 493.143 363.739 490.367 360.196C490.845 367.521 491.515 374.799 491.755 382.125C492.234 396.25 486.728 403.145 472.749 405.204C466.669 406.114 460.35 406.497 454.27 405.875C442.062 404.63 436.557 398.453 436.365 386.243C436.222 375.278 436.94 364.266 436.748 353.301C436.365 333.526 435.408 313.751 434.977 293.976C434.738 282.34 438.711 275.781 450.201 273.674C461.403 271.567 473.276 270.801 484.526 272.142C490.079 272.764 495.537 278.845 499.798 283.537C502.814 286.841 503.723 292.06 506.356 298.237C509.707 280.377 512.819 264.145 515.835 247.914C517.032 241.593 517.942 235.225 519.138 228.905C521.867 213.966 530.532 204.485 545.565 200.942C547.575 200.463 549.538 199.553 551.501 198.883C556.911 198.883 562.272 198.883 567.682 198.883L567.634 198.787Z" fill="white"/>
<path fill-rule="evenodd" clip-rule="evenodd" d="M502.003 204.871C500.825 208.799 497.959 211.823 493.128 212.822C499.306 227.57 472.087 227.817 476.802 216.554C468.69 232.954 451.466 220.976 460.964 210.153C454.219 210.97 449.62 206.899 448.512 201.222C437.074 201.422 425.637 201.655 414.199 201.9C409.148 202.007 404.095 202.082 399.041 202.157C383.88 202.382 368.719 202.606 353.639 203.719C327.022 205.682 310.026 219.568 304.473 242.886C300.117 261.081 299.973 279.563 303.899 297.854C307.441 314.421 317.351 325.673 334.011 330.222C337.973 331.323 342.023 332.149 346.071 332.974C349.946 333.765 353.819 334.554 357.613 335.585C361.001 336.497 364.279 337.876 367.552 339.252C369.087 339.897 370.622 340.543 372.166 341.139C372.07 342.479 372.023 343.819 371.975 345.159L371.975 345.161C370.057 345.66 368.148 346.277 366.243 346.894C362.109 348.231 357.992 349.564 353.831 349.662C347.021 349.845 340.173 349.308 333.323 348.77C329.434 348.465 325.544 348.16 321.66 347.986C310.697 347.507 304.138 352.248 302.175 362.973C301.026 369.437 300.835 376.284 301.409 382.892C302.51 395.724 305.239 399.076 318.117 401.901C344.017 407.551 370.012 407.407 395.72 400.656C410.561 396.729 420.614 386.962 422.098 371.592C423.391 357.898 423.965 343.725 421.955 330.174C418.46 306.617 404.146 291.247 380.592 285.022C379.543 284.742 378.492 284.464 377.44 284.185C371.481 282.609 365.49 281.024 359.671 278.989C356.224 277.792 352.73 275.829 350.192 273.291C344.687 267.689 345.74 262.901 353.352 261.033C361.395 259.07 369.772 257.634 378.007 257.634C397.896 257.581 417.8 257.749 437.71 257.917C453.648 258.052 469.589 258.187 485.531 258.208C499.414 258.256 506.739 251.601 507.888 238.05C508.51 230.629 508.079 223.063 507.505 215.642C507.097 210.843 505.224 207.21 502.003 204.871Z" fill="white"/>
<path d="M937.312 255.814C931.759 255.814 927.498 255.814 923.237 255.814C915.243 255.91 911.269 251.505 910.838 244.035C910.359 236.039 910.12 227.995 910.599 219.999C911.125 210.183 916.296 204.054 926.062 203.767C949.424 203.144 972.834 202.953 996.197 203.911C1008.4 204.437 1012.19 209.704 1013.05 222.249C1013.53 228.665 1013.62 235.081 1013.53 241.498C1013.38 251.218 1009.6 255.096 999.404 256.484C984.659 258.495 983.558 259.118 983.558 273.77C983.558 288.469 984.898 303.121 985.473 317.821C986.095 334.1 981.021 339.511 964.504 340.325C957.802 340.66 951.052 340.708 944.35 340.325C933.004 339.702 927.642 333.813 929.078 322.369C930.754 309.394 934.009 296.609 935.78 283.681C936.977 274.775 936.881 265.726 937.36 255.862L937.312 255.814Z" fill="white"/>
<path fill-rule="evenodd" clip-rule="evenodd" d="M895.854 346.884C881.684 343.437 872.253 334.914 868.04 320.215L868.088 320.358C886.806 310.303 895.376 294.263 895.95 273.722C896.141 265.438 896.189 257.107 895.95 248.823C895.28 225.026 883.12 209.417 859.805 203.91C836.347 198.356 812.65 199.41 789.192 203.815C771.958 207.023 765.782 214.54 766.021 232.065C766.133 239.446 766.611 246.816 767.088 254.181C767.632 262.583 768.176 270.977 768.176 279.372C768.125 296.792 767.798 314.212 767.471 331.633C767.174 347.394 766.878 363.156 766.787 378.917C766.692 396.825 774.256 404.199 792.4 404.582C797.714 404.677 803.219 403.863 808.341 402.475C818.395 399.794 824.762 393.282 825.145 382.508C825.41 375.3 825.354 368.092 825.295 360.317C825.268 356.832 825.241 353.234 825.241 349.47C826.926 352.416 828.532 355.237 830.086 357.968C833.787 364.468 837.198 370.459 840.704 376.427C850.662 393.282 865.407 403.145 885.035 404.821C918.163 407.598 951.244 407.742 984.229 403.241C1005.68 400.32 1016.69 393.473 1014.44 366.947C1013.38 354.641 1008.02 348.656 995.575 348.8C989.1 348.866 982.647 349.473 976.202 350.08C973.259 350.357 970.318 350.634 967.377 350.859C943.345 352.678 919.408 352.535 895.854 346.884ZM838.735 239.956C840.824 240.306 842.297 241.745 843.637 243.403C844.739 244.764 845.577 246.308 846.168 248.019C847.379 251.521 846.413 256.098 843.967 258.475C842.037 260.35 839.096 260.301 837.245 258.327C835.664 256.642 834.866 254.547 834.704 252.176C834.525 249.542 834.695 246.917 835.203 244.33C835.41 243.272 835.736 242.262 836.292 241.357C836.766 240.586 837.4 240.113 838.242 240.003C838.265 240 838.287 239.987 838.31 239.974C838.316 239.971 838.322 239.967 838.328 239.964L838.335 239.96L838.342 239.957H838.734L838.735 239.956ZM825.49 286.653C825.255 286.614 825.019 286.582 824.783 286.55C824.265 286.48 823.747 286.409 823.246 286.267C821.263 285.706 819.526 284.664 818.391 282.696C817.124 280.499 817.034 278.155 817.897 275.755C818.541 273.961 819.58 272.481 820.925 271.279C822.841 269.567 824.416 267.536 825.667 265.189C826.422 263.773 827.414 262.623 828.702 261.783C832.523 259.291 837.472 260.51 839.966 264.595C840.211 264.996 840.415 265.429 840.618 265.862C840.701 266.04 840.784 266.217 840.87 266.392C841.733 268.144 842.924 269.559 844.388 270.71C845.882 271.885 847.092 273.345 847.864 275.214C848.736 277.328 848.947 279.469 848.081 281.655C847.308 283.603 845.958 284.873 844.234 285.702C843.14 286.228 841.995 286.525 840.805 286.601C840.743 286.605 840.682 286.619 840.62 286.633L840.62 286.633C840.59 286.64 840.559 286.646 840.529 286.652H839.29C839.269 286.647 839.247 286.641 839.226 286.635C839.183 286.624 839.141 286.612 839.098 286.609C837.791 286.522 836.53 286.19 835.286 285.746C834.031 285.298 832.748 285.201 831.46 285.528C831.091 285.622 830.727 285.743 830.363 285.864L830.362 285.864C829.974 285.993 829.585 286.122 829.19 286.218C828.654 286.349 828.109 286.439 827.564 286.529L827.563 286.529C827.322 286.568 827.082 286.608 826.842 286.651H825.49V286.653ZM810.811 261.567L810.811 261.568C810.782 261.844 810.753 262.12 810.72 262.395L810.721 262.393V263.447C810.726 263.472 810.732 263.497 810.738 263.522L810.738 263.522C810.751 263.577 810.764 263.631 810.767 263.686C810.856 265.283 811.336 266.736 812.157 268.036C813.113 269.552 814.324 270.737 815.963 271.282C818.155 272.009 820.279 271.031 821.251 268.871C822.013 267.175 822.19 265.401 821.786 263.571C821.273 261.243 820.294 259.155 819.003 257.241C818.376 256.313 817.721 255.41 816.799 254.807C816.211 254.422 815.592 254.16 814.888 254.238C814.048 254.333 813.392 254.809 812.862 255.492C811.907 256.717 811.366 258.177 811.058 259.735C810.939 260.337 810.875 260.952 810.811 261.567L810.811 261.567ZM855.156 264.145V264.145C855.096 264.635 855.036 265.125 854.907 265.591C854.21 268.108 852.857 270.069 850.68 271.174C849.164 271.944 847.593 271.989 846.157 270.891C845.005 270.01 844.389 268.701 844.119 267.2C843.832 265.601 843.956 264.016 844.458 262.49C845.208 260.214 846.232 258.102 847.674 256.269C848.2 255.601 848.777 254.986 849.507 254.592C850.765 253.913 852 254.186 852.954 255.324C854.004 256.576 854.559 258.098 854.902 259.73C855.003 260.207 855.073 260.692 855.144 261.178C855.176 261.401 855.208 261.625 855.244 261.848L855.245 263.476C855.211 263.697 855.183 263.921 855.156 264.145ZM830.747 254.786C831.252 253.254 831.383 251.663 831.312 250.044L831.299 249.729V249.729C831.235 248.096 831.171 246.463 830.866 244.854C830.648 243.704 830.372 242.582 829.821 241.564C829.123 240.274 828.093 239.75 826.768 240.029C826.043 240.181 825.383 240.516 824.777 240.97C822.724 242.507 821.23 244.572 820.172 247.045C819.342 248.984 819.059 251.004 819.445 253.124C819.831 255.248 820.586 257.14 822.149 258.545C824.24 260.426 826.693 260.148 828.55 258.468C829.622 257.499 830.279 256.207 830.747 254.786Z" fill="white"/>
<path fill-rule="evenodd" clip-rule="evenodd" d="M673.213 199.116C672.551 199.007 671.891 198.899 671.233 198.787H663.095C661.882 198.963 660.669 199.165 659.456 199.367C657.031 199.771 654.605 200.176 652.18 200.367C627.525 202.33 620.44 210.47 622.259 234.842C623.934 257.777 626.998 260.028 650.121 258.783C662.137 258.16 674.249 258.878 686.218 260.028C692.106 260.602 697.181 264.816 696.606 271.423C695.984 278.414 690.67 281.909 683.824 282.58C680.039 282.956 676.24 283.188 672.442 283.419C668.987 283.63 665.533 283.84 662.089 284.16C640.116 286.171 624.222 297.375 622.977 314.66C621.445 335.393 621.397 356.365 622.546 377.146C623.456 393.569 631.929 402.571 648.589 403.816C672.143 405.587 695.936 405.97 719.538 404.821C736.82 404.007 745.006 395.101 747.304 377.816C749.315 362.733 750.655 347.411 750.464 332.233C750.129 306.042 749.267 279.803 746.921 253.755C745.102 233.453 735.336 216.36 715.516 208.411C707.594 205.228 698.959 203.744 690.313 202.258C686.472 201.598 682.629 200.938 678.845 200.128C677.001 199.738 675.104 199.426 673.213 199.116ZM698.204 359.257C699.324 354.218 699.589 348.992 699.393 343.675C699.381 343.331 699.37 342.986 699.358 342.641C699.178 337.279 698.997 331.916 698.268 326.637C697.748 322.864 697.093 319.182 695.815 315.846C694.196 311.619 691.833 309.915 688.816 310.849C687.165 311.361 685.666 312.469 684.291 313.969C679.639 319.046 676.274 325.85 673.909 333.986C672.056 340.367 671.453 347.006 672.377 353.961C673.304 360.933 675.066 367.134 678.66 371.727C683.473 377.873 689.064 376.926 693.268 371.381C695.692 368.183 697.166 363.929 698.204 359.257Z" fill="white"/>
<path d="M735.576 114.328C735.576 120.501 735.223 126.674 735.664 132.846C736.59 146.118 738.486 159.301 738.882 172.572C739.191 183.198 735.973 186.593 725.481 188.798C718.736 190.209 711.727 191.002 704.85 191.002C691.493 191.002 683.998 183.507 684.219 170.147C684.704 142.061 686.07 113.975 686.203 85.8895C686.291 65.2108 684.924 44.5322 684.219 23.8095C683.646 7.18718 687.569 3.04263 704.101 2.82218C709.787 2.734 715.518 2.68991 721.205 2.95445C732.226 3.48354 735.841 7.18718 736.017 18.0335C736.193 31.5695 736.017 45.1495 736.193 58.6854C736.193 61.7276 737.207 64.7699 737.824 68.209C746.333 66.9745 749.859 61.1985 751.358 55.2022C753.65 45.9872 755.193 36.3754 755.502 26.8958C756.163 4.6299 757.045 3.30718 779.087 3.30718C782.084 3.30718 785.038 3.30718 788.036 3.30718C797.469 3.30718 802.01 6.43763 803.2 15.6526C806.727 42.2395 802.671 66.7099 781.996 86.3304C771.416 96.3831 771.592 96.5595 777.896 109.743C778.646 111.286 779.395 112.873 780.189 114.372C793.811 140.121 807.917 146.779 837.497 141.797C842.611 140.915 847.813 140.254 853.015 140.165C859.363 140.077 863.462 143.119 863.154 150.086C862.713 159.918 862.845 169.839 861.346 179.494C860.817 182.934 856.585 187.916 853.323 188.489C829.65 192.722 805.933 193.383 783.142 183.771C769.785 178.128 761.85 167.149 756.207 154.451C751.27 143.428 746.994 132.141 742.233 121.03C741.131 118.473 739.367 116.224 737.913 113.843C737.163 114.019 736.37 114.196 735.62 114.328H735.576Z" fill="white"/>
<path d="M815.235 85.9786C815.235 75.1764 815.367 64.33 815.191 53.5277C815.102 47.7518 817.836 45.5914 823.346 45.7677C831.502 45.9882 839.701 45.7236 847.857 46.0764C856.232 46.4732 860.42 50.265 860.509 58.4218C860.685 78.1305 860.376 97.795 860.156 117.504C860.068 124.735 855.703 129.32 849.047 130.29C840.539 131.525 831.81 131.833 823.17 131.657C817.747 131.569 814.75 127.512 814.662 122.177C814.441 110.14 814.618 98.0595 814.618 86.0227C814.838 86.0227 815.014 86.0227 815.235 86.0227V85.9786Z" fill="white"/>
<path d="M829.862 42C829.049 41.8814 828.218 41.8294 827.425 41.6314C825.272 41.0956 823.385 40.099 822.152 38.2185C820.776 36.1186 820.678 33.8789 821.615 31.5846C822.315 29.8704 823.444 28.4557 824.905 27.3073C826.985 25.6708 828.695 23.7305 830.055 21.4874C830.875 20.1341 831.952 19.0352 833.351 18.2323C837.501 15.85 842.876 17.0155 845.586 20.9191C845.961 21.4601 846.246 22.0607 846.568 22.6367C847.504 24.3116 848.798 25.6631 850.388 26.7638C852.011 27.8866 853.326 29.2817 854.164 31.0683C855.111 33.088 855.34 35.1349 854.399 37.2236C853.56 39.0853 852.093 40.2987 850.221 41.0913C849.032 41.5939 847.79 41.878 846.496 41.9505C846.396 41.9565 846.297 41.9829 846.197 41.9991H844.852C844.782 41.9855 844.713 41.9625 844.643 41.9582C843.223 41.8746 841.853 41.558 840.503 41.1331C839.139 40.7048 837.746 40.6126 836.347 40.9249C835.517 41.1109 834.712 41.4062 833.881 41.5845C833.041 41.7654 832.182 41.8635 831.331 41.9983H829.862V42Z" fill="white"/>
<path d="M843.081 5.92263e-09C845.162 0.29869 846.627 1.52908 847.962 2.94597C849.058 4.10964 849.892 5.42949 850.481 6.89186C851.687 9.88483 850.725 13.7966 848.29 15.8283C846.369 17.4317 843.441 17.3892 841.598 15.7025C840.024 14.2621 839.231 12.4715 839.069 10.4443C838.89 8.19351 839.06 5.94955 839.565 3.73818C839.772 2.83453 840.096 1.97105 840.65 1.19704C841.122 0.538249 841.752 0.134183 842.59 0.0401792C842.625 0.0363887 842.657 0.0144039 842.69 0.000758103C842.82 0.000758103 842.95 0.000758103 843.08 0.000758103L843.081 5.92263e-09Z" fill="white"/>
<path d="M815 19.0859C815.106 18.3163 815.161 17.5353 815.33 16.7788C815.631 15.4283 816.158 14.1613 817.089 13.099C817.607 12.5072 818.247 12.0941 819.066 12.0121C819.752 11.9439 820.356 12.1715 820.93 12.5049C821.829 13.0284 822.468 13.811 823.08 14.6166C824.339 16.276 825.294 18.0872 825.795 20.1061C826.189 21.6934 826.016 23.2317 825.273 24.7026C824.325 26.5766 822.252 27.4243 820.115 26.7935C818.516 26.3214 817.334 25.2935 816.402 23.979C815.601 22.8508 815.133 21.5907 815.046 20.2057C815.041 20.1359 815.016 20.0677 815.001 19.9988C815.001 19.6937 815.001 19.3894 815.001 19.0843L815 19.0859Z" fill="white"/>
<path d="M861 19.9245C860.894 20.5292 860.855 21.1546 860.671 21.7364C859.991 23.8923 858.671 25.5726 856.548 26.5191C855.069 27.1781 853.537 27.2171 852.135 26.276C851.012 25.5214 850.411 24.4006 850.148 23.1148C849.868 21.7448 849.989 20.387 850.479 19.0797C851.21 17.1303 852.209 15.3215 853.616 13.7512C854.128 13.1793 854.692 12.6526 855.404 12.3147C856.631 11.7329 857.835 11.9668 858.766 12.9416C859.789 14.0142 860.331 15.3176 860.666 16.7159C860.809 17.313 860.89 17.9246 860.999 18.5301L861 19.9245Z" fill="white"/>
<path d="M836.982 8.62267C837.053 10.0066 836.923 11.3662 836.42 12.6758C835.955 13.8898 835.3 14.9947 834.233 15.8228C832.385 17.259 829.943 17.4963 827.861 15.8887C826.306 14.6876 825.554 13.0709 825.169 11.2547C824.785 9.44315 825.067 7.7165 825.893 6.05885C826.947 3.94546 828.434 2.18013 830.477 0.866748C831.081 0.478497 831.738 0.192617 832.459 0.0621888C833.778 -0.175918 834.804 0.27148 835.498 1.37405C836.047 2.24458 836.322 3.20384 836.539 4.1866C836.862 5.65012 836.913 7.13715 836.982 8.62267Z" fill="white"/>
<path fill-rule="evenodd" clip-rule="evenodd" d="M301.044 23.7676C305.805 9.83484 316.385 3.39756 330.448 3.2212C347.993 3.04484 365.715 2.86847 383.128 4.72029C399.527 6.48393 406.183 14.773 405.831 31.2189C405.693 36.9308 404.393 42.6084 403.091 48.2944C402.303 51.7379 401.514 55.1844 400.981 58.6435C400.541 61.5976 400.408 65.5658 401.951 67.7703C418.923 91.9762 406.933 123.986 377.485 129.894C358.22 133.774 338.559 134.083 319.074 129.894C310.61 128.087 303.998 124.03 301 115.521V23.7676H301.044ZM347.167 36.2974C347.337 35.3453 347.571 34.4227 347.876 33.5326C348.008 33.0617 348.18 32.6115 348.398 32.1928C349.021 30.7795 349.842 29.4586 350.888 28.2428C351.481 27.5544 352.172 26.9775 352.995 26.5753C354.5 25.8403 355.888 26.0656 357.105 27.226C358.065 28.1421 358.728 29.2601 359.328 30.427C360.168 32.0597 360.727 33.7975 361.286 35.5353L361.286 35.5354L361.394 35.8707C361.957 37.5912 362.27 39.3475 362.118 41.1633C361.977 42.8468 361.571 44.4549 360.574 45.8501C358.846 48.2697 355.991 49.3741 352.931 48.0351C350.645 47.0344 349.182 45.245 348.092 43.0834C347.004 40.9273 346.746 38.6586 347.167 36.2974ZM363.118 95.1633C363.27 93.3475 362.957 91.5912 362.394 89.8707C362.358 89.7589 362.322 89.6471 362.286 89.5353C361.727 87.7975 361.168 86.0597 360.328 84.427C359.728 83.2601 359.065 82.1421 358.105 81.226C356.888 80.0656 355.5 79.8402 353.995 80.5753C353.172 80.9775 352.481 81.5544 351.888 82.2428C349.884 84.5718 348.705 87.2867 348.167 90.2974C347.746 92.6586 348.004 94.9273 349.092 97.0834C350.182 99.245 351.645 101.034 353.931 102.035C356.991 103.374 359.846 102.27 361.574 99.8501C362.571 98.4549 362.977 96.8468 363.118 95.1633Z" fill="white"/>
<path fill-rule="evenodd" clip-rule="evenodd" d="M328.862 141.358C317.885 139.55 306.952 138.448 301.045 151.146L301.133 151.19V176.366C305.145 185.228 312.771 189.284 321.808 189.593C324.404 189.685 327.001 189.784 329.597 189.882C346.847 190.535 364.112 191.189 381.277 190.078C398.205 189.02 415.398 186.418 431.62 181.701C451.282 176.013 459.966 161.904 460.363 141.534C460.39 139.873 460.355 138.205 460.32 136.537C460.241 132.756 460.161 128.979 460.804 125.308C461.289 122.575 464.154 118.43 466.226 118.254C468.739 118.033 473.059 120.767 473.941 123.192C475.616 127.91 476.012 133.289 475.924 138.359C475.819 143.43 475.48 148.5 475.142 153.571C474.774 159.082 474.406 164.593 474.337 170.105C474.249 180.995 480.862 188.358 491.75 189.593C498.363 190.298 505.108 190.387 511.764 189.858C523.975 188.932 529.398 182.759 529.398 170.678C529.391 165.885 529.386 161.091 529.38 156.298C529.348 127.538 529.316 98.7783 529.089 70.0185C529.001 57.673 528.692 45.3276 527.634 33.0703C526.488 19.9312 519.523 10.4516 506.695 5.99847C492.71 1.12705 478.386 2.24824 464.135 3.36364C461.36 3.58084 458.588 3.79782 455.822 3.97028C450.797 4.27892 445.551 6.13074 441.01 8.42347C425.184 16.3157 421.349 31.1744 420.423 46.8707C419.599 60.8041 419.141 74.7924 418.683 88.7767C418.431 96.4759 418.179 104.174 417.866 111.861C417.337 124.603 409.579 132.01 398.558 136.596C394.017 138.492 389.168 139.814 384.363 140.873C365.892 144.929 347.421 144.356 328.862 141.358ZM478.797 37C480.721 37.3218 482.077 38.6473 483.312 40.1738C484.326 41.4275 485.098 42.8494 485.642 44.4249C486.757 47.6493 485.868 51.8637 483.615 54.0525C481.838 55.7799 479.13 55.7342 477.425 53.9169C475.969 52.3651 475.235 50.436 475.086 48.2521C474.92 45.8272 475.077 43.4097 475.545 41.0273C475.736 40.0538 476.035 39.1235 476.548 38.2896C476.984 37.5799 477.568 37.1446 478.343 37.0433C478.365 37.0405 478.385 37.0287 478.406 37.0168C478.415 37.0112 478.425 37.0055 478.435 37.0008H478.796L478.797 37ZM466.601 80C466.385 79.9642 466.167 79.9347 465.95 79.9052C465.473 79.8405 464.996 79.7758 464.534 79.6449C462.709 79.1286 461.109 78.1683 460.064 76.3564C458.898 74.3332 458.815 72.1752 459.609 69.9645C460.203 68.3129 461.159 66.9499 462.398 65.8433C464.162 64.2665 465.612 62.397 466.764 60.2357C467.459 58.9318 468.372 57.873 469.558 57.0993C473.077 54.804 477.634 55.927 479.931 59.6882C480.157 60.058 480.344 60.4568 480.531 60.8555L480.532 60.8566C480.608 61.0194 480.685 61.1823 480.764 61.3431C481.558 62.9569 482.654 64.2591 484.003 65.3196C485.379 66.4015 486.493 67.7457 487.204 69.4671C488.007 71.4131 488.201 73.3853 487.403 75.3978C486.692 77.1917 485.448 78.3607 483.861 79.1245C482.853 79.6087 481.8 79.8824 480.703 79.9523C480.646 79.9562 480.59 79.9688 480.533 79.9815L480.533 79.9815C480.505 79.9878 480.477 79.994 480.45 79.9992H479.309C479.289 79.9948 479.269 79.9893 479.249 79.9839L479.229 79.9782C479.219 79.9756 479.209 79.9732 479.2 79.9709C479.19 79.9685 479.18 79.9664 479.17 79.9645C479.159 79.9626 479.149 79.9611 479.138 79.9602L479.132 79.9597C477.928 79.8792 476.767 79.5742 475.622 79.1647C474.466 78.752 473.285 78.6633 472.099 78.9641C471.758 79.0508 471.423 79.162 471.088 79.2733L471.088 79.2733C470.73 79.3921 470.372 79.5109 470.008 79.5996C469.514 79.7205 469.013 79.803 468.511 79.8855L468.51 79.8857C468.288 79.9221 468.067 79.9586 467.846 79.9984H466.601V80ZM453.084 56.9007C453.057 57.1549 453.031 57.4091 453 57.6622L453.001 57.6605V58.6314C453.015 58.7046 453.039 58.7771 453.043 58.8511C453.125 60.3216 453.567 61.6595 454.323 62.8574C455.203 64.253 456.319 65.3443 457.829 65.8456C459.846 66.5154 461.803 65.6153 462.698 63.6256C463.4 62.0639 463.562 60.4307 463.191 58.7453C462.718 56.6018 461.816 54.6788 460.627 52.917C460.05 52.0617 459.447 51.2308 458.598 50.675C458.057 50.321 457.486 50.0793 456.839 50.1517C456.065 50.2388 455.461 50.6774 454.972 51.3057C454.094 52.4336 453.595 53.7788 453.311 55.2127C453.202 55.7669 453.143 56.3336 453.084 56.9001L453.084 56.9007ZM494 58.6577C493.969 58.8617 493.944 59.0678 493.918 59.274C493.863 59.725 493.808 60.1763 493.689 60.6055C493.048 62.9231 491.801 64.7295 489.797 65.7469C488.401 66.4553 486.954 66.4972 485.632 65.4855C484.571 64.6744 484.003 63.4696 483.755 62.0872C483.491 60.6145 483.605 59.1549 484.068 57.7496C484.758 55.6539 485.701 53.7095 487.029 52.0214C487.513 51.4067 488.045 50.8404 488.717 50.4772C489.875 49.8518 491.012 50.1032 491.891 51.1511C492.857 52.3041 493.368 53.7053 493.685 55.2085C493.777 55.6479 493.842 56.0945 493.907 56.5414C493.937 56.7474 493.967 56.9534 493.999 57.1587L494 58.6577ZM471.442 50.6562C471.907 49.2453 472.027 47.7805 471.962 46.2896L471.95 45.9992C471.891 44.4955 471.832 42.9918 471.551 41.5104C471.351 40.4516 471.096 39.4182 470.589 38.4803C469.947 37.2925 468.998 36.8105 467.778 37.067C467.111 37.2075 466.503 37.5155 465.944 37.9338C464.054 39.3487 462.678 41.2506 461.704 43.5275C460.94 45.3133 460.679 47.1735 461.034 49.1252C461.39 51.0818 462.085 52.8235 463.524 54.1176C465.45 55.8495 467.709 55.5938 469.419 54.0465C470.406 53.1544 471.011 51.9641 471.442 50.6562Z" fill="white"/>
<path fill-rule="evenodd" clip-rule="evenodd" d="M621.812 0.456843C621.219 0.334419 620.626 0.212131 620.034 0.0898438H585.737C583.249 0.558973 580.748 0.977682 578.248 1.39622C572.994 2.27577 567.745 3.15457 562.637 4.49893C550.514 7.76166 544.916 15.1689 544.342 27.5144C544.205 30.1932 544.255 32.8987 544.305 35.5893C544.319 36.353 544.333 37.1154 544.342 37.8758C544.445 44.7121 544.575 51.5447 544.704 58.3758C545.017 74.9388 545.331 91.4926 545.268 108.068C545.222 119.125 544.899 130.193 544.576 141.267C544.281 151.39 543.986 161.519 543.902 171.648C543.813 184.125 548.574 189.46 561.05 190.342C569.117 190.915 577.405 190.033 585.472 189.019C591.909 188.226 596.846 184.169 597.595 177.644C598.35 171.06 598.357 164.369 598.365 157.696C598.367 155.789 598.369 153.884 598.389 151.983C598.448 146.251 598.428 140.519 598.408 134.788C598.399 131.922 598.389 129.056 598.389 126.19C598.664 126.116 598.947 126.035 599.235 125.953C599.637 125.838 600.049 125.72 600.461 125.617C601.254 127.558 602.14 129.479 603.026 131.399C604.997 135.671 606.968 139.942 607.911 144.443C609.88 153.915 611.143 163.517 612.404 173.11C612.781 175.975 613.158 178.84 613.554 181.7C614.479 188.578 618.359 191.621 625.192 191.356C627.459 191.272 629.726 191.239 631.993 191.207C635.677 191.153 639.361 191.1 643.045 190.827C654.86 189.989 658.739 186.286 660.194 174.558C662.883 152.821 658.475 132.892 644.809 115.343C643.695 113.896 642.652 112.377 641.568 110.8C640.936 109.88 640.289 108.939 639.607 107.98C640.796 107.103 641.956 106.252 643.094 105.418C646.13 103.19 649.008 101.079 651.862 98.8976C661.825 91.2698 667.776 81.1289 669.143 68.9158C670.113 60.4062 669.98 51.6321 669.099 43.1226C667.027 23.1935 651.818 6.92393 632.245 2.64712C628.781 1.89402 625.286 1.17309 621.812 0.456843ZM602.299 83.7039C602.134 83.3863 601.97 83.0783 601.807 82.7783C600.552 82.3419 599.302 81.3548 598.115 79.7433C595.476 76.1581 594.181 71.3182 593.499 65.8763C592.818 60.4481 593.259 55.2674 594.617 50.2878C596.35 43.9392 598.818 38.6297 602.23 34.6695C603.239 33.4988 604.338 32.6345 605.549 32.2357C607.763 31.5076 609.498 32.8383 610.687 36.1371C611.626 38.7417 612.107 41.6152 612.49 44.5599C612.559 45.0842 612.62 45.6095 612.676 46.1358C613.005 48.3685 613.162 50.7118 613.156 53.0993C613.211 54.4148 613.253 55.7324 613.295 57.0499C613.304 57.3191 613.312 57.5883 613.321 57.8574C613.466 62.0065 613.273 66.085 612.453 70.0174C611.693 73.6629 610.612 76.983 608.834 79.4774C607.123 81.8793 605.097 83.1752 603.028 83.0318C602.789 83.2646 602.546 83.4888 602.299 83.7039Z" fill="white"/>
<path fill-rule="evenodd" clip-rule="evenodd" d="M999.211 0.518478C999.019 0.370214 998.826 0.220637 998.623 0.0901349V0.00195312H989.674C989.148 0.155846 988.622 0.32093 988.096 0.486355C986.811 0.889666 985.521 1.295 984.208 1.54514C969.087 4.27877 963.665 10.3192 963.665 25.5306C963.689 36.6267 963.85 47.7227 964.01 58.8188C964.139 67.6959 964.267 76.573 964.326 85.4501C964.357 88.4826 964.084 91.5367 963.812 94.5821C963.696 95.8761 963.58 97.1685 963.488 98.457C963.143 98.5031 962.785 98.5371 962.422 98.5717C962.09 98.6033 961.753 98.6353 961.416 98.6774C960.634 95.8163 959.846 92.9552 959.057 90.0924C956.867 82.1467 954.674 74.1884 952.6 66.1824L952.282 64.9439C948.774 51.2501 945.274 37.5942 942.108 23.8551C939.507 12.612 934.085 3.92604 922.623 0.00195312H903.226C886.034 4.49923 879.333 15.8306 879.245 33.1583C878.995 74.0387 878.12 114.958 877.245 155.843C877.192 158.349 877.138 160.854 877.085 163.359C876.644 185.801 880.479 192.767 907.943 188.447C924.078 185.889 930.734 178.35 930.205 162.345C929.75 148.434 928.876 134.545 928.002 120.648C927.607 114.37 927.212 108.091 926.855 101.808C926.796 100.872 926.932 99.9162 927.068 98.9541C927.138 98.4662 927.207 97.9766 927.252 97.487C930.646 102.602 932.894 107.76 934.57 113.095C940.918 133.553 947.177 154.056 953.305 174.602C956.303 184.611 963.136 189.901 973.275 190.607C975.211 190.735 977.159 190.841 979.109 190.903C978.761 188.818 979.088 186.565 980.276 184.229C966.116 180.192 981.589 160.473 986.979 170.34C979.848 155.076 998.366 149.574 1000.69 162.629C1003.86 157.501 1009.15 156.417 1013.75 158.552C1013.71 149.59 1013.65 140.624 1013.6 131.656C1013.47 111.706 1013.35 91.7439 1013.35 71.782C1013.39 54.5424 1013.83 37.2588 1014.32 20.0192C1014.63 7.36514 1012.82 4.71968 1000.43 1.2365C999.986 1.11814 999.602 0.821041 999.211 0.518478Z" fill="white"/>
<path d="M191.199 52.4071C190.665 51.2956 189.63 50.6745 188.758 49.8899C187.058 48.3862 185.38 46.8497 184.083 44.9646C183.473 44.0711 182.667 43.1449 183.331 42.0007C183.909 41.0091 185.031 41.129 186.034 41.1181C188.257 41.0963 190.349 41.7283 192.376 42.5128C212.861 50.5219 226.548 64.5787 231.429 86.4593C231.985 88.9655 231.996 91.5262 231.669 94.0434C230.994 99.3719 226.319 101.42 221.829 98.3802C219.552 96.8438 217.732 94.8388 216.109 92.6159C210.497 84.9337 206.966 76.151 202.836 67.6951C202.248 66.4747 201.616 65.2543 200.831 64.1646C199.927 62.9006 198.663 62.2795 197.028 62.8243C195.688 63.2711 195.067 63.8595 195.863 65.385C202.782 78.6136 205.506 93.0409 207.751 107.577C211.488 131.844 212.643 156.307 213.275 180.814C213.962 206.966 216.653 232.933 220.663 258.78C222.178 268.543 223.682 278.307 225.229 288.07C225.382 289.007 225.207 290.358 226.155 290.729C227.201 291.143 227.833 289.89 228.498 289.225C237.205 280.519 242.86 270.352 243.339 257.777C243.536 252.634 242.511 247.676 240.92 242.805C240.746 242.26 239.918 241.672 240.67 241.171C241.411 240.669 241.945 241.291 242.381 241.955C251.49 255.914 254.411 270.526 247.251 286.283C243.536 294.477 237.641 300.961 231.113 306.932C229.566 308.338 228.978 309.569 229.392 311.814C232.89 330.796 236.725 349.713 240.485 368.64C240.92 370.809 241.814 371.506 244.059 371.604C254.737 372.062 264.948 374.296 273.796 380.714C277.631 383.493 280.639 386.979 280.781 392.123C280.922 397.32 278.59 400.96 273.774 402.998C268.282 405.319 262.441 406.234 256.59 406.67C240.267 407.879 223.943 407.16 207.62 406.365C192.942 405.646 178.308 404.458 163.652 403.444C157.953 403.052 149.16 402.378 143.461 402.007C140.824 401.833 145.247 400.023 145.018 398.868C144.702 397.233 140.55 397.052 141.281 397.104C152.679 397.899 169.7 399.14 181.098 399.925C185.979 400.263 190.872 400.513 195.754 400.895C197.225 401.004 197.639 400.677 197.41 399.129C193.062 369.686 194.272 340.113 195.579 310.55C195.884 303.663 196.364 296.777 196.789 289.901C196.821 289.312 196.593 288.637 197.246 288.081C198.205 288.68 197.878 289.683 197.922 290.489C200.025 322.907 202.357 355.325 202.379 387.84C202.379 391.654 202.357 395.468 202.259 399.271C202.226 400.688 202.51 401.309 204.155 401.418C220.282 402.507 236.42 402.845 252.569 402.322C258.442 402.126 264.327 401.505 269.982 399.707C277.032 397.462 278.449 391.295 273.055 386.173C266.931 380.365 259.216 378.044 251.152 376.846C240.419 375.255 229.817 377.031 219.236 378.6C218.974 378.644 218.702 378.643 218.288 378.687C218.669 377.216 219.868 376.704 220.925 376.083C225 373.675 229.501 372.585 234.121 372.182C236.366 371.986 236.507 371.256 236.06 369.305C230.808 346.956 225.556 324.618 221.034 302.105C215.477 274.427 210.442 246.674 207.86 218.538C206.618 204.961 206.541 191.351 206.814 177.73C207.271 154.76 206.912 131.8 203.839 108.983C202.128 96.2772 199.48 83.7896 194.086 72.0429C193.759 71.3237 193.661 70.1687 192.844 70.0706C191.744 69.9399 191.646 71.2257 191.231 71.9666C190.153 73.8627 188.987 75.726 188.159 77.7201C186.023 82.8851 181.926 84.7049 176.706 84.803C168.795 84.9446 160.949 84.2254 153.202 82.6236C148.048 81.5557 145.149 76.8484 146.413 71.7487C147.002 69.395 147.764 67.0631 148.647 64.7966C149.257 63.2166 149.072 62.3122 147.383 61.6584C144.942 60.7104 142.578 58.7489 140.169 58.7271C137.543 58.7054 137.053 62.2468 135.506 64.1101C132.4 67.8477 128.205 68.6867 123.824 68.9592C115.674 69.4495 107.719 68.3707 100.146 65.1998C93.8476 62.5628 91.3631 57.7138 92.7252 51.0341C93.5969 46.7626 94.8719 42.6218 96.5499 38.6009C99.0453 32.6077 104.069 29.7964 110.312 31.3328C119.139 33.4904 127.551 36.8901 135.854 40.5405C138.731 41.8046 140.507 44.2672 141.401 47.2638C141.771 48.5169 142.458 49.2361 143.646 49.7265C146.239 50.8052 148.789 51.9821 151.339 53.1698C152.657 53.78 153.518 53.78 154.379 52.2545C157.059 47.4708 159.729 46.2068 165.167 47.1875C173.731 48.7349 182.187 50.8379 190.632 52.9519C190.861 52.9955 191.101 53.05 191.329 53.0936C191.286 52.8756 191.242 52.6577 191.199 52.4397V52.4071ZM119.542 61.1135C121.798 60.9283 124.053 60.7212 126.309 60.5469C127.464 60.4597 128.39 59.9803 129.109 59.0867C130.809 56.951 132.324 54.6954 133.392 52.1891C134.296 50.0643 133.871 48.19 131.572 47.2529C124.13 44.2018 116.654 41.227 108.863 39.1131C106.401 38.4484 104.831 39.2765 103.938 41.6084C102.543 45.2479 101.323 48.9419 100.495 52.7558C99.9715 55.1421 100.756 56.7766 103.121 57.692C108.406 59.7514 113.843 61.0046 119.553 61.1135H119.542ZM172.053 75.0177C173.775 75.0177 175.497 74.9632 177.218 75.0395C178.373 75.0831 179.038 74.6363 179.561 73.6229C181.283 70.2341 183.015 66.8561 184.89 63.5435C185.794 61.9308 185.336 61.3423 183.702 60.9828C177.436 59.588 171.192 58.1605 164.949 56.6895C163.586 56.3735 162.726 56.6459 162.105 57.9535C160.056 62.2904 157.931 66.5837 156.427 71.1603C155.839 72.9256 156.22 73.612 158.007 73.8627C162.671 74.5165 167.335 75.2139 172.064 75.0177H172.053Z" fill="white"/>
<path d="M191.929 128.671C194.01 133.52 194.914 138.587 194.053 143.774C192.811 151.249 188.202 155.935 180.945 157.809C174.178 159.553 167.422 159.117 160.873 156.665C155.283 154.573 151.491 150.628 149.464 145.006C149.279 144.493 149.279 143.927 148.418 143.535C145.716 147.512 142.73 151.38 138.949 154.507C125.622 165.513 110.672 169.676 94.3376 162.843C74.887 154.715 66.137 138.598 72.3154 118.014C75.737 106.627 81.8609 96.7223 89.2271 87.5145C90.1206 86.4031 91.1885 85.4006 92.6596 86.5883C94.2396 87.8632 93.7383 89.258 92.6596 90.6201C86.8734 97.91 81.9372 105.69 78.5592 114.397C75.3011 122.776 73.1545 131.483 76.794 140.08C82.0244 152.415 91.9295 159.476 105.136 160.937C121.677 162.756 134.23 155.488 143.7 142.238C144.964 140.473 145.04 139.644 142.73 138.62C133.555 134.556 125.829 128.769 121.449 119.355C119.498 115.17 118.714 110.757 118.833 106.159C118.921 103.086 120.838 101.201 123.094 99.5881C128.107 95.9922 133.969 94.7173 139.875 93.7693C152.265 91.7861 164.6 92.1239 176.826 95.1531C180.204 95.9922 183.331 97.387 186.23 99.283C190.141 101.844 191.711 105.385 190.675 110.049C188.692 118.984 183.407 125.751 176.532 131.396C170.179 136.604 163.063 140.276 154.738 141.105C153.147 141.268 153.398 142.129 153.757 143.186C155.948 149.582 160.873 152.568 167.128 153.712C170.887 154.399 174.766 154.442 178.504 153.756C185.837 152.415 190.098 147.021 191.307 138.152C191.732 135.035 191.929 131.897 191.929 128.682V128.671Z" fill="white"/>
<path d="M78.1894 46.928C78.2112 49.1401 77.4484 50.8944 76.9144 52.6597C69.679 76.7959 63.5224 101.194 58.706 125.918C54.6198 146.905 51.2309 168.012 48.5721 189.239C45.8697 210.836 43.7122 232.499 42.2847 254.216C40.0945 287.549 39.1573 320.937 39.4842 354.346C39.506 357.07 39.8438 359.783 39.8656 362.497C39.8656 364.022 40.5194 364.491 41.9142 364.72C45.8806 365.384 47.3517 366.114 50.4354 368.817C45.205 368.61 40.5085 368.773 35.823 369.165C27.9555 369.83 20.1753 370.942 12.9944 374.537C10.0305 376.019 7.37165 377.872 5.68266 380.825C3.60139 384.486 4.15712 386.622 7.79662 388.703C11.8829 391.035 16.4595 391.82 20.9925 392.615C31.279 394.424 41.7181 394.784 52.1244 395.274C59.3707 395.612 66.6388 395.59 73.8851 395.895C76.0209 395.982 76.9253 395.241 77.4375 393.214C80.1617 382.547 81.5455 371.693 82.4609 360.753C84.0518 341.738 84.346 322.691 84.3242 303.622C84.3242 303.208 84.1281 302.717 84.7819 302.249C85.9369 304.188 85.817 306.389 86.0132 308.405C87.8438 326.875 87.8002 345.378 86.449 363.87C85.719 373.916 84.5748 383.92 81.8615 393.661C81.2622 395.797 82.3955 395.851 83.9646 395.851C98.0322 395.851 112.1 395.884 126.168 396.418C130.973 396.603 135.778 396.985 140.584 396.93C143.232 396.898 146.587 398.716 146.729 400.372C146.914 402.563 141.75 401.834 140.54 401.747C119.88 400.167 99.1764 400.973 78.4945 400.319C67.2491 399.96 55.9819 400.254 44.7474 399.556C32.761 398.815 20.6874 398.325 9.1914 394.228C8.94078 394.141 8.67926 394.053 8.42863 393.955C-1.19316 390.098 -2.77318 382.198 4.70196 374.897C9.77983 369.939 16.2961 367.945 22.9975 366.507C26.1794 365.82 29.4375 365.33 32.6738 365.057C34.8423 364.883 35.5832 364.197 35.5178 361.93C34.9621 344.779 35.1582 327.627 35.4416 310.476C36.2915 258.422 39.8438 206.565 47.1882 155.012C51.5687 124.284 57.3875 93.8166 65.7453 63.8833C67.6195 57.1818 70.7905 51.4829 76.7946 47.6581C77.1542 47.4293 77.5464 47.244 78.1894 46.9062V46.928Z" fill="white"/>
<path d="M31.05 62.8475C29.0777 62.6949 26.9092 62.4661 24.8606 61.6815C20.2077 59.9054 18.6059 55.7864 20.8398 51.3297C22.605 47.81 25.5035 45.3583 28.6745 43.1789C34.5478 39.1472 41.0096 36.2813 47.6239 33.7751C67.0418 26.4198 87.2443 22.29 107.687 19.1081C109.386 18.8466 110.912 19.1299 111.271 21.0586C111.642 23.02 110.313 23.8482 108.58 24.0661C100.222 25.134 91.8645 26.289 83.6484 28.196C78.7013 29.3401 73.8195 30.724 69.1448 32.729C67.2924 33.5245 65.6034 34.5597 64.1433 35.9544C62.3998 37.6107 62.0511 39.6702 63.119 41.6643C64.1215 43.5276 66.1156 43.5276 67.9571 43.1027C71.2697 42.3508 74.2118 40.7163 77.1103 39.0164C78.832 38.003 80.4447 37.3056 81.7632 39.4523C82.842 41.2175 82.101 42.7213 79.6166 43.7892C66.3989 49.4881 53.1703 55.1762 39.9417 60.8425C37.1739 62.0302 34.2754 62.7385 31.0609 62.8802L31.05 62.8475Z" fill="white"/>
<path d="M161.342 278.648C160.59 278.626 160.143 278.158 159.871 277.569C159.369 276.501 159.031 275.357 158.476 274.333C157.822 273.134 157.822 271.238 155.948 271.162C154.226 271.086 153.932 272.796 153.278 273.897C149.551 280.228 145.901 286.603 142.185 292.934C141.619 293.903 141.27 295.407 139.853 295.298C138.35 295.178 138.437 293.566 138.121 292.509C136.595 287.3 135.146 282.07 133.729 276.839C133.435 275.749 133.228 274.627 131.92 274.431C130.471 274.202 130.166 275.466 129.676 276.403C125.045 285.339 120.446 294.296 115.804 303.231C115.336 304.124 115.194 305.508 113.701 305.345C112.492 305.214 112.263 304.081 111.881 303.187C107.555 292.923 103.24 282.669 98.958 272.393C98.5439 271.391 97.4651 270.17 98.7182 269.179C99.906 268.231 100.898 269.44 101.856 270.018C105.725 272.371 109.637 274.671 113.407 277.166C115.575 278.593 116.73 278.103 117.82 275.891C120.512 270.454 123.356 265.092 126.134 259.699C126.548 258.892 126.843 257.901 127.911 257.835C129.131 257.759 129.48 258.816 129.97 259.699C132.836 264.951 135.734 270.192 138.633 275.433C139.156 276.381 139.603 277.536 140.954 277.384C142.283 277.231 142.49 275.989 142.828 274.976C144.615 269.658 146.435 264.351 148.113 259.012C148.778 256.909 149.715 256.342 151.633 257.628C153.441 258.838 155.37 259.862 157.157 261.104C158.944 262.336 160.339 262.314 161.876 260.603C163.75 258.511 165.853 256.626 167.88 254.686C168.37 254.218 168.882 253.498 169.732 254.01C170.582 254.523 170.604 255.329 170.299 256.168C167.727 263.24 165.166 270.312 162.584 277.384C162.366 277.994 162.039 278.539 161.331 278.648H161.342Z" fill="white"/>
<path d="M161.374 10.0835C160.829 14.6056 158.083 18.4521 154.269 21.5795C151.305 24.0095 147.873 25.6984 144.277 26.9625C143.155 27.3547 141.673 27.8342 140.888 26.3305C140.191 25.0011 141.182 24.1402 142.087 23.3447C146.489 19.4546 148.363 14.4421 148.81 8.71048C149.093 5.14726 151.97 2.81535 155.446 3.01149C158.933 3.21853 161.439 5.95361 161.374 10.0726V10.0835Z" fill="white"/>
<path d="M263.901 272.281C262.702 271.845 260.294 273.251 259.978 270.996C259.662 268.751 262.201 269.405 263.476 269.001C274.602 265.482 281.249 258.039 283.624 246.63C283.896 245.323 283.188 242.849 285.411 243.002C287.405 243.133 286.806 245.486 286.947 246.87C288.364 260.001 277.326 272.216 263.901 272.27V272.281Z" fill="white"/>
<path d="M267.202 239.788C267.071 231.572 263.966 224.696 257.962 219.095C257.232 218.408 255.826 217.809 256.72 216.512C257.569 215.259 258.681 216.196 259.607 216.654C272.868 223.127 276.759 240.986 267.398 252.319C266.832 253.005 266.319 254.019 265.252 253.507C263.977 252.886 264.598 251.829 264.968 250.913C266.439 247.361 267.3 243.689 267.202 239.81V239.788Z" fill="white"/>
<path d="M232.998 218.236C246.335 218.334 256.916 228.959 256.709 242.155C256.687 243.212 256.982 244.639 255.532 244.792C254.279 244.922 254.236 243.538 253.963 242.612C250.291 230.244 241.584 222.922 228.89 221.56C227.92 221.451 226.961 221.331 226.95 220.165C226.95 219.152 227.876 218.945 228.705 218.825C230.132 218.618 231.57 218.432 232.998 218.247V218.236Z" fill="white"/>
<path d="M161.831 33.1871C160.883 33.1871 160.338 33.2089 159.794 33.1871C158.726 33.1326 157.429 33.2961 157.167 31.8686C156.873 30.2559 158.377 30.3431 159.303 29.9944C163.063 28.5887 165.656 25.9953 167.465 22.4539C168.86 19.697 171.3 18.6291 173.709 19.5009C176.727 20.5905 177.773 24.2082 175.801 26.9106C172.238 31.7705 167.018 32.9365 161.831 33.198V33.1871Z" fill="white"/>
<path d="M191.198 52.4092C191.242 52.6271 191.286 52.8451 191.329 53.063C191.1 53.0194 190.861 52.9649 190.632 52.9213C190.817 52.747 191.013 52.5835 191.198 52.4092Z" fill="#FEFEFE"/>
<path d="M90.8819 182.167C93.7325 182.811 96.595 183.4 99.426 184.111C108.618 186.419 117.021 190.381 124.642 195.961C128.227 198.588 131.412 201.654 134.663 204.658C136.445 206.307 138.758 206.225 140.183 204.344C144.797 198.254 150.828 194.041 157.759 190.931C162.317 188.889 167.08 187.562 172.012 186.812C174.042 186.502 175.954 185.913 178.173 186.298C181.569 186.887 183.823 188.819 185.606 191.328C188.48 195.372 190.6 199.805 191.24 204.8C191.134 204.745 191.248 204.87 191.24 204.8V205.875C191.24 205.875 191.389 208.627 191.381 210.391C191.373 212.191 191.193 214.997 191.193 214.997C191.071 215.115 191.201 214.867 191.193 214.997C190.942 219.512 189.56 223.769 187.934 227.931C187.125 230 186.583 232.446 183.878 233.133C182.669 233.44 181.514 233.887 180.191 234.146C178.424 234.743 177.819 234.608 175.487 234.743L171.356 234.539C166.919 234.633 162.898 232.992 159.086 231.052C151.994 227.44 146.258 222.112 141.181 216.108C138.99 213.516 137.91 213.081 134.859 214.643C126.986 218.668 119.322 223.085 111.284 226.808C105.752 229.368 100.168 231.712 94.1056 232.804C90.6384 233.428 87.6268 232.427 85.9502 229.651C84.8586 227.84 84.1557 225.838 83.4215 223.855C82.4555 221.24 82.2238 218.833 81.8312 215.888L81.4385 209.409L81.8312 202.691C81.8273 202.813 81.9529 202.573 81.8312 202.691C81.9255 198.105 82.911 193.66 84.2775 189.325C85.1688 186.49 85.6949 183.211 89.3152 182.167H90.8819ZM174.466 232.097C175.302 232.289 176.555 232.057 177.835 231.987C181.561 231.79 184.365 230.51 185.755 226.38C187.691 220.616 189.084 214.785 189.104 208.777C189.124 203.025 186.717 197.818 183.517 193.091C181.652 190.33 179.139 188.194 175.357 188.764C173.406 189.058 171.466 189.474 169.538 189.91C158.677 192.372 149.285 197.253 142.206 206.001C139.775 209.005 135.994 209.284 132.876 206.79C130.889 205.2 129.193 203.3 127.297 201.603C122.836 197.618 117.869 194.406 112.533 191.76C106.47 188.752 100.015 186.785 93.3949 185.324C89.2838 184.417 88.6202 184.672 87.3637 188.61C84.8586 196.448 83.6806 204.43 84.1518 212.7C84.4659 218.185 85.7656 223.282 88.2904 228.135C88.9854 229.466 89.9552 230.126 91.4983 230.122C93.8975 230.11 96.2298 229.772 98.4954 229.018C104.931 226.882 111.08 224.153 117.033 220.898C122.569 217.867 128.215 215.024 133.803 212.071C137.392 210.175 140.462 210.913 142.433 213.202C145.951 217.294 149.635 221.165 153.915 224.515C159.824 229.144 166.417 231.818 174.47 232.101L174.466 232.097Z" fill="white"/>
<path d="M174.465 232.096C166.412 231.813 159.819 229.139 153.91 224.51C149.634 221.161 145.947 217.289 142.429 213.198C140.461 210.909 137.391 210.17 133.798 212.067C128.215 215.02 122.564 217.862 117.028 220.894C111.079 224.153 104.926 226.878 98.4907 229.014C96.229 229.764 93.8927 230.105 91.4936 230.117C89.9505 230.125 88.9767 229.465 88.2856 228.13C85.7609 223.277 84.4612 218.18 84.1471 212.695C83.6759 204.426 84.8499 196.439 87.359 188.606C88.6194 184.668 89.283 184.412 93.3901 185.319C100.01 186.78 106.465 188.747 112.528 191.755C117.86 194.401 122.827 197.617 127.292 201.599C129.188 203.295 130.885 205.195 132.871 206.786C135.989 209.279 139.774 209 142.201 205.996C149.276 197.244 158.673 192.364 169.533 189.906C171.461 189.47 173.397 189.053 175.353 188.759C179.134 188.19 181.647 190.33 183.512 193.086C186.708 197.814 189.115 203.02 189.099 208.773C189.08 214.78 187.686 220.611 185.75 226.375C184.36 230.506 181.56 231.794 177.834 231.986C176.554 232.053 175.298 232.281 174.461 232.092L174.465 232.096Z" fill="#E05263"/>
</svg>
